<svg width="32" height="32" viewBox="0 0 32 32" fill="none" xmlns="http://www.w3.org/2000/svg">
<rect width="32" height="32" rx="8" fill="#FFC260"/>
<path d="M12.5604 9.33751L11.9454 10.39C11.8504 10.5525 11.8004 10.74 11.8004 10.93V11C11.8004 11.5525 12.2479 12 12.8004 12C13.3529 12 13.8004 11.5525 13.8004 11V10.93C13.8004 10.74 13.7504 10.555 13.6554 10.39L13.0404 9.33751C12.9904 9.25251 12.8979 9.20001 12.8004 9.20001C12.7029 9.20001 12.6104 9.25251 12.5604 9.33751ZM15.7604 9.33751L15.1454 10.39C15.0504 10.5525 15.0004 10.74 15.0004 10.93V11C15.0004 11.5525 15.4479 12 16.0004 12C16.5529 12 17.0004 11.5525 17.0004 11V10.93C17.0004 10.74 16.9504 10.555 16.8554 10.39L16.2404 9.33751C16.1904 9.25251 16.0979 9.20001 16.0004 9.20001C15.9029 9.20001 15.8104 9.25251 15.7604 9.33751ZM18.3454 10.39C18.2504 10.5525 18.2004 10.74 18.2004 10.93V11C18.2004 11.5525 18.6479 12 19.2004 12C19.7529 12 20.2004 11.5525 20.2004 11V10.93C20.2004 10.74 20.1504 10.555 20.0554 10.39L19.4404 9.33751C19.3904 9.25251 19.2979 9.20001 19.2004 9.20001C19.1029 9.20001 19.0104 9.25251 18.9604 9.33751L18.3454 10.39ZM13.6004 13.6C13.6004 13.1575 13.2429 12.8 12.8004 12.8C12.3579 12.8 12.0004 13.1575 12.0004 13.6V14.9375C11.0679 15.265 10.4004 16.155 10.4004 17.2V17.72C10.9229 17.7525 11.4404 17.9025 11.9079 18.17L12.0854 18.2725C12.7429 18.6475 13.5579 18.6075 14.1754 18.1675C15.2679 17.3875 16.7329 17.3875 17.8254 18.1675C18.4404 18.6075 19.2579 18.65 19.9154 18.2725L20.0929 18.17C20.5604 17.9025 21.0754 17.7525 21.6004 17.72V17.2C21.6004 16.155 20.9329 15.265 20.0004 14.9375V13.6C20.0004 13.1575 19.6429 12.8 19.2004 12.8C18.7579 12.8 18.4004 13.1575 18.4004 13.6V14.8H16.8004V13.6C16.8004 13.1575 16.4429 12.8 16.0004 12.8C15.5579 12.8 15.2004 13.1575 15.2004 13.6V14.8H13.6004V13.6ZM21.6004 18.925C21.2829 18.955 20.9729 19.05 20.6879 19.2125L20.5104 19.315C19.4454 19.9225 18.1254 19.8575 17.1279 19.145C16.4529 18.6625 15.5479 18.6625 14.8729 19.145C13.8754 19.8575 12.5554 19.925 11.4904 19.315L11.3129 19.2125C11.0279 19.05 10.7179 18.9525 10.4004 18.925V20.8C10.4004 21.6825 11.1179 22.4 12.0004 22.4H20.0004C20.8829 22.4 21.6004 21.6825 21.6004 20.8V18.925Z" fill="#6E3B08"/>
</svg>
