<svg width="24" height="24" viewBox="0 0 24 24" fill="none" xmlns="http://www.w3.org/2000/svg">
<path d="M19.6688 5.01744C19.6613 5.00619 19.6538 4.99494 19.6388 4.99119C18.21 4.33494 16.6988 3.86619 15.15 3.59994C15.135 3.59619 15.12 3.59994 15.1088 3.60369C15.0975 3.60744 15.0863 3.61869 15.0788 3.63369C14.8725 4.00494 14.685 4.39119 14.52 4.78119C12.8475 4.52619 11.1488 4.52619 9.48004 4.78119C9.31129 4.38744 9.12379 4.00494 8.91379 3.63369C8.90629 3.62244 8.89504 3.61119 8.88379 3.60369C8.87254 3.59619 8.85754 3.59619 8.84254 3.59619C7.29379 3.86244 5.78254 4.33119 4.35379 4.98744C4.34254 4.99119 4.33129 5.00244 4.32379 5.01369C1.46629 9.28119 0.682535 13.4474 1.06504 17.5574C1.06504 17.5687 1.06879 17.5762 1.07254 17.5874C1.07629 17.5987 1.08379 17.6024 1.09129 17.6099C2.75629 18.8437 4.61629 19.7849 6.59629 20.3924C6.61129 20.3962 6.62629 20.3962 6.63754 20.3924C6.64879 20.3887 6.66379 20.3774 6.67129 20.3662C7.09504 19.7887 7.47379 19.1737 7.79629 18.5362C7.80004 18.5287 7.80379 18.5174 7.80379 18.5062C7.80379 18.4949 7.80379 18.4874 7.80004 18.4762C7.79629 18.4649 7.79254 18.4574 7.78504 18.4537C7.77754 18.4499 7.77004 18.4424 7.75879 18.4387C7.16629 18.2099 6.58879 17.9362 6.03754 17.6174C6.02629 17.6099 6.01879 17.6024 6.01129 17.5949C6.00379 17.5874 6.00004 17.5724 6.00004 17.5612C6.00004 17.5499 6.00004 17.5387 6.00754 17.5274C6.01504 17.5162 6.01879 17.5087 6.03004 17.5012C6.14629 17.4149 6.26254 17.3249 6.37129 17.2349C6.38254 17.2274 6.39379 17.2199 6.40504 17.2199C6.41629 17.2199 6.43129 17.2199 6.44254 17.2237C10.05 18.8699 13.9575 18.8699 17.5238 17.2237C17.535 17.2199 17.55 17.2162 17.5613 17.2162C17.5725 17.2162 17.5875 17.2237 17.595 17.2312C17.7038 17.3212 17.82 17.4149 17.9363 17.5012C17.9438 17.5087 17.9513 17.5162 17.9588 17.5274C17.9663 17.5387 17.9663 17.5499 17.9663 17.5612C17.9663 17.5724 17.9625 17.5837 17.955 17.5949C17.9475 17.6062 17.94 17.6137 17.9325 17.6174C17.3813 17.9399 16.8075 18.2137 16.2113 18.4349C16.2038 18.4387 16.1925 18.4424 16.185 18.4499C16.1775 18.4574 16.1738 18.4649 16.17 18.4762C16.1663 18.4874 16.1663 18.4949 16.1663 18.5062C16.1663 18.5174 16.17 18.5249 16.1738 18.5362C16.5038 19.1737 16.8788 19.7849 17.2988 20.3662C17.3063 20.3774 17.3213 20.3887 17.3325 20.3924C17.3438 20.3962 17.3625 20.3962 17.3738 20.3924C19.3575 19.7849 21.2213 18.8437 22.89 17.6099C22.8975 17.6024 22.905 17.5949 22.9088 17.5874C22.9125 17.5799 22.9163 17.5687 22.9163 17.5574C23.3775 12.8024 22.1475 8.67369 19.6575 5.01369L19.6688 5.01744ZM8.34379 15.0562C7.25629 15.0562 6.36379 14.0587 6.36379 12.8362C6.36379 11.6137 7.24129 10.6162 8.34379 10.6162C9.45754 10.6162 10.3425 11.6212 10.3238 12.8362C10.3238 14.0624 9.44629 15.0562 8.34379 15.0562ZM15.6713 15.0562C14.5838 15.0562 13.6913 14.0587 13.6913 12.8362C13.6913 11.6137 14.5688 10.6162 15.6713 10.6162C16.785 10.6162 17.67 11.6212 17.6513 12.8362C17.6513 14.0624 16.7813 15.0562 15.6713 15.0562Z" fill="white"/>
</svg>
