<svg width="1824" height="542" viewBox="0 0 1824 542" fill="none" xmlns="http://www.w3.org/2000/svg">
<g opacity="0.5">
<path d="M573.967 374.916C535.737 379.85 521.218 391.945 546.204 398.85C597.611 413.058 809.245 406.04 819.203 396.408C829.012 386.92 653.738 364.618 573.967 374.916Z" stroke="#100F3D" stroke-width="2" stroke-miterlimit="10"/>
<path d="M668.692 343.313C756.015 333.885 902.639 401.014 842.116 416.863C804.905 426.608 714.825 425.39 641.365 422.187C572.403 419.181 473.864 406.889 449.553 386.475C436.681 375.638 444.408 360.197 471.671 354.79C492.77 350.606 521.255 352.488 527.538 351.792C557.494 355.622 561.89 357.111 585.756 358.01C616.952 359.185 644.678 345.906 668.692 343.313Z" stroke="#100F3D" stroke-width="2" stroke-miterlimit="10"/>
<path d="M757.292 310.296C858.709 315.287 968.917 413.338 858.903 435.903C788.84 450.274 666.694 443.928 581.555 436.33C503.348 429.352 373.123 406.062 346.776 372.686C331.46 353.292 350.071 326.01 403.393 318.119C445.898 311.83 500.664 317.238 510.307 317.654C567.303 327.106 571.912 331.914 614.352 335.151C670.543 339.432 714.908 308.2 757.292 310.296Z" stroke="#100F3D" stroke-width="2" stroke-miterlimit="10"/>
<path d="M839.469 277.498C951.445 286.699 1028.77 425.801 869.268 455.159C766.324 474.105 612.075 462.74 515.323 450.69C427.797 439.793 266.431 405.501 237.577 359.113C220.169 331.138 249.218 292.075 328.684 281.665C392.538 273.297 474.086 281.885 486.635 283.733C574.364 296.661 575.475 306.934 636.553 312.509C717.684 319.936 780.826 272.69 839.469 277.498Z" stroke="#100F3D" stroke-width="2" stroke-miterlimit="10"/>
<path d="M916.705 246.192C1040.71 259.465 1083.48 439.616 874.691 475.91C738.728 499.333 552.441 483.074 444.158 466.547C347.211 451.754 154.909 406.462 123.398 347.032C104.029 310.501 143.387 259.642 249.006 246.697C334.246 236.259 441.928 248.502 458.002 251.294C571.088 270.939 574.013 283.488 653.71 291.362C759.8 301.934 842.477 238.25 916.705 246.192Z" stroke="#100F3D" stroke-width="2" stroke-miterlimit="10"/>
<path d="M165.857 212.145C272.446 199.64 406.197 215.522 425.899 219.275C564.037 245.593 569.145 260.364 667.434 270.611C798.501 284.275 901.204 203.989 990.405 215.283C1127.42 232.631 1135.11 454.061 876.579 497.057C707.884 525.112 489.198 503.825 369.449 482.798C263.1 464.126 39.9996 407.833 5.75906 335.351C-15.5256 290.267 34.0676 227.606 165.857 212.145Z" stroke="#100F3D" stroke-width="2" stroke-miterlimit="10"/>
<path d="M1319.26 189.33C1277.28 189.221 1226.92 166.779 1264.58 163.032C1286.33 160.864 1343.91 164.292 1366.52 170.393C1398.38 178.977 1348.15 189.407 1319.26 189.33Z" stroke="#100F3D" stroke-width="2" stroke-miterlimit="10"/>
<path d="M1205.16 166.175C1209.27 163.163 1228.51 161.825 1246.06 158.158C1281.67 150.714 1286.78 147.178 1312.07 142.689C1321.94 140.935 1335.21 138.63 1348.16 139.685C1368 141.303 1372.96 148.301 1398.14 160.628C1430.78 176.644 1443.15 180.785 1433.82 189.273C1431.65 191.246 1428.83 197.638 1413.11 201.536C1391.33 206.926 1365.81 202.763 1333.9 206.33C1295.58 210.608 1276.58 218.223 1259.95 214.858C1248.24 212.488 1247.8 205.997 1239.03 194.694C1232.35 186.084 1228.15 180.434 1220.02 175.826C1210.28 170.338 1200.59 169.523 1205.16 166.175Z" stroke="#100F3D" stroke-width="2" stroke-miterlimit="10"/>
<path d="M1140.98 172.452C1141.69 167.113 1168.9 164.529 1191.32 156.814C1237.31 140.989 1216 129.681 1252.86 118.119C1268.5 113.211 1293.05 108.456 1317.64 109.378C1352.55 110.687 1364.27 121.801 1418.01 144.334C1488.27 173.795 1518.2 179.565 1511.64 195.265C1510.3 198.465 1508.99 210.751 1481.53 218.146C1444.92 228.008 1401.02 219.036 1343.69 226.448C1279.64 234.719 1255.7 252.401 1234.1 248.742C1219.09 246.201 1224.84 235.968 1213.31 216.01C1205.15 201.824 1200.11 193.534 1183.79 186.743C1163.2 178.179 1140.21 178.25 1140.98 172.452Z" stroke="#100F3D" stroke-width="2" stroke-miterlimit="10"/>
<path d="M1076.74 178.66C1073.96 171.009 1109.19 167.161 1136.52 155.4C1192.79 131.187 1144.27 112.261 1193.59 93.4778C1214.7 85.441 1250.9 78.2512 1287.06 79.0012C1337.17 80.0394 1355.69 95.1833 1437.9 127.972C1545.99 170.815 1592.54 178.358 1589.48 201.188C1588.88 205.64 1589.16 223.79 1549.99 234.696C1498.52 249.021 1436.16 235.224 1353.52 246.503C1263.66 258.767 1234.86 286.508 1208.23 282.566C1189.95 279.84 1201.66 265.877 1187.58 237.263C1177.87 217.501 1172.01 206.61 1147.54 197.598C1116 185.984 1079.71 186.903 1076.74 178.66Z" stroke="#100F3D" stroke-width="2" stroke-miterlimit="10"/>
<path d="M1012.35 184.852C1006.12 174.896 1049.27 169.771 1081.57 153.971C1148 121.356 1072.18 94.8867 1134.18 68.8226C1160.68 57.6714 1208.64 48.0431 1256.33 48.6078C1321.69 49.3835 1346.7 68.6087 1457.6 111.596C1603.18 167.894 1666.54 177.192 1667.1 207.098C1667.21 212.801 1669.04 236.798 1618.2 251.229C1551.81 270.001 1471.11 251.386 1363.11 266.544C1247.43 282.783 1213.77 320.609 1182.22 316.376C1160.65 313.473 1178.33 295.768 1161.71 258.501C1150.41 233.162 1143.78 219.683 1111.15 208.438C1068.64 193.79 1019.05 195.558 1012.35 184.852Z" stroke="#100F3D" stroke-width="2" stroke-miterlimit="10"/>
<path d="M947.836 191.041C958.265 204.217 1021.14 201.593 1074.62 219.275C1115.4 232.757 1122.81 248.816 1135.7 279.737C1154.82 325.654 1131.21 347.104 1156.06 350.181C1192.58 354.707 1231.09 306.794 1372.6 286.582C1505.92 267.542 1605.12 291.014 1686.32 267.759C1748.92 249.829 1745.44 219.986 1744.62 213.001C1740.31 176.028 1660.25 164.968 1477.18 95.2147C1337.58 42.0283 1306.09 18.7277 1225.46 18.2115C1166.23 17.8322 1106.5 29.9046 1074.62 44.1644C999.965 77.5325 1103.24 111.559 1026.5 152.539C989.304 172.398 938.128 178.783 947.836 191.041Z" stroke="#100F3D" stroke-width="2" stroke-miterlimit="10"/>
<path d="M1481.39 403.113C1470.43 401.402 1447.42 404.699 1445.39 409.836C1443.08 415.662 1469.12 420.482 1480.55 418.985C1494.08 417.211 1495.92 405.378 1481.39 403.113Z" stroke="#100F3D" stroke-width="2" stroke-miterlimit="10"/>
<path d="M1512.26 434.072C1530.93 428.69 1539.1 418.814 1548.43 401.884C1557.69 385.098 1556.23 373.079 1548.1 372.207C1543.67 371.736 1531.11 375.418 1520.34 378.116C1500.17 383.152 1465.65 382.593 1456.81 383.138C1424.42 385.135 1414.9 388.842 1401.37 395.944C1395.1 399.223 1380.49 406.496 1374.06 415.052C1364.25 428.008 1320.28 432.001 1325.64 437.194C1330.15 441.529 1373.7 442.582 1401.95 442.704C1442.43 442.881 1483.39 442.382 1512.26 434.072Z" stroke="#100F3D" stroke-width="2" stroke-miterlimit="10"/>
<path d="M1544.63 448.54C1575.33 438.923 1587.4 422.783 1606 392.601C1624.9 362.273 1624.78 341.471 1615.47 340.695C1608.48 340.102 1585.86 347.6 1566.63 352.959C1530.38 363.103 1465.49 361.435 1452.12 362.085C1391.13 364.988 1376.1 371.944 1352.47 385.092C1342.62 390.568 1315.61 403.915 1303.3 419.678C1284.36 443.825 1194.54 450.148 1201.97 459.1C1208.18 466.555 1291.47 467.699 1343.88 467.086C1417.87 466.199 1492.76 464.796 1544.63 448.54Z" stroke="#100F3D" stroke-width="2" stroke-miterlimit="10"/>
<path d="M1576.82 462.914C1619.57 449.064 1635.42 426.651 1663.39 383.224C1691.79 339.346 1693.11 309.808 1682.66 309.073C1673.08 308.388 1640.4 319.682 1612.77 327.716C1560.53 342.994 1465.18 340.185 1447.28 340.921C1357.71 344.605 1337.09 354.909 1303.42 374.132C1289.98 381.801 1250.59 401.225 1232.38 424.187C1204.33 459.528 1068.67 468.175 1078.15 480.89C1086.07 491.465 1209.11 492.745 1285.66 491.345C1393.16 489.477 1502.08 487.132 1576.82 462.914Z" stroke="#100F3D" stroke-width="2" stroke-miterlimit="10"/>
<path d="M1608.92 477.279C1663.74 459.197 1683.35 430.507 1720.68 373.835C1758.62 316.414 1761.4 278.149 1749.76 277.438C1737.58 276.688 1694.83 291.733 1658.82 302.447C1590.48 322.825 1464.79 318.903 1442.35 319.745C1324.21 324.162 1297.83 337.84 1254.28 363.157C1237.2 373.014 1185.47 398.522 1161.39 428.684C1124.21 475.217 942.691 486.191 954.258 502.667C963.873 516.357 1126.65 517.723 1227.36 515.595C1368.31 512.666 1511.33 509.469 1608.92 477.279Z" stroke="#100F3D" stroke-width="2" stroke-miterlimit="10"/>
<path d="M1437.38 298.56C1290.68 303.694 1258.78 320.806 1205.1 352.177C1184.47 364.238 1120.32 395.812 1090.35 433.173C1044.08 490.903 816.676 504.201 830.308 524.436C841.635 541.263 1044.15 542.689 1169.01 539.837C1343.47 535.844 1520.57 531.8 1640.98 491.639C1707.87 469.322 1731.23 434.362 1777.94 364.441C1825.35 293.472 1829.58 246.489 1816.8 245.799C1802 245 1749.25 263.766 1704.83 277.17C1620.39 302.644 1464.37 297.616 1437.38 298.56Z" stroke="#100F3D" stroke-width="2" stroke-miterlimit="10"/>
<path d="M244.517 161.38C261.175 181.059 380.739 171.816 523.068 216.138C574.068 232.021 608.263 248.634 675.763 251.217C682.574 251.477 750.194 253.756 797.918 240.38C857.959 223.553 821.313 200.21 891.385 167.655C917.195 155.662 921.489 159.144 940.433 149.687C1021.28 109.318 897.974 68.3349 969.121 27.3378C1001.87 8.4663 1050.56 4.13416 1045.93 1.67006C1025.96 -8.9022 199.505 108.354 244.517 161.38Z" stroke="#100F3D" stroke-width="2" stroke-miterlimit="10"/>
<path d="M694.271 224.315C698.361 224.144 742.948 225.17 773.533 215.713C812.207 203.772 784.638 187.33 828.947 165.134C845.253 156.96 847.521 159.176 859.125 152.71C908.635 125.12 819.776 97.3651 863.29 70.3569C883.427 57.8539 915.215 54.9876 910.486 53.767C889.1 48.2 343.593 130.442 386.44 166.229C402.505 179.65 490.207 174.887 590.559 203.795C627.049 214.299 651.757 226.092 694.271 224.315Z" stroke="#100F3D" stroke-width="2" stroke-miterlimit="10"/>
<path d="M712.779 197.409C713.946 196.505 735.748 196.525 749.148 191.047C766.546 183.939 748.019 174.471 766.509 162.615C773.293 158.263 773.57 159.193 777.827 155.734C796.104 140.855 741.504 126.412 757.468 113.373C764.936 107.236 778.817 106.189 775.116 105.861C748.056 107.045 488.236 152.611 528.316 171.077C543.964 178.293 599.98 177.948 658.004 191.452C680.057 196.585 694.493 200.344 712.779 197.409Z" stroke="#100F3D" stroke-width="2" stroke-miterlimit="10"/>
<path d="M731.288 170.507C716.925 157.573 660.382 153.175 639.671 157.958C609.132 165.02 635.183 174.214 670.21 175.925C696.39 177.195 747.723 185.308 731.288 170.507Z" stroke="#100F3D" stroke-width="2" stroke-miterlimit="10"/>
</g>
</svg>
