<svg width="1186" height="1216" viewBox="0 0 1186 1216" fill="none" xmlns="http://www.w3.org/2000/svg">
<path d="M311.159 941.892C307.746 944.489 304.252 947.038 300.658 949.485C298.503 950.949 295.775 952.936 292.631 955.219C276.978 966.578 253.46 983.68 239.87 983.004C228.621 982.444 214.765 972.276 201.376 962.46C193.222 956.476 185.524 950.83 179.049 947.808C174.899 945.865 170.846 943.761 166.817 941.66C150.633 933.308 135.351 925.417 117.922 930.29C112.47 932.159 107.309 934.786 102.589 938.093C96.8878 941.659 90.983 945.336 84.0838 947.008C79.9164 947.725 75.6458 947.569 71.5424 946.55C66.8825 945.68 62.1246 944.884 57.0237 946.337C49.6968 948.556 42.7326 951.832 36.3512 956.062C26.655 961.983 17.5049 967.577 -1.4666 964.416C-18.8579 961.531 -35.8688 952.616 -50.862 944.727C-54.5804 942.743 -58.2244 940.857 -61.7727 939.096C-65.3209 937.336 -68.9117 935.52 -72.2137 933.793C-89.8907 924.612 -105.127 916.665 -126.131 916.463C-131.896 916.434 -137.372 916.494 -142.64 916.595C-158.572 916.905 -173.625 917.209 -191.765 912.355C-244.496 898.208 -299.75 847.426 -315.426 832.196C-323.158 824.676 -330.351 816.239 -337.318 808.071C-346.145 797.72 -355.266 787.04 -365.481 778.231C-371.15 773.337 -376.792 769.173 -382.246 765.198C-394.964 755.887 -406.962 747.087 -416.343 730.842C-431.571 704.473 -423.529 678.789 -415.755 653.972C-410.362 636.62 -404.734 618.735 -406.531 600.119C-411.353 551.435 -425.411 511.28 -440.605 470.996L-441.621 468.325C-457.018 427.776 -474.367 381.757 -508.503 351.847C-523.437 338.812 -544.47 338.368 -564.805 337.943C-587.677 337.463 -611.274 336.96 -626.451 318.612C-635.05 321.998 -644.743 327.895 -654.149 333.617C-671.771 344.333 -686.998 353.58 -695.635 347.368C-702.011 342.791 -702.774 331.426 -698.091 310.529C-692.777 286.833 -691.749 260.813 -690.849 235.728C-690.129 216.676 -689.357 197.054 -686.798 177.951C-685.53 168.617 -684.387 158.451 -683.208 147.838C-679.319 112.663 -674.906 72.805 -662.867 44.5655C-644.833 1.916 -622.215 -38.6476 -595.412 -76.4101C-587.253 -87.5238 -577.475 -97.3535 -566.405 -105.572C-559.71 -110.677 -552.638 -115.269 -545.25 -119.308C-529.754 -127.766 -518.778 -128.058 -506.161 -128.342C-499.45 -128.39 -492.749 -128.872 -486.1 -129.785L-484.116 -130.08L-483.116 -128.302C-479.651 -121.741 -476.737 -114.903 -474.406 -107.859C-471.811 -99.7726 -468.348 -91.9912 -464.078 -84.6504L-450.833 -62.5136C-437.66 -56.0876 -417.794 -52.6793 -404.432 -60.2858C-393.451 -66.4341 -390.438 -76.0581 -387.137 -86.3202C-384.616 -93.9794 -381.996 -101.913 -376.066 -108.634C-374.148 -110.781 -372.034 -112.745 -369.751 -114.499C-345.972 -132.594 -318.659 -111.911 -294.565 -93.6585C-284.18 -85.8171 -274.403 -78.3968 -265.599 -74.4316C-257.338 -70.523 -249.282 -66.1953 -241.463 -61.4654C-231.098 -55.42 -221.326 -49.7184 -211.21 -46.2652C-195.228 -40.7625 -173.98 -43.9262 -155.207 -46.6856C-149.36 -47.5357 -143.767 -48.3699 -138.603 -48.8988C-131.634 -49.6093 -124.234 -51.0012 -117.023 -52.2934C-102.615 -54.9549 -87.7051 -57.7113 -74.0782 -55.8262C-68.0536 -54.7459 -62.2421 -52.7046 -56.8657 -49.7804C-51.4135 -47.1727 -46.3487 -44.6675 -40.1401 -44.0264C-34.6665 -43.4223 -29.582 -45.2159 -24.2097 -47.096C-18.8375 -48.976 -13.689 -50.6858 -7.66772 -50.6971C13.5652 -50.4267 44.9134 -38.0251 59.7799 -27.0805C65.0539 -22.8801 69.9218 -18.1936 74.3192 -13.0828C84.239 -2.28225 94.4987 8.87789 109.486 7.76227C117.816 7.09832 126.358 1.54733 135.58 -4.38816C145.697 -10.917 157.176 -18.3272 170.292 -20.1606L176.951 -21.0762C202.334 -24.4944 214.699 -26.3294 234.536 -44.4948C268.188 -75.0142 305.155 -101.664 344.745 -123.945C383.791 -145.489 420.201 -151.512 470.45 -144.75C499.146 -140.884 507.92 -142.792 532.965 -152.577C550.388 -159.432 564.976 -160.928 580.428 -162.507C585.413 -163.01 590.614 -163.634 596.055 -164.263C603.293 -165.201 610.435 -166.816 617.261 -168.323C632.528 -171.771 648.315 -175.349 665.017 -171.542C672.039 -169.843 678.892 -167.504 685.487 -164.553C698.989 -158.885 706.215 -155.861 722.625 -169.563C728.656 -174.79 734.237 -180.515 739.31 -186.676C744.21 -192.741 749.733 -198.276 755.788 -203.19C763.669 -209.138 772.962 -212.93 782.754 -214.194C798.573 -216.626 809.148 -214.804 816.252 -208.661C823.108 -202.728 826.251 -192.997 826.142 -178.076C825.896 -135.935 804.156 -93.2473 784.993 -55.59C782.496 -50.6867 780.065 -45.8997 777.752 -41.2473C774.004 -33.6918 770.385 -25.7927 766.551 -17.4213C751.981 14.4002 735.422 50.4291 707 72.0581C705.447 73.2395 703.88 74.4317 702.218 75.498C689.671 83.9421 675.301 91.1234 661.429 98.0586C644.18 106.768 626.23 115.659 610.844 127.367C601.104 134.664 592.543 143.413 585.46 153.308C580.937 159.643 577.711 164.836 574.856 169.415C570.239 176.815 566.858 182.125 561.809 185.968C555.039 191.12 545.859 193.336 525.463 194.747C505.068 196.158 494.104 201.807 483.502 209.875C477.333 214.569 471.06 220.403 463.752 227.112L461.671 229.049C444.978 244.556 435.022 258.669 422.445 276.565L419.994 280.019C416.079 285.168 411.876 290.091 407.405 294.766C395.787 307.537 379.882 325.007 380.848 336.813C381.883 349.783 408.544 384.034 419.781 393.17C434.669 405.246 453.584 412.889 475.985 415.914C515.39 421.257 542.315 409.269 573.589 395.451C583.492 391.05 593.697 386.552 604.843 382.332C625.437 374.565 663.842 360.046 683.753 380.754C703.664 401.461 689.552 443.202 682.131 465.697L681.624 467.208C670.81 499.727 651.27 527.978 632.335 555.282C619.623 573.611 606.494 592.611 596.135 612.639C585.378 633.565 572.793 653.366 560.646 672.524C544.896 697.338 528.618 722.996 516.746 750.556C501.954 784.843 477.759 806.368 456.051 822.888C445.113 831.212 433.742 838.938 421.716 847.139L412.263 853.582C391.6 867.761 373.867 884.832 356.697 901.365C342.369 915.161 327.566 929.407 311.159 941.892ZM-562.851 -100.902C-573.442 -93.0472 -582.798 -83.6505 -590.605 -73.0245C-617.172 -35.5855 -639.588 4.63163 -657.456 46.917C-669.149 74.3631 -673.512 113.764 -677.319 148.524C-678.487 159.151 -679.627 169.38 -680.856 178.706C-683.403 197.448 -684.141 216.999 -684.844 235.928C-685.809 261.304 -686.793 287.557 -692.227 311.763C-697.373 334.78 -694.333 340.923 -692.086 342.569C-686.6 346.498 -670.918 336.949 -657.084 328.542C-646.708 322.236 -635.948 315.681 -626.343 312.281L-624.302 311.567L-622.972 313.315C-609.63 331.05 -587.746 331.509 -564.575 332.005C-543.189 332.446 -521.069 332.925 -504.544 347.355C-469.217 378.191 -451.578 424.939 -436.015 466.201L-435.009 468.858C-419.665 509.513 -405.446 550.142 -400.651 599.487C-398.786 619.353 -404.523 637.763 -410.116 655.665C-417.824 680.366 -425.147 703.714 -411.22 727.849C-402.459 743.02 -391.465 751.082 -378.736 760.407C-373.168 764.473 -367.445 768.685 -361.583 773.718C-351.045 782.835 -341.772 793.685 -332.803 804.194C-325.957 812.233 -318.817 820.6 -311.283 827.917C-270.153 867.917 -224.892 897.354 -190.208 906.622C-172.854 911.257 -158.883 910.981 -142.713 910.666C-137.381 910.561 -131.845 910.434 -126.013 910.522C-103.705 910.813 -87.8096 918.988 -69.4658 928.522C-66.09 930.259 -62.6469 932.055 -59.0528 933.847C-55.4587 935.638 -51.8074 937.563 -48.0676 939.575C-33.4171 947.217 -16.9067 955.939 -0.483792 958.567C16.383 961.343 23.8775 956.766 33.3672 950.98C40.2001 946.467 47.6541 942.974 55.494 940.612C61.886 938.795 67.605 939.808 72.7049 940.763C76.0105 941.61 79.4519 941.791 82.8285 941.295C88.7942 939.847 94.055 936.572 99.6061 933.099C104.881 929.813 110.323 926.401 116.477 924.677C136.138 919.166 152.414 927.58 169.639 936.487C173.566 938.511 177.559 940.595 181.653 942.492C188.579 945.789 196.545 951.584 204.939 957.739C217.064 966.618 230.771 976.679 240.294 977.205C251.789 977.797 275.304 960.72 289.315 950.543C292.516 948.218 295.3 946.188 297.483 944.703C317.944 930.723 335.617 913.719 352.745 897.218C370.087 880.532 388.001 863.235 409.06 848.821L418.541 842.357C430.496 834.209 441.826 826.515 452.624 818.297C473.731 802.235 497.223 781.355 511.472 748.299C523.538 720.326 539.955 694.474 555.806 669.472C567.845 650.463 580.385 630.719 591.049 610.018C601.546 589.62 614.803 570.5 627.637 552.012C646.335 525.064 665.66 497.198 676.182 465.455L676.691 463.919C683.768 442.568 696.97 402.824 679.707 384.87C662.445 366.916 626.357 380.534 607.042 387.747C596.043 391.899 585.902 396.393 576.082 400.73C543.991 414.926 516.292 427.173 475.307 421.641C451.833 418.483 431.967 410.46 416.202 397.638C405.594 389.039 376.432 353.069 375.1 337.213C373.927 322.87 390.143 305.054 403.188 290.733C407.477 286.228 411.523 281.498 415.309 276.563L417.763 273.083C430.505 254.996 440.684 240.626 457.81 224.701L459.891 222.763C467.272 215.889 473.632 209.967 480.038 205.091C493.578 194.788 506.647 190.076 525.089 188.827C557.953 186.561 559.464 182.916 569.874 166.206C572.645 161.779 576.063 156.286 580.683 149.789C588.161 139.446 597.176 130.307 607.416 122.689C623.306 110.597 641.431 101.53 658.964 92.7583C673.361 85.5557 686.869 78.8094 699.098 70.5855C729.091 50.4109 746.273 12.9366 761.338 -19.9465C765.204 -28.3639 768.788 -36.2802 772.605 -43.9767C774.921 -48.6539 777.366 -53.4515 779.874 -58.3409C798.746 -95.423 820.093 -137.525 820.404 -178.214C820.477 -191.297 817.991 -199.585 812.538 -204.312C807.086 -209.039 797.507 -210.538 783.746 -208.479C774.904 -207.353 766.51 -203.934 759.398 -198.562C753.673 -193.88 748.445 -188.622 743.796 -182.87C738.503 -176.471 732.682 -170.528 726.395 -165.101C707.147 -149.151 696.709 -153.551 683.218 -159.205C676.94 -162.021 670.419 -164.257 663.734 -165.885C648.299 -169.419 633.846 -166.15 618.541 -162.694C611.515 -161.101 604.243 -159.454 596.737 -158.49C591.196 -157.761 585.98 -157.215 580.942 -156.694C565.251 -155.109 551.707 -153.723 535.037 -147.154C509.264 -136.992 499.479 -134.845 469.601 -138.87C420.721 -145.46 385.339 -139.623 347.47 -118.798C308.279 -96.7653 271.686 -70.4003 238.38 -40.199C217.179 -20.7762 203.182 -18.7361 177.592 -15.2708L170.961 -14.3765C159.137 -12.7316 148.659 -5.95063 138.637 0.528354C128.862 6.84031 119.613 12.7971 109.888 13.5729C92.0512 14.8917 80.3075 2.10069 69.9487 -9.16072C65.8429 -13.9801 61.3025 -18.4117 56.3847 -22.3992C42.2707 -32.7903 11.8721 -44.6117 -7.65936 -44.852C-12.6654 -44.9288 -17.2871 -43.3107 -22.1753 -41.5782C-27.9298 -39.5618 -33.8946 -37.4737 -40.6909 -38.2196C-47.8985 -38.9836 -53.6828 -41.8245 -59.322 -44.5328C-64.1595 -47.1725 -69.3836 -49.032 -74.8014 -50.0427C-87.4924 -51.801 -101.925 -49.1427 -115.883 -46.5583C-123.189 -45.2162 -130.726 -43.8304 -137.906 -43.0481C-142.967 -42.5305 -148.495 -41.7249 -154.229 -40.872C-173.679 -38.0164 -195.7 -34.7944 -213.007 -40.7025C-223.662 -44.3416 -234.168 -50.4563 -244.311 -56.3838C-251.948 -61.0151 -259.82 -65.2469 -267.896 -69.0622C-277.328 -73.3006 -287.366 -80.9194 -297.998 -88.9698C-321.524 -106.794 -345.845 -125.228 -366.084 -109.826C-368.072 -108.297 -369.912 -106.586 -371.582 -104.715C-376.714 -98.9776 -378.971 -91.96 -381.36 -84.5337C-384.819 -73.7538 -388.457 -62.4839 -401.35 -55.1902C-416.973 -46.348 -439.102 -50.0881 -454.069 -57.7104L-454.831 -58.1022L-468.94 -81.6351C-473.449 -89.3106 -477.107 -97.4557 -479.848 -105.926C-481.896 -112.022 -484.351 -117.973 -487.197 -123.739C-493.416 -122.984 -499.671 -122.58 -505.935 -122.53C-517.87 -122.279 -528.118 -121.988 -542.368 -114.214C-549.516 -110.29 -556.362 -105.84 -562.851 -100.902Z" fill="#100F3D"/>
<path opacity="0.9" d="M327.919 847.186C318.338 854.477 308.321 857.684 297.842 861.241C287.363 864.799 276.83 868.111 265.469 875.763C262.722 877.611 260.27 879.322 258.045 880.839C237.064 895.325 234.774 896.119 204.867 883.26C199.269 880.896 193.928 878.491 188.808 876.205C169.225 867.48 152.315 859.945 129.908 855.026C126.719 854.318 123.402 853.529 119.99 852.703C99.833 847.838 76.9929 842.321 58.9359 852.088C51.9421 855.842 45.8577 862.04 40.3115 867.784C36.5069 871.996 32.3623 875.889 27.9197 879.422C20.1017 885.385 10.6659 888.848 0.847838 889.358C-15.6258 890.611 -27.3499 884.783 -39.7441 878.625C-46.9241 874.794 -54.4496 871.649 -62.2207 869.232C-81.6584 863.687 -99.7514 867.166 -118.901 870.852C-125.522 872.137 -132.385 873.451 -139.373 874.397C-191.31 881.439 -218.962 850.702 -248.248 818.139C-252.779 813.085 -257.422 807.941 -262.15 802.773C-269.884 794.526 -277.355 785.086 -284.595 775.978C-295.253 762.494 -306.291 748.569 -318.54 737.929C-323.51 733.734 -328.732 729.847 -334.178 726.291C-347.435 717.258 -358.881 709.473 -365.219 686.429C-370.125 668.546 -371.148 646.537 -372.057 627.113C-372.271 622.595 -372.474 618.178 -372.717 613.969C-374.558 582.844 -377.304 570.847 -388.978 542.59C-393.66 531.271 -395.315 519.083 -396.908 507.267C-398.718 493.916 -400.594 480.131 -406.931 467.972C-418.911 444.828 -433.67 420.355 -443.719 403.956C-447.999 396.967 -452.198 389.476 -456.23 382.232C-473.487 351.312 -491.338 319.321 -525.423 309.157C-528.773 308.151 -531.832 307.41 -534.776 306.647C-543.195 304.553 -550.448 302.742 -558.302 296.949C-562.036 294.084 -565.22 290.568 -567.702 286.57C-570.77 282.104 -573.003 278.879 -579.539 277.692C-588.686 276.063 -600.548 282.33 -612.033 288.398C-620.613 292.94 -628.718 297.209 -635.871 298.346C-650.723 300.684 -661.054 298.719 -667.484 292.329C-678.343 281.514 -675.057 260.289 -671.883 239.789C-670.276 230.845 -669.244 221.807 -668.796 212.731C-668.749 209.339 -668.973 203.791 -669.232 196.746C-671.007 152.124 -671.491 103.539 -655.434 91.3191C-654.084 90.2772 -652.553 89.4941 -650.918 89.0093L-640.352 41.333L-639.927 40.7886C-629.349 27.5503 -620.868 13.0369 -612.772 -1.13981C-600.894 -21.7264 -588.611 -42.9977 -569.25 -61.0648C-565.304 -64.7308 -561.445 -68.02 -557.767 -70.8194C-515.581 -102.922 -490.031 -75.9947 -460.417 -44.7413C-457.004 -41.1559 -454.099 -37.8024 -451.473 -34.7879C-438.835 -20.2704 -434.113 -14.8773 -412.006 -25.6496C-409.061 -27.1056 -406.263 -28.8429 -403.652 -30.8373C-397.273 -35.691 -392.337 -41.6557 -387.065 -47.8758C-380.611 -55.5911 -373.889 -63.6213 -364.356 -69.3516C-339.632 -84.2584 -304.801 -66.9328 -274.07 -51.6551C-263.425 -46.3744 -253.38 -41.3883 -244.372 -37.9974C-205.494 -23.4211 -165.005 -23.1861 -125.888 -23.0116C-86.3212 -22.8263 -45.4008 -22.633 -5.50815 -7.76868C5.74776 -3.5714 15.6015 3.74647 25.1444 10.8592C33.1964 16.8543 41.5238 23.0372 50.6534 27.2847C56.2568 29.8879 62.7578 33.7289 69.6716 37.7638C82.8361 45.5432 97.7654 54.3643 108.459 55.5006C118.449 56.5541 127.63 51.2903 137.353 45.7238C147.076 40.1573 157.559 34.1671 169.712 34.3476C174.844 34.5376 179.778 36.3717 183.787 39.5791C188.689 42.9149 191.938 45.1236 201.573 38.9181C202.048 38.5562 202.482 38.2262 202.971 37.8537C207.671 34.2773 208.225 30.4773 208.93 25.657C209.273 20.6869 210.991 15.9095 213.89 11.8576C216.316 8.68974 219.156 5.86085 222.332 3.44625C229.018 -1.64165 236.486 -4.45399 243.702 -7.16265C250.917 -9.87127 257.712 -12.4363 263.824 -17.0878C266.451 -19.0767 268.82 -21.384 270.878 -23.9569C274.185 -28.0857 275.445 -32.4671 276.886 -37.1627C278.731 -43.4463 280.693 -49.9521 287.343 -56.161C293.155 -61.5555 313.266 -70.7425 319.916 -73.3522C335.032 -79.291 349.523 -82.1921 364.863 -85.2539C374.249 -87.1415 384.011 -89.1161 394.032 -91.7956C411.14 -96.4235 424.466 -94.8175 438.569 -93.1184C445.547 -92.1585 452.572 -91.5704 459.612 -91.3564C489.244 -90.8753 519.125 -99.2391 548.037 -107.308C568.063 -112.92 586.938 -118.186 605.747 -120.752C618.745 -122.539 630.45 -120.451 641.751 -118.429C652.122 -116.584 661.896 -114.858 672.246 -116.088C678.516 -117.094 684.668 -118.735 690.607 -120.985C707.174 -126.614 725.939 -133.011 737.59 -110.213C756.341 -73.5855 689.312 5.5749 675.681 21.0705C669.065 28.6007 662.112 36.8503 654.909 45.3793C631.851 72.7519 605.717 103.746 579.607 123.769C566.417 133.807 555.799 133.96 545.519 134.121C537.389 134.235 529.699 134.346 520.61 139.121C510.838 144.217 499.487 156.498 488.973 168.252C480.619 177.591 472.069 187.166 463.299 193.84C424.134 223.644 394.15 256.022 368.711 295.938C345.285 332.666 369.007 384.854 405.466 414.1C420.756 426.357 455.969 440.586 473.48 444.992C481.049 446.616 488.734 447.641 496.465 448.058C512.014 449.364 529.61 450.834 543.762 460.026C548.299 462.795 552.177 466.521 555.126 470.942C558.076 475.364 560.025 480.377 560.837 485.629C566.528 521.465 525.539 572.353 505.825 596.805L505.355 597.406C499.593 604.55 494.125 610.368 489.341 615.576C477.607 628.193 468.349 638.174 461.279 659.011C449.101 694.643 437.602 728.324 405.59 754.494C380.642 774.914 368.921 792.512 352.686 816.834C349.913 820.998 347.015 825.345 343.928 829.88C339.586 836.495 334.176 842.343 327.919 847.186ZM48.9456 851.498C51.2028 849.761 53.5947 848.207 56.0986 846.85C76.1447 836.011 100.161 841.826 121.339 846.929C124.716 847.738 127.972 848.506 131.134 849.235C154.139 854.273 171.296 861.929 191.175 870.782C196.273 873.041 201.559 875.4 207.164 877.803C234.832 889.693 235.168 889.438 254.658 875.953C256.911 874.415 259.377 872.693 262.149 870.849C274.188 862.725 285.264 859.11 295.975 855.596C306.062 852.336 315.567 849.21 324.365 842.515C330.074 838.071 335.017 832.721 338.995 826.678C342.127 822.087 344.91 817.761 347.711 813.664C363.605 789.822 376.137 770.968 401.787 749.991C432.488 724.884 443.212 693.494 455.625 657.154C463.179 635.153 472.785 624.818 485.047 611.645C490.012 606.299 495.152 600.776 500.781 593.776L501.262 593.189C520.436 569.391 560.334 519.885 555.034 486.623C554.364 482.175 552.719 477.93 550.215 474.193C547.711 470.456 544.411 467.32 540.551 465.009C527.587 456.68 511.548 455.283 495.985 453.988C487.936 453.541 479.936 452.46 472.057 450.756C453.589 446.108 417.938 431.68 401.8 418.745C363.211 387.918 338.594 332.348 363.762 292.859C389.064 252.895 421.447 217.881 459.318 189.539C468.088 182.865 476.502 173.459 484.634 164.378C495.504 152.22 507.259 139.543 517.914 133.952C528.284 128.511 537.043 128.382 545.514 128.251C555.278 128.108 564.49 127.965 575.945 119.247C601.734 99.4683 627.644 68.7329 650.492 41.6078C657.741 33.0222 664.711 24.7373 671.356 17.1859C700.682 -16.1714 746.571 -79.9514 732.459 -107.523C723.117 -125.807 708.956 -120.993 692.586 -115.425C686.233 -113.01 679.648 -111.256 672.937 -110.188C661.761 -108.882 651.083 -110.781 640.761 -112.619C629.9 -114.556 618.684 -116.553 606.582 -114.896C588.17 -112.388 569.463 -107.162 549.672 -101.619C520.342 -93.4309 490.044 -84.948 459.551 -85.4582C452.31 -85.6675 445.086 -86.2661 437.91 -87.2511C424.387 -88.8839 411.616 -90.4272 395.603 -86.1023C385.33 -83.3192 375.533 -81.3618 366.059 -79.4736C350.975 -76.4522 336.741 -73.5916 322.115 -67.8496C314.606 -64.9174 296.294 -56.4145 291.38 -51.8138C285.886 -46.7273 284.264 -41.2537 282.539 -35.4807C281.26 -29.9811 278.862 -24.8036 275.494 -20.2711C273.139 -17.3212 270.424 -14.6771 267.414 -12.4001C260.616 -7.22702 253.081 -4.38609 245.799 -1.6488C238.517 1.08842 231.933 3.58172 225.932 8.14805C223.162 10.2439 220.689 12.7055 218.58 15.4655C215.82 19.0668 215.262 22.7156 214.729 26.5436C213.991 31.698 213.135 37.5387 206.519 42.5734C205.973 42.9885 205.414 43.4143 204.759 43.802C191.852 52.1222 185.855 47.9859 180.488 44.3864C177.355 42.2436 174.385 40.1981 169.636 40.1686C159.072 40.0155 149.524 45.4929 140.207 50.8386C130.102 56.6292 119.647 62.5981 107.789 61.354C95.9311 60.11 80.2999 50.9178 66.627 42.8188C59.8683 38.8425 53.5262 35.1233 48.1519 32.5888C38.4792 28.0921 29.9043 21.7 21.6122 15.5344C11.9987 8.38706 2.91874 1.65072 -7.56188 -2.25333C-46.4961 -16.7871 -86.8787 -16.9701 -125.922 -17.1346C-165.552 -17.316 -206.589 -17.5752 -246.437 -32.4961C-255.719 -35.9869 -265.905 -41.0423 -276.677 -46.403C-306.072 -60.9977 -339.364 -77.5506 -361.327 -64.3259C-370.047 -59.0372 -376.107 -51.8203 -382.56 -44.1049C-387.714 -37.4862 -393.597 -31.4688 -400.097 -26.1668C-403.008 -23.9301 -406.136 -21.993 -409.436 -20.3852C-435.606 -7.58039 -442.806 -15.8802 -455.897 -30.9357C-458.48 -33.8943 -461.332 -37.1779 -464.667 -40.6901C-497.571 -75.4242 -517.947 -93.7246 -554.188 -66.1456C-557.713 -63.4633 -561.428 -60.3051 -565.217 -56.7809C-583.946 -39.3052 -596.014 -18.4186 -607.676 1.78333C-615.826 15.8901 -624.239 30.4627 -634.896 43.9161L-646.015 94.0884L-648.031 94.3418C-649.43 94.5558 -650.745 95.1445 -651.837 96.0455C-666.817 107.445 -664.55 167.546 -663.406 196.507C-663.132 203.63 -662.918 209.252 -662.96 212.795C-663.367 222.157 -664.387 231.482 -666.014 240.711C-668.966 259.761 -672.008 279.476 -663.273 288.197C-658.262 293.216 -649.581 294.581 -636.743 292.584C-630.567 291.616 -622.893 287.565 -614.732 283.254C-602.372 276.74 -589.533 269.929 -578.46 271.969C-569.5 273.585 -566.105 278.51 -562.818 283.295C-560.7 286.748 -557.979 289.793 -554.784 292.285C-547.863 297.374 -541.433 298.973 -533.307 301.003C-530.31 301.748 -527.134 302.554 -523.686 303.574C-487.325 314.435 -468.891 347.484 -451.058 379.422C-447.044 386.613 -442.901 394.059 -438.692 400.925C-428.589 417.394 -413.76 441.99 -401.701 465.295C-394.926 478.378 -392.997 492.698 -391.102 506.536C-389.459 518.535 -387.955 529.8 -383.576 540.401C-371.567 569.418 -368.776 581.735 -366.884 613.681C-366.63 617.904 -366.417 622.335 -366.22 626.889C-365.288 646.052 -364.3 667.668 -359.587 684.948C-353.844 705.905 -343.73 712.781 -330.931 721.502C-325.273 725.164 -319.854 729.182 -314.707 733.533C-301.961 744.479 -290.833 758.666 -280.001 772.349C-272.852 781.395 -265.442 790.726 -257.882 798.774C-253.052 803.931 -248.334 809.173 -243.811 814.188C-214.464 846.948 -188.987 875.145 -140.12 868.54C-133.296 867.609 -126.535 866.306 -119.981 865.05C-100.122 861.222 -81.359 857.608 -60.5795 863.523C-52.4603 866.044 -44.5964 869.323 -37.0914 873.316C-25.4273 879.124 -14.4192 884.592 0.445416 883.46C9.1315 883.033 17.4855 879.986 24.4076 874.72C28.5886 871.363 32.4811 867.663 36.0441 863.656C40.0054 859.258 44.3204 855.192 48.9456 851.498Z" fill="#100F3D"/>
<path opacity="0.75" d="M315.167 816.989C310.244 820.736 304.926 824.429 299.249 827.999C269.223 846.94 266.087 847.869 232.12 847.816C202.614 847.791 193.094 845.584 165.261 836.205C158.761 834.019 151.07 830.995 142.167 827.481C109.237 814.539 64.129 796.798 38.0149 805.961C32.7546 807.756 28.5905 812.558 24.4467 817.765C20.3029 822.972 15.2661 828.66 9.12789 831.101C4.59517 832.894 -0.636723 832.172 -5.69622 831.473C-9.79517 830.905 -13.6479 830.37 -16.7286 831.169C-22.8902 832.766 -28.3594 834.345 -33.4884 835.819C-50.3274 840.684 -63.6303 844.536 -85.6206 844.025C-110.511 843.447 -127.583 840.054 -152.258 833.548C-182.955 825.398 -193.025 820.873 -213.916 798.151C-228.135 782.717 -244.872 768.007 -261.072 753.772L-268.152 747.545C-281.718 735.523 -287.967 723.828 -294.548 711.436C-298.106 704.401 -302.099 697.594 -306.502 691.054C-311.036 684.65 -315.954 678.526 -321.229 672.717C-330.235 662.479 -336.729 655.078 -341.481 635.134C-344.238 623.586 -346.764 611.531 -349.202 599.851C-351.863 587.125 -354.624 573.947 -357.633 561.663C-369.482 514.836 -384.753 468.944 -403.324 424.356C-416.359 393.469 -434.187 371.464 -453.068 348.161C-463.076 335.794 -473.42 323.042 -483.139 308.645C-484.915 306.021 -488.416 301.885 -492.109 297.496C-498.46 289.964 -505.002 282.179 -506.741 277.717C-510.563 267.731 -509.351 262.039 -507.978 256.093C-506.886 251.874 -506.375 247.525 -506.461 243.168C-506.962 224.34 -510.125 213.74 -516.103 210.76C-520.858 208.372 -528.167 210.667 -537.843 217.544L-538.333 217.917C-542.613 221.174 -545.737 226.356 -548.74 231.379C-552.045 236.875 -555.511 242.537 -560.528 245.958C-566.046 250.02 -572.856 251.928 -579.68 251.325C-582.943 250.984 -586.241 251.426 -589.299 252.616C-592.878 254.255 -596.367 256.085 -599.751 258.097C-614.835 266.661 -635.49 278.382 -648.953 257.295C-657.495 243.922 -651.905 202.506 -647.465 169.273C-645.849 157.29 -644.444 146.947 -644.19 140.924C-641.757 83.5169 -627.104 45.3611 -599.422 24.2964C-598.15 23.3277 -596.877 22.3591 -595.505 21.4917L-579.904 -10.2528C-582.079 -16.3038 -554.415 -37.7094 -554.065 -37.9755C-548.47 -42.2332 -544.038 -44.8552 -540.986 -45.7205C-518.466 -52.0601 -508.352 -39.1767 -496.647 -24.2589C-492.482 -18.4855 -488.841 -12.3513 -485.769 -5.92948C-480.233 4.74066 -474.509 15.775 -465.915 21.3796C-453.807 29.2789 -444.653 26.3315 -434.054 22.9028C-427.418 20.7677 -420.572 18.5608 -412.545 18.8339C-406.233 19.2462 -400.095 21.0727 -394.585 24.1784C-387.775 27.497 -384.243 28.9165 -378.914 24.861C-377.179 23.4848 -375.593 21.9302 -374.182 20.2229C-369.618 14.8724 -370.007 5.82807 -370.383 -2.93867C-370.759 -11.7054 -371.122 -20.5707 -366.573 -26.5502C-365.157 -28.4136 -363.496 -30.0782 -361.636 -31.4991C-343.383 -45.3897 -311.341 -31.3516 -285.586 -20.0594C-278.382 -16.6534 -270.971 -13.7011 -263.398 -11.2197C-258.538 -9.88362 -253.78 -8.53624 -249.082 -7.20951C-232.23 -2.47923 -216.42 2.07222 -198.878 4.77657C-186.105 6.7592 -172.891 10.946 -160.142 15.0447C-144.631 19.9568 -128.592 25.0408 -113.812 25.9161C-108.12 25.9673 -102.454 25.1408 -97.0131 23.466C-91.4335 22.0905 -85.5596 20.5795 -79.5526 21.0428C-75.6313 21.3487 -70.3281 23.7608 -64.7007 26.2794C-61.0084 28.0947 -57.1752 29.6084 -53.2386 30.8056C-46.8797 32.37 -41.1747 33.3943 -35.6668 34.3919C-21.1983 37.0057 -8.69012 39.2784 5.92704 49.7503C13.6771 55.2906 20.6497 60.738 27.4067 66.0183C39.5036 75.4712 50.9185 84.4053 65.289 92.7243C71.2002 96.2264 76.8674 100.124 82.2518 104.392C94.1532 113.53 98.1532 116.58 119.025 105.114C123.566 102.607 127.435 100.348 130.831 98.3376C150.157 87.0754 155.955 83.6353 183.731 94.4491C187.799 96.0781 191.481 98.5424 194.537 101.683C198.676 105.555 200.947 107.669 211.385 104.318C213.655 103.566 215.781 102.434 217.672 100.97C223.56 96.4884 227.455 89.2412 231.238 82.2549L233.363 78.4296C237.551 70.959 240.542 64.6426 243.109 59.1342C250.145 44.1742 255.055 33.7916 275.117 19.6069L280.126 16.0599C298.008 3.33533 318.251 -11.0756 339.612 -14.2366C344.321 -14.9275 350.046 -14.0509 355.62 -13.1698C361.194 -12.2886 366.613 -11.4661 370.058 -12.3659C373.628 -13.4391 376.948 -15.2146 379.823 -17.5882C381.053 -18.5249 382.298 -19.4723 383.504 -20.5001C384.71 -21.5281 386.056 -22.5745 387.371 -23.5751C391.316 -26.8314 395.915 -29.2017 400.856 -30.5251C411.269 -32.9507 422.56 -31.7835 433.493 -30.6524C445.748 -29.3795 458.425 -28.0746 469.464 -31.9703C478.501 -35.1595 485.847 -40.3083 493.645 -45.7345C504.301 -53.1811 515.275 -60.8477 530.717 -62.905C536.589 -63.6639 543.028 -62.6906 549.26 -61.7578C556.206 -60.7283 563.37 -59.6442 569.526 -61.0167C575.741 -62.5828 581.694 -65.0454 587.199 -68.3269C592.139 -71.1963 597.374 -73.5223 602.815 -75.2641C621.239 -80.629 633.97 -78.7022 640.666 -69.5552C653.982 -51.3591 637.592 -9.18767 622.321 13.5847C618.511 19.2315 613.774 24.1944 608.312 28.2641C598.52 35.715 586.856 40.7049 575.732 45.4166C570.927 47.4614 566.174 49.4881 561.644 51.7207C558.624 53.1799 555.546 54.4179 552.483 55.6454C546.518 57.7102 540.868 60.5905 535.693 64.2041C533.932 65.5396 532.297 67.035 530.81 68.6711C527.188 72.6194 525.112 77.931 522.925 83.5035C520.242 90.4257 517.454 97.5596 511.397 102.169C506.963 105.543 500.532 105.712 493.753 105.946C488.123 106.123 482.303 106.313 478.637 108.374C471.455 112.404 466.705 118.469 461.986 124.865C459.806 127.804 457.658 130.786 454.937 133.828C446.399 143.867 438.417 154.364 431.025 165.274C424.643 174.303 418.074 183.608 410.931 192.245C400.793 204.553 388.096 215.673 375.81 226.435C349.363 249.586 324.394 271.457 320.593 305.065C313.669 366.352 377.651 411.972 397.403 424.519C403.19 428.176 408.592 431.705 413.853 435.164C426.79 443.603 439.011 451.593 453.242 459.09C470.821 468.346 479.697 470.402 494.409 473.801C498.141 474.671 502.215 475.612 506.849 476.767C520.13 480.085 527.866 485.548 530.57 493.427C533.727 502.771 529.223 514.877 516.931 530.303C510.563 538.124 503.76 545.579 496.552 552.634C487.11 562.226 478.18 571.274 469.978 584.47L454.889 608.672C433.002 643.765 412.247 676.981 392.455 711.518C388.447 718.498 384.728 725.193 381.214 731.576C362.276 765.639 347.324 792.518 315.167 816.989ZM29.2743 804.111C31.342 802.514 33.6507 801.257 36.1137 800.386C64.2794 790.523 110.554 808.723 144.34 822.007C153.187 825.476 160.818 828.48 167.173 830.62C194.264 839.749 203.516 841.893 232.168 841.928C265.132 841.971 266.935 841.438 296.164 823.016C301.624 819.567 306.801 815.98 311.585 812.34C342.763 788.614 357.395 762.244 376.07 728.734C379.643 722.283 383.375 715.579 387.401 708.562C407.256 673.934 428 640.704 449.96 605.533L465.036 581.342C473.592 567.567 482.797 558.243 492.429 548.463C499.49 541.562 506.162 534.273 512.414 526.63C523.252 513.039 527.521 502.481 525.075 495.29C523.126 489.508 516.541 485.179 505.516 482.418C500.921 481.255 496.883 480.332 493.186 479.479C478.537 476.076 468.844 473.846 450.641 464.205C436.163 456.586 423.84 448.52 410.765 439.988C405.535 436.57 400.147 433.03 394.396 429.391C368.127 412.75 307.781 367.234 314.929 304.384C318.975 268.515 345.991 244.865 372.114 221.983C384.228 211.374 396.74 200.416 406.575 188.494C413.571 180.013 420.092 170.789 426.396 161.862C433.921 150.797 442.037 140.147 450.71 129.957C453.183 127.17 455.338 124.227 457.442 121.389C461.175 115.821 465.706 110.833 470.891 106.584C472.497 105.363 474.185 104.255 475.944 103.268C480.871 100.513 487.411 100.283 493.748 100.077C499.328 99.8926 505.085 99.7075 507.904 97.6066C512.771 93.9025 515.127 87.8262 517.635 81.3691C519.852 75.575 522.288 69.4594 526.663 64.6727C528.389 62.7843 530.282 61.0556 532.318 59.5078C537.902 55.5619 544.002 52.4054 550.448 50.1275C553.404 48.9606 556.38 47.8217 559.235 46.3778C563.866 44.134 568.724 42.0713 573.61 39.9874C584.472 35.3652 595.691 30.6036 604.936 23.5678C609.879 19.8823 614.169 15.394 617.626 10.2897C632.091 -11.3381 647.109 -51.0747 636.095 -66.0992C631.021 -73.0575 620.422 -74.2438 604.663 -69.6711C599.616 -68.0392 594.759 -65.8681 590.176 -63.1954C584.21 -59.646 577.765 -56.9722 571.038 -55.2561C563.826 -53.6758 556.053 -54.8927 548.678 -55.9051C542.57 -56.821 536.831 -57.687 531.763 -57.0322C517.799 -55.2385 507.825 -48.289 497.267 -40.9169C489.504 -35.4734 481.483 -29.8768 471.682 -26.4151C459.475 -22.1385 446.059 -23.4557 433.16 -24.7908C422.242 -25.9326 411.914 -26.9942 402.474 -24.8004C398.344 -23.6404 394.506 -21.6225 391.21 -18.8785C389.951 -17.9205 388.678 -16.9519 387.472 -15.924C386.267 -14.8961 384.924 -13.8743 383.651 -12.9057C380.173 -10.0361 376.155 -7.89432 371.834 -6.60726C367.22 -5.41447 361.301 -6.34235 355.024 -7.30634C349.97 -8.14198 344.633 -8.91583 340.805 -8.34374C320.828 -5.39646 301.172 8.56737 283.868 20.9188L278.845 24.4764C259.982 37.7703 255.666 47.017 248.75 61.7301C246.107 67.341 243.107 73.7312 238.832 81.3783L236.763 85.1609C232.875 92.3588 228.537 100.474 221.543 105.796C219.165 107.608 216.504 109.014 213.666 109.957C200.896 114.133 196.401 111.128 191.003 106.095C188.497 103.471 185.466 101.406 182.107 100.035C157.009 90.2742 153.06 92.573 134.276 103.533C130.831 105.536 126.91 107.813 122.358 110.394C99.0038 123.242 92.637 119.52 79.1455 109.163C73.8941 104.989 68.3545 101.191 62.5678 97.798C47.8514 89.2565 36.2954 80.2531 24.011 70.6117C17.3105 65.3768 10.3698 59.9713 2.74685 54.5109C-10.8104 44.8224 -22.1431 42.7591 -36.4671 40.19C-42.0596 39.1684 -47.8385 38.1341 -54.3805 36.5323C-58.6926 35.2511 -62.8916 33.6164 -66.9347 31.6449C-71.836 29.4128 -76.9729 27.1613 -79.8112 26.9144C-84.8476 26.5074 -89.9532 27.8091 -95.3816 29.18C-101.249 30.6418 -107.316 32.1894 -113.959 31.7904C-129.47 30.8536 -145.872 25.6702 -161.717 20.6375C-174.283 16.664 -187.267 12.5458 -199.601 10.6479C-217.487 7.89679 -233.522 3.33998 -250.456 -1.43893C-255.154 -2.76566 -259.887 -4.10971 -264.737 -5.43184C-272.592 -8.02553 -280.273 -11.1194 -287.732 -14.6946C-310.846 -24.7508 -342.37 -38.6309 -357.868 -26.8372C-359.307 -25.7362 -360.592 -24.4467 -361.687 -23.0035C-365.011 -18.6636 -364.636 -11.1762 -364.29 -3.20358C-363.864 6.67351 -363.421 16.8914 -369.481 24.0205C-371.166 26.0447 -373.06 27.8855 -375.131 29.5122C-383.594 35.9519 -390.407 32.658 -396.929 29.4287C-401.493 27.2047 -406.208 24.8975 -412.512 24.6823C-419.516 24.4476 -425.864 26.4963 -432.016 28.4838C-443.046 32.0422 -454.431 35.7155 -468.911 26.2655C-478.773 19.8369 -484.91 8.14471 -490.763 -3.23316C-493.671 -9.33577 -497.117 -15.1666 -501.062 -20.6564C-512.306 -34.9975 -520.441 -45.3679 -539.165 -40.1063C-540.495 -39.7348 -543.691 -38.3623 -550.293 -33.3383C-557.75 -27.5852 -564.768 -21.285 -571.29 -14.4898L-573.049 -10.5899L-590.809 25.5143L-591.439 25.9933C-592.912 26.9598 -594.342 27.9823 -595.741 29.0467C-621.954 48.9939 -635.844 85.6856 -638.201 141.247C-638.467 147.544 -639.886 157.986 -641.511 170.131C-645.412 199.022 -651.296 242.693 -643.912 254.253C-634.237 269.435 -620.09 263.064 -602.6 253.133C-599.021 251.004 -595.326 249.077 -591.532 247.36C-587.692 245.846 -583.553 245.244 -579.442 245.601C-573.854 246.18 -568.255 244.618 -563.773 241.229L-563.06 240.686C-559.437 237.929 -556.681 233.337 -553.776 228.476C-550.471 222.98 -547.065 217.297 -541.889 213.359L-541.246 212.869C-529.514 204.515 -520.426 202.148 -513.484 205.61C-502.723 211.044 -500.954 229.594 -500.584 243.112C-500.494 247.951 -501.054 252.781 -502.246 257.472C-503.532 263.242 -504.449 267.406 -501.264 275.713C-499.908 279.208 -493.171 287.22 -487.663 293.76C-483.875 298.274 -480.278 302.536 -478.325 305.422C-468.72 319.554 -458.442 332.246 -448.53 344.576C-429.369 368.217 -411.324 390.565 -397.95 422.188C-379.238 467.059 -363.865 513.252 -351.954 560.389C-348.91 572.778 -346.141 585.995 -343.463 598.773C-341.042 610.4 -338.524 622.417 -335.795 633.898C-331.376 652.418 -325.556 658.963 -316.84 668.936C-311.432 674.924 -306.388 681.232 -301.737 687.825C-297.205 694.531 -293.089 701.51 -289.414 708.721C-283.093 720.626 -277.124 731.894 -264.312 743.187L-257.327 749.464C-241.013 763.79 -224.124 778.583 -209.714 794.269C-189.74 815.989 -180.72 820.033 -150.827 827.911C-126.599 834.293 -109.848 837.643 -85.5585 838.215C-64.4821 838.715 -51.5582 834.974 -35.1892 830.246C-30.0182 828.74 -24.4965 827.144 -18.2717 825.542C-14.0324 824.524 -9.45876 825.107 -4.92042 825.672C-0.382083 826.237 3.844 826.885 6.93238 825.661C11.8753 823.711 15.8648 819.085 19.8241 814.129C22.5497 810.398 25.7342 807.025 29.3023 804.09L29.2743 804.111Z" fill="#100F3D"/>
<path opacity="0.65" d="M309.127 766.472C307.116 767.99 305.028 769.403 302.871 770.703C283.59 782.46 263.263 785.122 236.777 785.669C183.34 786.588 150.565 763.923 112.566 737.615C107.889 734.372 103.084 731.066 98.149 727.697C94.7836 725.422 90.9499 722.532 86.7982 719.398C71.216 707.629 49.7976 691.558 33.9432 694.437C29.0433 695.191 24.3918 697.096 20.3708 699.996C7.9779 709.427 8.81514 728 9.54617 744.402C9.66727 747.202 9.7911 749.89 9.83319 752.442C10.2009 772.255 3.43029 787.565 -10.4592 798.135C-26.5168 810.354 -51.239 815.919 -86.0472 815.137C-128.263 814.141 -164.242 798.528 -202.815 764.355C-220.087 749.058 -239.666 731.719 -254.83 710.689C-260.139 703.335 -265.638 696.833 -271.4 690.045C-280.523 679.772 -288.823 668.797 -296.224 657.222C-313.869 628.519 -320.379 595.67 -326.696 563.889C-329.933 547.561 -333.282 530.679 -338.084 514.703C-342.227 500.986 -344.306 486.471 -346.332 472.401C-347.82 461.941 -349.304 451.081 -351.743 440.88C-357.81 414.738 -370.04 393.617 -382.931 372.381C-388.983 363.076 -395.787 354.281 -403.273 346.084C-412.379 335.57 -421.783 324.664 -428.639 311.068C-434.893 298.67 -437.697 285.524 -440.41 272.816C-442.738 261.891 -444.932 251.548 -449.158 241.583L-460.015 190.976C-461.501 190.098 -462.659 187.734 -465.873 180.927C-469.087 174.121 -473.603 164.529 -477.229 161.128C-490.284 148.849 -491.382 149.089 -509.794 153.164L-510.532 153.328C-519.304 155.248 -527.535 159.111 -534.617 164.634C-540.94 169.726 -546.835 175.327 -552.243 181.381C-558.047 187.864 -564.377 193.855 -571.168 199.294C-573.339 200.95 -575.595 202.491 -577.928 203.908C-595.262 214.45 -609.89 215.865 -618.047 207.786C-626.467 199.421 -625.342 183.02 -615.152 165.992C-611.774 160.33 -608.598 155.97 -605.503 151.738C-599.105 142.961 -594.063 136.033 -590.545 122.05C-589.048 115.745 -587.945 109.352 -587.242 102.91C-586.075 93.763 -584.849 84.2853 -580.939 74.7077C-576.688 64.1857 -564.888 38.447 -546.998 24.8331C-542.056 20.9161 -536.308 18.1409 -530.168 16.7064C-509.519 12.2324 -500.996 23.3452 -491.914 35.048C-487.491 41.3245 -482.277 47.0049 -476.402 51.9491C-457.703 66.7115 -398.348 65.993 -371.814 45.8011C-368.328 43.2716 -365.405 40.0469 -363.228 36.3307C-359.835 30.2821 -360.226 22.5418 -360.601 15.0544C-361.103 5.36766 -361.611 -4.64593 -353.596 -10.745C-349.927 -13.3172 -345.667 -14.9184 -341.213 -15.399C-329.077 -17.2149 -312.157 -6.2428 -297.289 3.48562C-292.076 7.04876 -286.654 10.2965 -281.053 13.2113C-252.264 26.6329 -224.086 32.9238 -194.337 39.7413C-181.162 42.7439 -167.58 45.8772 -153.765 49.5184C-138.386 53.7355 -124.655 62.0555 -111.362 70.0905C-101.798 76.2337 -91.7784 81.6378 -81.3909 86.2558C-68.7784 91.4521 -55.6422 92.5184 -42.9281 93.5524C-28.1564 94.7652 -14.1583 95.9483 -1.03772 102.944C14.9867 111.55 24.8565 124.288 34.4176 136.62C50.1248 156.883 63.6864 174.385 101.382 166.19C109.84 164.135 118.061 161.202 125.91 157.439C140.349 151.045 153.999 145.007 174.189 150.642C180.448 152.393 184.607 156.117 188.274 159.399C193.519 164.085 198.036 168.134 208.149 166.62C211.078 165.9 213.795 164.498 216.079 162.529C222.569 157.59 229.288 149.585 232.904 145.309L233.322 144.814C238.447 138.25 242.961 131.23 246.807 123.844C253.406 112.198 260.146 100.157 270.888 91.9826C273.529 89.9701 276.374 88.2415 279.377 86.8255C285.446 83.9739 291.643 83.4974 297.623 83.0541C303.602 82.6108 309.318 82.1694 313.649 79.1825C317.776 76.0425 320.3 69.9263 322.734 64.0111C324.264 59.8716 326.216 55.9004 328.558 52.1598C333.765 44.3227 340.163 37.3457 347.521 31.4805C358.473 23.1462 371.248 19.122 387.784 18.7932C400.461 18.5306 439.009 22.4278 451.125 37.1001C471.272 61.5144 428.918 97.8959 394.86 127.125C382.737 137.521 372.257 146.534 366.945 153.049C360.674 160.359 353.955 167.272 346.826 173.747C335.413 184.64 323.581 195.853 317.046 208.134C313.218 215.353 313.409 222.627 313.63 230.319C313.801 236.814 313.995 243.511 311.547 250.077C309.1 256.642 303.908 260.616 299.286 264.266C295.257 267.331 291.559 270.366 290.208 274.221C285.026 289.006 287.845 332.591 292.342 347.672C298.984 370.13 321.766 402.564 340.142 415.74C358.518 428.916 381.041 438.428 402.76 447.581C424.479 456.733 447.517 466.516 465.81 479.843C474.458 486.158 479.361 493.82 480.254 502.481C482.524 523.431 461.913 546.733 443.719 567.291C435.689 576.36 428.117 584.927 423.544 592.183C416.05 604.046 410.164 615.613 404.02 627.973C400.254 635.476 396.367 643.225 392.006 651.137C385.004 663.907 374.896 672.857 365.127 681.528C356.801 688.901 348.944 695.874 343.142 704.882C336.983 714.493 334.051 723.238 331.177 731.652C326.869 744.16 322.988 755.924 309.127 766.472ZM16.7601 695.28C21.5163 691.824 27.0219 689.541 32.8277 688.617C51.2274 685.281 72.8794 701.572 90.232 714.71C94.2952 717.756 98.0616 720.587 101.357 722.827C106.304 726.194 111.108 729.516 115.819 732.776C154.507 759.554 185.054 780.713 236.561 779.783C262.133 779.313 281.625 776.801 299.782 765.744C316.875 755.32 320.841 743.669 325.477 729.851C328.422 719.973 332.641 710.52 338.027 701.731C344.204 692.084 352.732 684.512 360.988 677.192C370.383 668.872 380.107 660.258 386.623 648.388C390.911 640.554 394.791 632.854 398.537 625.411C404.793 612.966 410.702 601.227 418.331 589.106C423.182 581.462 430.905 572.715 439.084 563.465C456.476 543.827 476.17 521.554 474.177 503.175C473.422 496.087 469.468 490.021 462.106 484.671C444.344 471.691 421.951 462.234 400.249 453.047C378.177 443.721 355.358 434.081 336.445 420.519C317.155 406.78 293.365 372.817 286.43 349.367C282.051 334.614 278.366 289.658 284.43 272.347C286.351 266.889 290.958 263.25 295.413 259.728C299.867 256.206 303.996 252.953 305.797 248.093C307.848 242.603 307.678 236.748 307.516 230.556C307.291 222.425 307.065 214.029 311.561 205.397C318.54 192.247 330.722 180.681 342.498 169.511C349.441 163.203 355.989 156.472 362.104 149.358C367.751 142.411 378.413 133.26 390.763 122.67C421.169 96.5944 462.82 60.8576 446.299 40.8602C436.945 29.4967 403.643 24.3671 387.61 24.6888C372.181 24.9921 360.827 28.5317 350.784 36.1742C343.918 41.6706 337.949 48.2018 333.091 55.5333C330.996 58.9291 329.25 62.5287 327.882 66.2766C325.136 72.9146 322.297 79.7781 317.234 83.6313L316.674 84.0571C311.028 87.9566 304.286 88.4721 297.761 88.9545C292.288 89.3661 286.649 89.7929 281.558 92.1877C278.932 93.4316 276.443 94.9478 274.133 96.7115C264.342 104.162 257.911 115.681 251.614 126.765C247.565 134.453 242.824 141.756 237.45 148.584L237.046 149.069C233.301 153.552 226.314 161.873 219.292 167.216C216.252 169.799 212.618 171.586 208.716 172.416C195.875 174.349 189.59 168.732 184.044 163.766C180.557 160.635 177.208 157.685 172.305 156.293C154.119 151.231 142.004 156.586 127.979 162.799C119.768 166.741 111.163 169.803 102.307 171.934C60.9929 180.917 45.6828 161.147 29.4542 140.198C20.2762 128.369 10.8035 116.125 -4.13769 108.129C-16.2001 101.653 -29.5719 100.568 -43.7245 99.4138C-56.8501 98.3616 -70.4788 97.2285 -83.9479 91.6904C-94.6161 86.9617 -104.907 81.4243 -114.73 75.1266C-127.663 67.3035 -141.059 59.192 -155.653 55.1943C-169.232 51.4846 -182.783 48.3933 -195.886 45.4253C-226.033 38.579 -254.476 32.1142 -283.776 18.4854C-289.621 15.4673 -295.268 12.0795 -300.683 8.34267C-314.026 -0.338662 -330.617 -11.1408 -340.551 -9.65356C-344.023 -9.30243 -347.355 -8.09512 -350.246 -6.13989C-355.841 -1.88224 -355.402 5.77689 -354.933 14.6941C-354.531 22.6242 -354.043 31.6819 -358.375 39.1958C-360.955 43.6056 -364.413 47.4393 -368.534 50.4594C-395.264 70.8004 -457.946 74.2279 -480.325 56.5463C-486.515 51.3005 -492.019 45.2959 -496.708 38.6743C-505.53 27.0822 -511.963 18.7733 -528.951 22.4268C-534.244 23.6887 -539.194 26.1053 -543.444 29.5036C-560.229 42.2766 -571.516 66.9185 -575.596 76.9121C-579.197 85.7916 -580.326 94.4671 -581.5 103.663C-582.245 110.339 -583.392 116.963 -584.936 123.501C-588.853 138.67 -594.397 146.334 -600.912 155.244C-603.904 159.353 -607.017 163.621 -610.309 169.019C-618.913 183.428 -620.439 197.329 -614.097 203.632C-608.105 209.561 -595.789 207.807 -581.161 198.905C-579.008 197.588 -576.922 196.163 -574.912 194.636C-568.378 189.384 -562.286 183.604 -556.699 177.354C-551.071 171.07 -544.938 165.258 -538.361 159.976C-530.595 153.96 -521.593 149.741 -512.001 147.623L-511.25 147.449C-492.122 143.183 -488.613 142.367 -473.346 156.827C-468.91 161.002 -464.351 170.65 -460.702 178.405C-459.311 181.365 -457.595 184.984 -456.85 186.051L-455.266 185.839L-443.736 239.797C-439.436 249.773 -437.089 260.838 -434.798 271.57C-432.161 283.917 -429.444 296.688 -423.539 308.424C-417.022 321.371 -407.838 331.959 -398.973 342.216C-391.282 350.654 -384.296 359.709 -378.084 369.289C-364.842 390.898 -352.433 412.545 -346.167 439.53C-343.73 450.018 -342.171 460.977 -340.661 471.552C-338.689 485.376 -336.63 499.663 -332.63 512.959C-327.781 529.142 -324.36 546.235 -321.09 562.692C-314.935 594.001 -308.475 626.291 -291.398 654.101C-284.123 665.402 -275.972 676.113 -267.019 686.137C-261.399 692.768 -255.637 699.556 -250.172 707.144C-235.377 727.66 -216.067 744.763 -199.007 759.867C-161.552 793.037 -126.697 808.246 -86.0003 809.161C-53.0413 809.893 -28.8412 804.571 -14.0984 793.352C-1.67758 783.9 4.23483 770.569 3.8752 752.449C3.82642 749.947 3.70984 747.297 3.58205 744.546C2.8441 727.642 1.90878 706.56 16.7495 695.266L16.7601 695.28ZM-460.47 186.576L-456.833 186.015C-457.304 185.673 -457.873 185.493 -458.456 185.502C-459.039 185.511 -459.602 185.709 -460.063 186.067C-460.224 186.212 -460.365 186.378 -460.481 186.562L-460.47 186.576Z" fill="#100F3D"/>
<path opacity="0.45" d="M270.899 700.217C256.101 711.478 241.353 716.916 224.512 717.278C201.702 717.81 190.365 707.933 178.402 697.495C171.683 691.568 164.643 685.509 155.125 681.071C149.737 678.547 143.389 678.101 137.245 677.631C129.1 677.029 120.695 676.403 113.888 671.116C107.602 666.251 104.318 657.93 101.145 649.9C98.1834 642.438 95.1428 634.728 89.8294 629.806C84.8486 625.205 80.0387 620.917 75.3173 616.715C61.0113 603.953 47.5783 591.873 32.6336 574.121C13.4528 551.18 3.07934 540.857 -22.7737 556.313C-24.7913 557.516 -26.7408 558.83 -28.6134 560.249C-57.0219 581.867 -53.0004 619.37 -48.7388 659.074C-45.5468 689.391 -42.1372 720.691 -54.3086 745.012C-58.1307 753.262 -63.7942 760.525 -70.8633 766.244C-102.307 790.172 -146.788 756.1 -176.206 733.552C-178.672 731.675 -181.022 729.864 -183.252 728.182C-192.205 721.438 -201.644 715.217 -211.647 708.631C-242.243 688.481 -273.794 667.6 -288.6 632.121C-297.621 610.281 -301.063 583.091 -302.845 564.552C-305.18 539.832 -310.872 518.042 -316.865 495.045C-317.892 490.792 -319.074 486.569 -320.162 482.208C-326.901 455.937 -338.039 431.026 -348.844 406.988C-358.606 385.248 -368.697 362.787 -375.239 339.678C-379.098 325.899 -385.642 313.236 -391.923 300.948C-397.684 290.33 -402.679 279.313 -406.87 267.984C-410.919 256.248 -412.827 244.628 -414.683 233.366C-416.538 222.103 -418.44 210.346 -422.558 198.752C-428.093 183.091 -436.31 147.853 -427.322 127.302C-425.038 121.628 -421.314 116.647 -416.517 112.852C-410.362 108.169 -403.34 106.513 -395.904 104.762C-388.895 103.116 -381.638 101.392 -374.473 96.9329C-364.571 90.7887 -357.272 79.7142 -350.154 68.9538C-342.823 57.9213 -335.179 46.5175 -324.963 40.5538C-311.742 32.8781 -298.799 36.5642 -285.12 40.463C-278.551 42.5283 -271.826 44.0567 -265.01 45.033C-214.553 50.9085 -189.01 70.6869 -153.665 98.0648C-149.93 101.037 -146.01 104.06 -141.905 107.134C-110.449 131.2 -78.4908 140.223 -41.4967 150.669C-34.4212 152.682 -27.1871 154.728 -19.7834 156.911L-19.0288 157.264L9.27286 175.473C18.7093 176.263 23.4784 180.76 28.0326 185.177C30.661 187.922 33.6376 190.312 36.8865 192.284C52.2971 201.07 60.3067 199.347 70.4716 197.176C78.1361 195.214 86.0829 194.599 93.9575 195.357C101 196.136 106.311 200.154 111.494 204.093C116.077 207.561 120.409 210.844 125.527 211.388C132.756 212.18 136.856 209.789 142.027 206.803C145.415 204.706 149.017 202.979 152.773 201.651C169.393 196.179 178.778 198.091 189.64 200.291C197.833 202.203 206.235 203.072 214.647 202.879C221.837 202.663 227.516 200.925 231.964 197.54C238.734 192.388 242.356 183.825 246.548 173.922C249.436 166.568 252.939 159.471 257.019 152.705C262.809 143.596 272.929 130.86 283.993 122.44C295.967 113.329 306.577 111.018 315.498 115.601C322.556 119.217 326.776 123.977 328.049 129.743C330.649 141.344 320.941 153.898 313.161 163.992C310.939 166.876 308.81 169.622 307.377 171.861C284.476 207.857 275.201 244.924 265.346 284.131C263.126 292.998 260.86 302.008 258.399 311.168C245.18 360.554 255.24 391.363 298.306 433.269C317.199 451.682 339.073 466.523 358.429 473.963C363.887 475.882 369.442 477.515 375.071 478.853C393.192 483.567 415.746 489.434 423.35 505.464C436.361 532.836 373.35 615.012 354.161 631.359C349.265 635.548 344.003 639.751 337.093 645.009C334.002 647.361 330.925 649.703 327.848 652.045C324.77 654.386 321.679 656.739 318.574 659.102C307.725 667.154 297.428 675.927 287.754 685.359C282.475 690.683 276.844 695.647 270.899 700.217ZM-32.111 555.624C-30.0732 554.073 -27.9482 552.64 -25.7465 551.333C4.04129 533.5 17.6284 547.03 37.1777 570.398C51.7865 587.854 65.1304 599.758 79.256 612.371C84.0234 616.604 88.8545 620.92 93.8566 625.549C100.164 631.37 103.455 639.73 106.649 647.787C109.661 655.432 112.519 662.641 117.534 666.531C122.902 670.683 130.076 671.229 137.687 671.797C144.355 672.287 151.283 672.8 157.627 675.767C167.899 680.558 175.198 686.928 182.263 693.078C193.858 703.177 203.891 711.949 224.391 711.43C239.939 711.08 253.592 706.034 267.356 695.56C273.053 691.128 278.452 686.326 283.518 681.186C293.358 671.542 303.836 662.572 314.882 654.337C318.001 651.964 321.093 649.611 324.184 647.259C327.275 644.907 330.324 642.586 333.402 640.244C340.213 635.061 345.416 630.925 350.224 626.824C372.939 607.331 428.097 529.32 417.926 507.914C411.492 494.35 390.402 488.87 373.457 484.453C367.611 483.066 361.843 481.367 356.178 479.364C336.148 471.62 313.519 456.337 294.084 437.387C255.155 399.465 237.04 367.852 252.651 309.536C255.095 300.411 257.343 291.436 259.56 282.595C269.531 242.901 278.941 205.401 302.328 168.593C303.903 166.135 306.095 163.297 308.422 160.289C315.467 151.174 324.22 139.833 322.232 130.923C321.354 126.866 318.22 123.532 312.746 120.72C306.005 117.261 297.491 119.367 287.462 126.999C277.014 134.95 267.162 147.459 261.897 155.75C257.987 162.231 254.626 169.028 251.85 176.07C247.512 186.304 243.427 195.971 235.412 202.07C229.957 206.222 223.184 208.351 214.711 208.594C205.842 208.797 196.983 207.882 188.343 205.872C177.885 203.739 169.609 202.065 154.472 207.048C151.083 208.252 147.836 209.826 144.792 211.742C139.404 214.849 133.848 218.084 124.702 217.095C117.965 216.369 112.768 212.442 107.754 208.639C103.044 205.091 98.6094 201.731 93.199 201.123C85.9593 200.438 78.6551 201.026 71.6178 202.862C61.13 205.102 51.2355 207.222 33.8945 197.321C30.2119 195.109 26.8369 192.421 23.8569 189.326C19.4231 185.038 15.9094 181.64 8.07508 181.242L7.29088 181.199L-21.9217 162.402C-29.1563 160.268 -36.2213 158.269 -43.1524 156.301C-80.7382 145.687 -113.192 136.534 -145.518 111.76C-149.596 108.636 -153.511 105.61 -157.3 102.663C-193.179 74.8746 -216.894 56.5102 -265.709 50.8198C-272.846 49.8293 -279.888 48.2453 -286.761 46.0844C-299.754 42.3916 -310.982 39.1888 -322.038 45.6154C-331.24 50.9391 -338.017 61.2191 -345.295 72.1458C-352.758 83.4112 -360.559 95.1325 -371.406 101.863C-379.393 106.838 -387.479 108.751 -394.603 110.419C-401.727 112.086 -407.844 113.539 -413.005 117.467C-416.997 120.66 -420.092 124.834 -421.988 129.58C-429.647 147.089 -423.253 179.32 -417.078 196.723C-412.787 208.805 -410.882 220.713 -408.925 232.34C-407.151 243.378 -405.26 254.746 -401.383 265.994C-397.237 277.102 -392.309 287.904 -386.637 298.316C-380.214 310.85 -373.626 323.744 -369.576 338.151C-363.143 360.856 -353.1 383.023 -343.471 404.644C-332.563 428.934 -321.339 454.045 -314.47 480.835C-313.368 485.186 -312.298 489.494 -311.156 493.637C-305.073 516.897 -299.404 538.859 -296.911 564.078C-295.163 582.223 -291.839 608.796 -283.075 629.948C-269.042 663.83 -238.203 684.126 -208.309 703.817C-198.687 710.163 -188.73 716.717 -179.642 723.58C-177.377 725.279 -175.002 727.093 -172.539 728.995C-144.539 750.436 -102.217 782.86 -74.3396 761.647C-67.9885 756.479 -62.903 749.928 -59.4719 742.494C-48.1305 719.665 -51.4182 689.222 -54.5235 659.745C-58.7772 620.167 -63.2191 579.296 -32.111 555.624Z" fill="#100F3D"/>
<path opacity="0.3" d="M303.261 592.742C297.933 596.73 292.137 600.05 286.003 602.63C275.46 607.119 265.5 612.491 255.866 617.68C220.97 636.463 188.018 654.23 146.793 616.223C137.384 607.573 130.844 596.629 124.519 586.052C117.051 573.54 110.011 561.763 98.6684 553.679C90.3245 547.961 81.4343 543.085 72.1282 539.12C59.9206 533.527 48.376 528.225 36.2692 515.798C5.30865 484.024 -13.9194 492.164 -25.6968 501.127C-39.3206 511.494 -51.3131 530.623 -62.4226 549.345C-73.2961 567.622 -86.5575 595.997 -88.1057 615.789C-89.1955 629.624 -84.2141 642.526 -78.9463 656.182C-73.9251 669.253 -68.7112 682.752 -69.1598 697.313C-69.5433 711.119 -73.193 720.719 -79.9629 725.871C-104.301 744.392 -159.833 698.062 -176.83 677.323C-187.557 664.243 -196.169 649.732 -204.495 635.687C-209.018 628.088 -213.641 620.301 -218.585 612.758C-233.395 590.133 -233.929 569.055 -234.532 546.727C-234.631 536.759 -235.254 526.804 -236.399 516.903C-240.64 484.801 -240.931 461.925 -237.718 426.005C-235.12 396.824 -246.511 374.425 -271.627 359.445C-279.784 354.632 -288.566 350.964 -297.724 348.545C-310.802 344.652 -321.133 341.584 -333.985 320.428C-337.437 314.731 -341.206 308.965 -344.983 303.073C-357.907 283.187 -371.32 262.658 -376.035 240.411C-377.144 233.796 -377.426 227.068 -376.876 220.383C-376.56 212.613 -376.265 205.279 -378.499 198.367C-380.037 193.443 -383.918 188.867 -387.636 184.387C-391.708 179.471 -395.933 174.384 -397.636 168.547C-405.336 141.97 -392.244 132.559 -374.195 120.635C-370.503 118.201 -366.574 115.586 -362.59 112.665C-357.116 108.654 -352.001 104.607 -347.023 100.642C-343.481 97.8366 -339.996 95.0737 -336.541 92.4446C-313.364 74.8073 -288.987 60.4301 -245.616 78.0358C-215.56 90.2498 -186.064 107.793 -157.627 124.64C-140.997 134.507 -123.798 144.715 -106.818 153.676L-102.804 155.788C-81.5873 166.979 -64.8161 175.811 -42.0187 184.32C-33.9133 187.338 -25.7832 192.942 -17.9145 198.348C-6.76496 206.004 4.7519 213.911 15.6572 214.136L16.4095 214.138L36.52 225.53C41.3876 227.245 46.3933 228.541 51.4821 229.402C59.7789 231.104 68.3572 232.856 74.92 236.981C81.0745 240.789 86.2678 245.965 90.0963 252.106C94.031 257.945 95.5012 260.138 109.737 256.437C115.431 254.952 118.932 251.802 122.298 249.086C123.319 248.309 124.341 247.532 125.362 246.755C129.91 242.985 135.491 240.677 141.373 240.135C147.374 239.632 152.827 241.951 158.105 244.184C163.382 246.417 168.529 248.595 173.778 247.714C180.225 246.694 187.28 241.656 194.727 236.32C208.831 226.206 224.834 214.757 241.953 228.227C263.882 245.433 250.798 283.212 239.272 316.538C232.829 335.152 226.739 352.749 227.569 364.085C232.076 424.866 251.584 448.266 295.03 487.188C315.49 505.513 326.703 528.578 325.82 550.492C325.271 567.36 317.402 581.981 303.261 592.742ZM-29.0965 496.427C-7.91949 480.312 14.8572 485.281 40.5574 511.652C51.9064 523.286 62.9434 528.357 74.6538 533.732C84.2968 537.846 93.5064 542.909 102.147 548.846C114.464 557.601 122.18 570.498 129.651 582.986C135.749 593.206 142.064 603.768 150.848 611.857C188.985 647.024 217.307 631.765 253.151 612.459C262.916 607.237 272.988 601.78 283.758 597.184C289.45 594.79 294.829 591.713 299.777 588.019C312.477 578.354 319.506 565.299 320.12 550.258C320.923 530.415 310.136 508.461 291.274 491.57C247.591 452.452 226.496 427.169 221.877 364.53C220.948 351.989 227.228 333.829 233.877 314.615C244.773 283.161 257.105 247.499 238.491 232.849C224.814 222.103 211.934 231.33 198.359 241.064C190.317 246.808 182.73 252.251 174.9 253.484C167.969 254.563 161.884 251.995 155.99 249.503C151.15 247.467 146.627 245.588 142.021 245.891C135.325 246.438 130.971 249.773 126.221 253.631C122.337 256.741 118.28 260.292 111.427 262.084C94.0306 266.623 90.3548 262.663 85.4399 255.363C82.0637 249.898 77.4585 245.298 71.9906 241.927C66.2168 238.548 58.243 236.777 50.3756 235.146C44.8046 234.19 39.332 232.73 34.0252 230.785L14.8642 219.973C2.46257 219.407 -9.53132 211.135 -21.1327 203.204C-29.0579 197.753 -36.538 192.625 -43.9738 189.849C-67.1166 181.206 -84.0289 172.304 -105.432 161.012L-109.447 158.9C-126.578 149.856 -143.826 139.642 -160.514 129.729C-188.778 112.905 -218.089 95.5753 -247.751 83.5025C-288.305 67.0436 -310.299 79.9381 -332.902 97.1391C-336.329 99.7469 -339.826 102.408 -343.301 105.273C-348.335 109.28 -353.52 113.38 -359.035 117.423C-363.131 120.429 -367.141 123.083 -370.903 125.571C-374.664 128.058 -378.163 130.367 -381.241 132.709C-391.941 140.852 -397.133 149.064 -391.938 166.949C-390.591 171.621 -386.937 176.017 -383.056 180.682C-378.994 185.584 -374.791 190.643 -372.852 196.587C-370.281 204.523 -370.618 212.729 -370.958 220.671C-371.477 226.876 -371.235 233.121 -370.236 239.266C-365.803 260.447 -352.677 280.51 -340.013 299.91C-336.148 305.801 -332.337 311.623 -328.908 317.405C-317.226 336.646 -308.776 339.158 -295.987 342.962C-286.359 345.504 -277.131 349.368 -268.564 354.442C-241.338 370.687 -228.918 394.931 -231.826 426.578C-234.929 462.061 -234.659 484.621 -230.552 516.14C-229.377 526.248 -228.736 536.411 -228.631 546.586C-228.049 568.975 -227.53 588.32 -213.634 609.542C-208.628 617.193 -203.998 625.107 -199.411 632.701C-191.21 646.555 -182.708 660.862 -172.251 673.617C-155.332 694.195 -103.358 736.343 -83.3838 721.143C-78.0966 717.12 -75.2415 709.029 -74.9299 697.045C-74.54 683.654 -79.5254 670.689 -84.3599 658.182C-89.6137 644.516 -95.0748 630.344 -93.8815 615.194C-92.2241 594.413 -79.1111 565.93 -67.4004 546.199C-55.9838 527.155 -43.6294 507.486 -29.0965 496.427Z" fill="#100F3D"/>
<path opacity="0.2" d="M261.995 564.725C254.708 570.27 243.682 574.531 229.237 577.376C180.587 586.995 163.399 566.092 141.625 539.626C133.185 529.377 124.444 518.762 112.841 508.535C99.5408 496.863 88.3875 490.71 76.5287 484.212C70.0014 480.656 63.2553 476.957 55.7563 472.153C47.3252 466.733 41.7645 459.571 36.7829 453.315C28.4993 442.749 21.9568 434.413 5.50265 435.43C-12.6096 436.647 -29.9379 443.286 -44.2283 454.483C-99.6326 496.645 -119.472 595.208 -98.9635 648.715C-89.2322 674.1 -88.093 688.513 -95.3805 694.059C-99.8704 697.476 -106.851 696.981 -116.664 692.59C-132.333 685.525 -150.193 660.43 -162.019 643.815L-165.359 639.136C-177.695 622.026 -192.193 591.945 -195.009 571.41C-196.726 558.762 -194.479 545.548 -192.303 532.763C-190.466 523.213 -189.406 513.531 -189.134 503.81C-188.817 492.875 -187.838 481.968 -186.201 471.151C-184.162 455.313 -182.01 438.925 -184.063 425.605C-185.897 413.355 -190.172 398.943 -194.271 384.994C-197.177 375.37 -200.079 365.345 -202.13 356.351C-207.197 334.019 -221.779 315.351 -236.274 298.161C-237.072 297.112 -238.383 295.593 -239.872 293.723C-245.08 287.198 -254.781 275.06 -259.016 272.63C-265.904 268.686 -270.593 269.693 -276.522 270.959C-281.441 272.3 -286.586 272.598 -291.627 271.833C-309.974 268.505 -326.748 254.706 -339.037 233.1C-354.27 206.117 -358.73 172.768 -350.147 150.117C-345.633 137.757 -337.699 126.934 -327.27 118.908C-305.254 102.154 -270.834 98.0424 -235.176 107.893C-205.502 116.093 -177.464 134.855 -150.308 153.009C-136.409 162.305 -123.294 171.093 -110.037 178.471C-101.262 183.385 -90.7705 188.319 -79.6445 193.565C-49.5458 207.778 -15.4131 223.868 1.21487 246.677L21.8339 269.186C28.5406 268.653 37.1262 274.044 46.9401 280.177C55.3029 285.362 63.8359 290.77 70.5747 291.847C73.8756 292.298 77.22 292.334 80.5301 291.955C85.7069 291.276 90.9694 291.741 95.9461 293.318C101.418 295.138 106.071 300.12 110.557 304.942C114.633 309.282 118.847 313.804 122.446 314.355C132.425 315.858 139.744 309.251 146.942 303.354C148.724 301.865 150.517 300.391 152.335 299.007C159.525 293.536 168.432 288.435 179.966 292.068C188.223 294.617 194.188 299.352 197.517 305.96C205.192 321.097 197.818 342.695 192.421 358.416L192.217 358.991C190.629 363.666 188.877 368.157 187.044 372.51C180.308 389.317 174.499 403.829 182.805 422.725C192.282 444.351 219.58 470.5 230.867 480.746C260.076 507.229 273.934 528.082 273.227 544.452C272.997 552.422 269.185 559.253 261.995 564.725ZM-47.8563 449.803C-32.6414 437.9 -14.2005 430.845 5.07225 429.553C24.6427 428.306 32.7774 438.677 41.3836 449.638C46.256 455.866 51.302 462.294 58.9247 467.203C66.2613 471.909 72.9156 475.545 79.3477 479.064C91.4992 485.715 102.973 491.998 116.727 504.121C127.401 513.91 137.258 524.553 146.201 535.945C167.522 561.873 182.937 580.592 228.132 571.658C253.674 566.619 266.955 557.572 267.503 544.215C268.133 529.891 254.488 509.958 227.076 485.11C215.495 474.624 187.504 447.766 177.566 425.1C168.275 403.951 174.806 387.631 181.732 370.348C183.44 366.09 185.199 361.726 186.746 357.17L186.889 356.488C191.891 341.64 198.836 321.451 192.332 308.493C189.681 303.268 185.087 299.698 178.256 297.543C169.788 294.889 163.145 298.002 155.899 303.515C154.137 304.857 152.346 306.219 150.662 307.721C148.978 309.224 147.079 310.647 145.247 312.041C139.009 316.788 131.314 321.451 121.557 319.978C115.941 319.128 111.231 314.101 106.274 308.776C102.265 304.495 98.1154 300.058 94.1549 298.655C89.9179 297.331 85.4388 296.968 81.0433 297.593C77.2635 298.017 73.445 297.954 69.6813 297.406C61.8023 296.137 52.705 290.452 43.8758 284.916C35.4918 279.704 26.0199 273.729 21.5675 274.931L19.8376 275.387L-3.25715 250.146C-19.2247 228.293 -52.5849 212.608 -82.1019 198.637C-93.3091 193.342 -103.892 188.346 -112.848 183.37C-126.256 175.908 -139.52 167.012 -153.535 157.65C-180.274 139.754 -207.934 121.256 -236.679 113.32C-270.583 103.945 -303.086 107.703 -323.647 123.349C-333.201 130.708 -340.465 140.631 -344.591 151.962C-352.601 173.073 -348.295 204.419 -333.863 229.914C-322.52 249.987 -307.11 262.748 -290.516 265.776C-286.231 266.369 -281.87 266.059 -277.713 264.866C-271.423 263.524 -264.912 262.124 -256.079 267.172C-251.248 269.921 -243.149 279.81 -235.249 289.697C-233.834 291.557 -232.58 293.031 -231.747 294.009C-216.791 311.776 -201.731 331.073 -196.363 354.7C-194.359 363.487 -191.57 372.957 -188.605 382.978C-184.458 397.134 -180.119 411.718 -178.212 424.354C-176.076 438.538 -178.253 455.299 -180.346 471.531C-181.96 482.104 -182.919 492.767 -183.217 503.459C-183.526 513.493 -184.661 523.486 -186.612 533.334C-188.805 546.242 -190.876 558.439 -189.273 570.181C-186.627 589.564 -172.333 619.117 -160.686 635.293L-157.324 640C-146.574 655.114 -128.554 680.419 -114.359 686.796C-107.039 690.058 -101.536 690.904 -99.0181 688.988C-96.5004 687.072 -93.5064 679.252 -104.541 650.442C-125.748 595.436 -105.191 493.433 -47.8563 449.803Z" fill="#100F3D"/>
<path opacity="0.1" d="M191.645 532.939C191.309 533.195 190.96 533.461 190.624 533.716L188.812 534.963L187.108 533.566C146.902 500.613 111.183 467.027 78.5521 435.64C67.4167 424.926 55.0647 419.288 41.8814 413.4C35.0829 410.271 27.9256 407.106 20.7197 403.007C16.8948 400.883 13.6756 398.916 10.7777 397.169C-4.06817 388.196 -8.06728 385.785 -30.0314 395.787C-46.8478 403.439 -59.5227 410.7 -69.9294 418.619C-91.554 435.075 -103.752 454.978 -108.381 481.288C-109.274 486.384 -110.097 492.906 -111.047 500.452C-115.032 531.991 -121.054 579.631 -142.301 595.8C-144.071 597.156 -145.99 598.305 -148.021 599.225L-150.985 600.554L-152.008 597.468C-155.296 587.604 -152.885 578.263 -150.561 569.185C-149.039 563.964 -148.042 558.604 -147.584 553.185C-147.18 544.487 -148.514 535.941 -149.929 526.883C-151.345 517.825 -152.881 508.086 -152.321 498.43C-151.949 492.185 -149.557 485.286 -147.148 478.728C-144.383 470.926 -141.545 462.871 -142.275 456.339C-143.138 448.936 -147.471 441.414 -152.056 433.443C-156.247 426.166 -160.58 418.643 -162.632 410.577C-164.206 404.445 -165.732 398.231 -167.244 392.006C-177.567 350.113 -188.258 306.778 -215.813 271.816C-221.089 265.144 -230.195 257.212 -239.908 248.86C-269.191 223.383 -305.641 191.679 -280.804 158.867C-278.25 155.478 -275.248 152.451 -271.881 149.869C-245.305 129.645 -210.427 154.464 -182.317 174.452C-172.401 181.503 -163.037 188.177 -155.848 191.384C-148.013 194.704 -139.932 197.414 -131.679 199.489C-121.515 202.309 -111.003 205.24 -99.6716 211.654C-87.2575 218.68 -75.8713 225.98 -63.8144 233.696C-59.5213 236.436 -55.1963 239.217 -50.818 242.067L-50.2165 241.61L-49.0696 240.737C-47.9087 239.723 -46.6364 238.843 -45.2771 238.116L-42.9651 236.975L-15.4224 278.306L-12.3471 282.347C4.43378 304.399 23.3654 329.451 46.0771 341.359C55.1611 346.127 70.1304 347.454 84.6285 348.743C104.543 350.502 125.136 352.341 134.42 363.118C141.935 371.862 139.729 382.373 137.803 391.655C136.653 397.168 135.571 402.363 136.438 406.782C138.71 418.302 145.459 426.967 153.232 436.95C154.488 438.6 155.775 440.292 157.095 442.025C158.861 444.347 161.24 447.24 163.983 450.584C178.474 468.262 202.627 497.709 200.193 518.485C199.834 521.351 198.89 524.113 197.42 526.599C195.949 529.085 193.984 531.243 191.645 532.939ZM-73.5081 413.945C-62.7378 405.749 -49.7093 398.286 -32.4899 390.437C-7.71897 379.161 -1.85274 382.69 13.7804 392.146C16.6183 393.873 19.8196 395.786 23.5919 397.928C30.5823 401.861 37.5319 404.985 44.3018 408.047C57.8457 414.235 70.7468 419.985 82.6252 431.415C114.669 462.232 149.708 495.187 188.958 527.609C191.965 525.085 193.863 521.484 194.246 517.579C196.409 499.262 173.202 470.971 159.346 454.069C156.56 450.669 154.139 447.72 152.33 445.342C151.032 443.636 149.755 441.958 148.51 440.322C140.265 429.749 133.154 420.608 130.542 407.626C129.445 402.034 130.705 395.997 131.912 390.154C133.737 381.435 135.459 373.191 129.825 366.659C122.104 357.674 102.71 355.96 83.974 354.297C68.1993 352.898 53.3285 351.584 43.2037 346.261C19.416 333.781 -0.0464786 308.206 -17.1053 285.615L-20.2976 281.42L-44.8851 244.552L-45.4166 244.957C-46.7483 246.124 -48.2358 247.099 -49.8363 247.856L-51.2454 248.443L-52.5269 247.63C-57.5081 244.509 -62.3308 241.422 -67.0831 238.37C-79.0694 230.688 -90.3883 223.447 -102.672 216.477C-113.364 210.437 -123.091 207.726 -133.364 204.879C-141.907 202.709 -150.269 199.881 -158.376 196.421C-166.084 192.969 -175.257 186.458 -185.871 178.924C-212.349 160.122 -245.309 136.692 -268.416 154.276C-271.347 156.555 -273.954 159.223 -276.165 162.205C-297.687 190.638 -263.549 220.348 -236.091 244.211C-226.235 252.808 -216.914 260.907 -211.336 268.034C-182.99 304.006 -172.144 347.952 -161.666 390.455C-160.161 396.67 -158.619 402.857 -157.039 409.016C-155.133 416.397 -151.013 423.552 -147.026 430.476C-142.113 438.992 -137.499 447.029 -136.505 455.591C-135.579 463.454 -138.687 472.2 -141.729 480.654C-144.043 487.162 -146.222 493.325 -146.544 498.737C-147.08 507.756 -145.628 517.007 -144.22 525.939C-142.813 534.871 -141.403 544.154 -141.821 553.415C-142.281 559.238 -143.336 564.999 -144.972 570.607C-146.869 578.012 -148.68 585.065 -147.419 592.121C-126.933 578.872 -120.86 530.95 -116.916 499.619C-115.931 492.002 -115.112 485.417 -114.188 480.187C-109.299 452.42 -96.3217 431.306 -73.5081 413.945Z" fill="#100F3D"/>
</svg>
