<svg width="239" height="480" viewBox="0 0 239 480" fill="none" xmlns="http://www.w3.org/2000/svg">
<path d="M155.959 301.799C154.478 301.107 153.001 300.376 151.544 299.588C150.671 299.115 149.518 298.543 148.193 297.883C141.597 294.595 131.675 289.662 129.647 284.637C127.969 280.478 129.229 273.403 130.443 266.567C131.185 262.404 131.883 258.473 131.865 255.523C131.855 253.631 131.918 251.74 131.985 249.859C132.219 242.321 132.442 235.202 127.827 229.939C126.262 228.364 124.48 227.05 122.532 226.034C120.33 224.719 118.056 223.353 116.319 221.217C115.373 219.867 114.716 218.299 114.39 216.614C113.919 214.76 113.405 212.885 112.045 211.351C110.045 209.174 107.734 207.345 105.186 205.922C101.492 203.655 98.0032 201.518 95.9512 194.046C94.0653 187.2 94.3596 179.248 94.63 172.233C94.7067 170.488 94.7614 168.789 94.7879 167.151C94.8144 165.513 94.8534 163.848 94.9093 162.305C95.1859 154.059 95.4362 146.945 92.0065 139.352C91.056 137.274 90.1222 135.317 89.2088 133.444C86.4447 127.78 83.8292 122.431 82.5101 114.91C78.6876 93.0389 87.3038 62.7162 90.0372 53.9438C91.3879 49.6154 93.1505 45.2918 94.8564 41.105C97.0187 35.7997 99.2473 30.3212 100.637 24.8344C101.41 21.7886 101.931 18.9028 102.417 16.1231C103.566 9.63316 104.656 3.50759 108.794 -3.21052C115.512 -14.116 125.867 -16.5142 135.874 -18.8304C142.863 -20.4654 150.079 -22.1253 156.314 -26.6054C172.599 -38.3655 184.35 -51.6893 195.958 -65.4481L196.726 -66.3637C208.393 -80.2499 221.655 -95.9647 226.464 -114.397C228.551 -122.45 225.201 -130.104 221.961 -137.501C218.318 -145.823 214.562 -154.41 218.473 -163.645C215.851 -166.039 212.166 -168.31 208.59 -170.513C201.892 -174.641 196.108 -178.211 196.849 -182.595C197.393 -185.83 201.255 -188.445 209.371 -191.065C218.574 -194.035 227.878 -199.024 236.833 -203.867C243.64 -207.532 250.656 -211.295 257.788 -214.31C261.276 -215.776 265.035 -217.459 268.956 -219.221C281.951 -225.067 296.677 -231.689 308.595 -233.177C326.571 -235.477 344.579 -235.7 362.301 -233.841C367.561 -233.196 372.641 -231.706 377.371 -229.418C380.279 -228.063 383.069 -226.466 385.718 -224.642C391.269 -220.813 393.201 -216.927 395.403 -212.449C396.539 -210.047 397.825 -207.737 399.253 -205.534L399.688 -204.882L399.23 -204.156C397.505 -201.559 395.59 -199.104 393.506 -196.815C391.1 -194.216 388.946 -191.369 387.081 -188.322L381.518 -179.001C381.458 -172.942 383.573 -165.098 388.469 -161.861C392.457 -159.179 396.338 -160.078 400.49 -161.005C403.598 -161.676 406.82 -162.368 410.167 -161.62C411.24 -161.373 412.282 -161.017 413.278 -160.558C423.593 -155.736 420.885 -141.657 418.494 -129.235C417.472 -123.887 416.497 -118.844 416.572 -114.862C416.577 -111.087 416.4 -107.3 416.043 -103.515C415.649 -98.5433 415.276 -93.8558 415.75 -89.5079C416.482 -82.6289 421.134 -75.6416 425.231 -69.4609C426.504 -67.534 427.729 -65.6947 428.775 -63.9473C430.186 -61.5882 431.908 -59.2144 433.563 -56.888C436.898 -52.2564 440.351 -47.4639 441.96 -42.1767C442.585 -39.7883 442.837 -37.2785 442.707 -34.7434C442.7 -32.2462 442.665 -29.9095 443.474 -27.5454C444.175 -25.4532 445.652 -23.9946 447.207 -22.4504C448.762 -20.9062 450.22 -19.4074 451.228 -17.2451C454.671 -9.55591 455.543 4.2682 454.179 11.8669C453.583 14.628 452.75 17.3432 451.689 19.9767C449.551 25.7673 447.343 31.7542 450.233 36.9127C451.854 39.7706 455.226 41.6984 458.846 43.7913C462.824 46.084 467.338 48.6846 470.168 53.0224L471.599 55.2276C477.029 63.6493 479.734 67.7164 489.416 71.1072C505.737 76.9198 521.252 84.7213 535.671 94.3657C549.74 103.966 557.922 115.815 563.923 135.273C567.349 146.386 569.481 149.147 577.089 156.136C582.399 160.988 585.355 165.924 588.485 171.154C589.492 172.843 590.578 174.584 591.705 176.411C593.241 178.82 594.998 181.055 596.665 183.199C600.419 187.977 604.306 192.916 605.753 199.704C606.327 202.579 606.648 205.524 606.712 208.503C606.972 214.524 607.115 217.745 614.66 220.822C617.5 221.914 620.439 222.741 623.447 223.296C626.393 223.809 629.256 224.654 631.99 225.819C635.391 227.428 638.271 229.988 640.346 233.248C643.837 238.434 644.959 242.611 643.987 246.43C643.047 250.117 640.155 253.251 634.9 256.285C620.067 264.875 601.46 265.851 585.049 266.717C582.911 266.829 580.826 266.941 578.808 267.068C575.531 267.276 572.155 267.602 568.578 267.948C554.98 269.263 539.574 270.73 527.245 264.967C526.572 264.652 525.892 264.334 525.241 263.956C520.186 261.184 515.27 257.497 510.524 253.938C504.592 249.531 498.48 244.909 491.806 241.788C487.622 239.79 483.124 238.514 478.47 238.005C475.493 237.684 473.133 237.593 471.05 237.51C467.683 237.374 465.255 237.253 463.065 236.229C460.129 234.856 457.821 232.012 453.926 224.97C450.032 217.928 446.222 215.15 441.623 213C438.947 211.749 435.854 210.695 432.281 209.45L431.254 209.101C423.03 206.293 416.417 205.62 408.039 204.784L406.418 204.615C403.958 204.267 401.53 203.77 399.144 203.126C392.725 201.579 383.942 199.459 379.959 202.238C375.579 205.281 368 221.92 366.666 227.841C364.908 235.681 365.378 244.055 368.05 252.731C372.741 267.998 381.436 275.209 391.499 283.607C394.694 286.261 397.973 289.003 401.312 292.141C407.471 297.945 418.968 308.762 415.017 320.185C411.067 331.608 394.064 335.131 384.931 337.096L384.316 337.225C371.1 340.034 357.927 338.828 345.187 337.643C336.635 336.848 327.778 336.041 319.022 336.442C309.884 336.885 300.836 336.438 292.088 336.016C280.753 335.465 269.034 334.897 257.381 336.305C242.881 338.048 231.294 333.783 221.877 329.381C217.133 327.163 212.526 324.666 207.643 322.032L203.806 319.96C195.385 315.452 186.438 312.592 177.773 309.824C170.543 307.515 163.076 305.127 155.959 301.799ZM376.324 -227.179C371.802 -229.369 366.944 -230.797 361.913 -231.415C344.344 -233.256 326.492 -233.032 308.672 -230.747C297.09 -229.298 282.533 -222.752 269.697 -216.962C265.772 -215.194 261.992 -213.497 258.513 -212.018C251.511 -209.074 244.525 -205.312 237.764 -201.667C228.696 -196.787 219.317 -191.734 209.915 -188.703C200.978 -185.813 199.329 -183.454 199.125 -182.308C198.66 -179.526 204.626 -175.855 209.882 -172.613C213.825 -170.181 217.919 -167.663 220.713 -164.91L221.304 -164.324L220.912 -163.485C216.91 -155.036 220.396 -147.074 224.084 -138.642C227.493 -130.862 231.012 -122.811 228.701 -113.899C223.764 -94.8476 210.295 -78.8785 198.406 -64.7857L197.641 -63.8768C185.928 -49.9875 174.037 -36.5082 157.516 -24.6217C150.853 -19.8596 143.435 -18.1307 136.22 -16.4545C126.265 -14.1385 116.849 -11.9629 110.698 -1.98539C106.834 4.28888 105.836 9.90175 104.684 16.3984C104.185 19.2373 103.66 22.1624 102.871 25.3067C101.427 30.9725 99.1637 36.541 96.9698 41.9296C95.2892 46.0465 93.5423 50.3366 92.2296 54.552C85.0439 77.5767 82.2545 99.9113 84.7819 114.289C86.0471 121.483 88.4721 126.448 91.2779 132.197C92.2032 134.092 93.1705 136.056 94.1114 138.171C97.7272 146.251 97.5069 153.649 97.2173 162.208C97.1703 163.779 97.1136 165.387 97.0838 167.048C97.0539 168.709 96.9869 170.418 96.904 172.177C96.6631 179.018 96.3533 186.75 98.1678 193.195C100.004 199.83 102.86 201.582 106.473 203.802C109.195 205.329 111.664 207.29 113.8 209.622C115.503 211.545 116.1 213.81 116.615 215.84C116.868 217.203 117.378 218.478 118.115 219.589C119.618 221.436 121.644 222.653 123.788 223.933C125.82 225.153 127.926 226.407 129.556 228.264C134.767 234.197 134.526 241.782 134.271 249.809C134.214 251.637 134.148 253.502 134.165 255.364C134.162 258.533 133.455 262.591 132.694 266.876C131.598 273.064 130.351 280.064 131.754 283.595C133.461 287.85 143.374 292.787 149.282 295.728C150.631 296.4 151.808 296.983 152.693 297.462C161.01 301.938 169.924 304.79 178.57 307.55C187.317 310.348 196.374 313.226 204.943 317.828L208.792 319.905C213.645 322.525 218.234 325.014 222.917 327.203C232.073 331.484 243.317 335.629 257.295 333.944C269.124 332.521 280.935 333.099 292.352 333.648C301.031 334.061 310.051 334.503 319.094 334.073C328.003 333.646 336.924 334.475 345.552 335.281C358.128 336.454 371.129 337.662 384.025 334.907L384.649 334.774C393.323 332.921 409.473 329.482 412.898 319.578C416.323 309.675 405.529 299.505 399.778 294.047C396.488 290.948 393.22 288.227 390.061 285.59C379.73 276.977 370.815 269.541 365.926 253.667C363.122 244.577 362.628 235.783 364.501 227.475C365.751 221.89 373.517 203.998 378.861 200.254C383.7 196.878 392.656 199.039 399.856 200.779C402.152 201.393 404.487 201.874 406.85 202.218L408.481 202.384C416.953 203.24 423.693 203.94 432.137 206.817L433.164 207.166C436.807 208.404 439.946 209.471 442.725 210.77C448.598 213.516 452.43 217.243 455.942 223.616C462.214 234.965 463.746 234.757 471.346 235.058C473.362 235.143 475.859 235.24 478.91 235.563C483.786 236.121 488.497 237.48 492.877 239.593C499.77 242.815 505.973 247.464 511.974 251.96C516.901 255.653 521.521 259.12 526.445 261.823C538.525 268.451 554.543 266.91 568.595 265.554C572.194 265.21 575.57 264.868 578.908 264.655C580.935 264.525 583.027 264.416 585.161 264.31C601.322 263.458 619.658 262.461 633.992 254.194C638.596 251.525 641.091 248.925 641.841 245.991C642.592 243.057 641.522 239.305 638.506 234.781C636.637 231.835 634.038 229.521 630.967 228.07C628.37 226.976 625.652 226.18 622.859 225.693C619.731 225.108 616.674 224.239 613.722 223.097C604.915 219.462 604.72 214.803 604.456 208.788C604.399 205.952 604.096 203.146 603.554 200.408C602.222 194.131 598.666 189.609 594.902 184.818C593.172 182.62 591.382 180.345 589.793 177.845C588.613 176.003 587.552 174.24 586.53 172.536C583.359 167.222 580.615 162.638 575.531 157.998C567.669 150.825 565.284 147.749 561.718 136.179C555.885 117.249 547.939 105.731 534.318 96.4052C520.053 86.8532 504.7 79.1275 488.549 73.3736C478.198 69.7521 475.149 65.1401 469.668 56.6536L468.249 54.4541C465.701 50.542 461.575 48.1717 457.63 45.9027C453.786 43.6887 450.153 41.5902 448.26 38.2539C444.825 32.1129 447.357 25.2566 449.584 19.2132C450.591 16.7446 451.39 14.1996 451.97 11.6104C453.265 4.39623 452.348 -8.96699 449.177 -16.0383C448.37 -17.8538 447.032 -19.1821 445.609 -20.5826C443.942 -22.2362 442.215 -23.9506 441.344 -26.5475C440.411 -29.2961 440.445 -31.9606 440.455 -34.5458C440.576 -36.8285 440.358 -39.0896 439.81 -41.2456C438.312 -46.1702 434.973 -50.8113 431.74 -55.2972C430.051 -57.6473 428.309 -60.0717 426.838 -62.4916C425.812 -64.2048 424.608 -66.0259 423.353 -67.9118C419.109 -74.3164 414.309 -81.5696 413.498 -89.0083C413 -93.5882 413.395 -98.6246 413.785 -103.492C414.138 -107.191 414.311 -110.893 414.305 -114.582C414.22 -118.846 415.222 -124.024 416.276 -129.504C418.611 -141.633 421.029 -154.173 412.249 -158.277C411.381 -158.677 410.474 -158.986 409.539 -159.201C406.67 -159.864 403.83 -159.231 400.826 -158.56C396.465 -157.583 391.903 -156.57 387.194 -159.703C381.487 -163.499 379.112 -172.225 379.293 -179.175L379.303 -179.53L385.212 -189.449C387.155 -192.651 389.404 -195.643 391.92 -198.373C393.719 -200.365 395.399 -202.473 396.948 -204.684C395.647 -206.764 394.462 -208.93 393.401 -211.171C391.324 -215.411 389.514 -219.035 384.41 -222.557C381.842 -224.318 379.139 -225.863 376.324 -227.179Z" fill="#100F3D"/>
<path opacity="0.875" d="M192.161 288.68C188.005 286.737 185.21 283.796 182.215 280.761C179.22 277.727 176.301 274.622 171.722 272.114C170.616 271.507 169.607 270.978 168.703 270.49C160.122 265.931 159.462 265.271 158.991 251.871C158.888 249.371 158.842 246.956 158.791 244.644C158.59 235.807 158.416 228.176 156.409 219.107C156.126 217.815 155.85 216.46 155.571 215.063C153.919 206.815 152.049 197.467 145.612 192.987C143.129 191.246 139.939 190.335 136.999 189.524C134.886 189.024 132.829 188.335 130.848 187.466C127.453 185.883 124.664 183.204 122.849 179.779C119.664 174.115 119.756 168.7 119.851 162.976C119.999 159.606 119.849 156.252 119.402 152.961C118.109 144.831 113.873 139.043 109.388 132.917C107.833 130.802 106.228 128.605 104.731 126.287C93.6042 109.066 99.7843 92.7942 106.333 75.5593C107.352 72.8898 108.384 70.1609 109.41 67.3967C111.016 62.918 113.084 58.288 115.075 53.8092C118.031 47.2003 121.079 40.3644 122.773 33.7694C123.417 31.1188 123.911 28.4408 124.252 25.7506C125.213 19.124 126.038 13.4059 133.07 6.38174C138.53 0.934715 146.085 -3.96573 152.751 -8.29308C154.301 -9.3005 155.818 -10.2829 157.254 -11.2372C167.873 -18.309 171.626 -21.7673 179.599 -31.7836C182.791 -35.7982 186.794 -38.9032 190.676 -41.9092C195.06 -45.3096 199.586 -48.8234 202.798 -53.6054C208.925 -62.6788 215.056 -73.0251 219.137 -80.0152C220.877 -82.9933 222.807 -86.0458 224.677 -88.9872C232.654 -101.559 240.908 -114.565 238.795 -128.912C238.59 -130.324 238.34 -131.576 238.117 -132.792C237.449 -136.25 236.876 -139.231 237.601 -143.247C237.984 -145.179 238.687 -147.048 239.677 -148.764C240.734 -150.787 241.493 -152.254 240.821 -154.848C239.868 -158.472 235.691 -161.446 231.648 -164.325C228.623 -166.474 225.774 -168.509 224.183 -170.846C220.887 -175.704 219.855 -179.823 221.026 -183.451C223.013 -189.582 231.01 -192.772 238.735 -195.853C242.142 -197.117 245.486 -198.607 248.747 -200.315C249.945 -200.997 251.855 -202.22 254.285 -203.764C269.652 -213.592 286.625 -223.772 293.59 -220.516C294.181 -220.246 294.711 -219.856 295.153 -219.369L313.649 -225.389L313.911 -225.348C320.321 -224.272 326.828 -224.212 333.154 -224.221C342.359 -224.19 351.873 -224.155 361.441 -220.916C363.385 -220.252 365.183 -219.542 366.779 -218.796C385.078 -210.241 379.884 -195.51 373.849 -178.427C373.16 -176.462 372.467 -174.727 371.846 -173.162C368.857 -165.629 367.751 -162.82 375.216 -157.091C376.218 -156.332 377.294 -155.684 378.429 -155.156C381.196 -153.863 384.112 -153.316 387.174 -152.702C390.958 -151.971 394.897 -151.208 398.497 -148.961C407.85 -143.142 407.573 -127.052 407.332 -112.857C407.253 -107.943 407.177 -103.305 407.488 -99.368C408.851 -82.3888 415.516 -67.7844 421.974 -53.6855C428.503 -39.4225 435.255 -24.6714 436.686 -7.26827C437.089 -2.35721 436.162 2.6924 435.256 7.58806C434.494 11.7175 433.711 15.9846 433.742 20.1416C433.762 22.6922 433.497 25.8205 433.233 29.137C432.697 35.472 432.088 42.6559 433.472 46.7344C434.767 50.5429 438.145 52.7593 441.719 55.1085C445.293 57.4577 449.143 59.9928 451.105 64.3991C451.893 66.2831 452.072 68.4348 451.614 70.5367C451.26 72.9859 451.027 74.6088 454.81 76.7945C455.017 76.891 455.205 76.9789 455.417 77.0782C457.456 78.0312 458.882 77.4478 460.691 76.7086C462.493 75.8083 464.456 75.4418 466.362 75.6499C467.878 75.8696 469.344 76.3077 470.721 76.9525C473.621 78.3083 475.853 80.4139 478.006 82.4501C480.159 84.4863 482.192 86.4007 484.844 87.6403C485.979 88.1749 487.184 88.5515 488.43 88.7614C490.431 89.1001 492.179 88.6508 494.067 88.2017C496.58 87.5707 499.19 86.9364 502.478 88.0485C505.34 89.0271 511.916 94.3648 513.941 96.2182C518.545 100.43 521.978 105.042 525.609 109.926C527.836 112.912 530.156 116.014 532.767 119.065C537.242 124.263 538.899 129.384 540.653 134.804C541.479 137.511 542.444 140.157 543.542 142.733C548.312 153.485 556.227 162.504 563.878 171.237C569.185 177.281 574.179 182.982 578.215 189.216C581.008 193.52 582.226 198.159 583.4 202.638C584.481 206.746 585.503 210.615 587.66 214.083C589.058 216.13 590.66 218.004 592.439 219.676C597.176 224.472 602.549 229.901 596.488 238.785C586.757 253.069 547.8 245.275 540.089 243.566C536.343 242.738 532.289 241.937 528.095 241.104C514.644 238.452 499.41 235.44 488.03 230.177C482.308 227.502 480.485 223.717 478.715 220.054C477.32 217.155 476 214.413 472.809 212.128C469.392 209.665 463.189 208.113 457.311 206.754C452.641 205.674 447.855 204.572 444.051 202.794C427.062 194.852 410.701 190.741 392.45 189.816C375.654 188.958 361.29 208.234 357.1 227.365C355.346 235.386 356.22 250.976 357.592 258.179C358.283 261.234 359.204 264.208 360.346 267.074C362.479 272.933 364.896 279.561 364.028 286.542C363.812 288.743 363.151 290.905 362.09 292.876C361.03 294.847 359.595 296.58 357.887 297.954C346.257 307.38 321.564 303.124 309.695 301.073L309.406 301.028C305.938 300.428 302.985 299.66 300.36 299.013C293.975 297.392 288.929 296.12 280.437 297.87C265.9 300.83 252.162 303.632 237.641 297.513C226.315 292.75 218.185 292.16 206.942 291.333C205.018 291.193 203.009 291.047 200.903 290.871C197.858 290.672 194.904 289.932 192.161 288.68ZM144.154 189.274C145.14 189.728 146.084 190.267 146.978 190.888C154.123 195.863 156.085 205.694 157.823 214.359C158.101 215.74 158.375 217.069 158.646 218.355C160.711 227.664 160.883 235.409 161.089 244.378C161.146 246.676 161.199 249.062 161.289 251.573C161.727 263.968 161.872 264.036 169.854 268.266C170.769 268.759 171.785 269.291 172.894 269.908C177.752 272.563 180.867 275.801 183.885 278.928C186.711 281.883 189.392 284.656 193.208 286.44C195.719 287.577 198.421 288.252 201.205 288.438C203.339 288.619 205.321 288.728 207.226 288.891C218.243 289.695 226.95 290.318 238.588 295.219C252.517 301.085 265.322 298.476 280.146 295.454C289.128 293.639 294.356 294.964 301.024 296.659C303.728 297.343 306.523 298.054 309.918 298.636L310.204 298.688C321.753 300.68 345.779 304.828 356.571 296.072C358.021 294.915 359.236 293.449 360.131 291.78C361.025 290.11 361.576 288.277 361.744 286.414C362.507 280.038 360.324 273.984 358.185 268.122C357.001 265.137 356.047 262.038 355.332 258.854C353.885 251.257 353.008 235.469 354.859 227.003C359.248 206.781 374.651 186.487 392.706 187.402C410.951 188.268 428.637 192.699 444.897 200.477C448.702 202.255 453.405 203.343 457.948 204.396C464.027 205.8 470.436 207.416 474.174 210.095C477.812 212.703 479.317 215.825 480.775 218.843C482.452 222.324 484.038 225.606 489.007 227.929C500.247 233.127 515.354 236.112 528.683 238.74C532.904 239.578 536.974 240.377 540.732 241.211C557.328 244.884 587.363 248.246 594.689 237.494C599.55 230.37 595.5 226.271 590.817 221.532C588.911 219.745 587.198 217.74 585.704 215.547C583.383 211.798 582.27 207.568 581.195 203.478C580.065 199.175 578.897 194.731 576.298 190.722C572.349 184.619 567.397 178.97 562.153 172.997C554.391 164.138 546.364 154.993 541.461 143.925C540.328 141.279 539.334 138.559 538.484 135.776C536.804 130.578 535.217 125.669 531.03 120.803C528.341 117.683 526.021 114.564 523.78 111.546C520.205 106.746 516.829 102.218 512.376 98.1422C510.095 96.0464 504.059 91.2143 501.625 90.3951C498.924 89.4674 496.732 90.0117 494.419 90.5805C492.275 91.2533 490.058 91.4574 487.906 91.18C486.478 90.9408 485.097 90.5095 483.796 89.8962C480.848 88.5176 478.595 86.394 476.42 84.3397C474.246 82.2855 472.274 80.4319 469.671 79.215C468.473 78.6508 467.197 78.2685 465.877 78.0787C464.153 77.8284 462.779 78.3791 461.347 78.9759C459.414 79.7722 457.222 80.6672 454.352 79.3255C454.115 79.2149 453.872 79.1014 453.627 78.946C448.556 76.0194 449.008 73.0116 449.377 70.3406C449.607 68.7731 449.83 67.284 449.049 65.5706C447.342 61.7412 443.828 59.4366 440.399 57.188C436.683 54.7477 432.845 52.2183 431.306 47.699C429.766 43.1798 430.387 35.667 430.951 29.0835C431.221 25.8348 431.469 22.7888 431.463 20.3347C431.43 15.9311 432.244 11.532 433.026 7.28103C433.933 2.35288 434.784 -2.29879 434.408 -6.87072C433.021 -23.8612 426.355 -38.4169 419.906 -52.4872C413.364 -66.772 406.616 -81.5786 405.213 -98.9771C404.891 -103.033 404.968 -107.736 405.054 -112.713C405.278 -126.287 405.54 -141.665 397.238 -146.837C393.928 -148.883 390.385 -149.575 386.601 -150.306C383.419 -150.796 380.327 -151.671 377.382 -152.916C376.112 -153.502 374.911 -154.228 373.796 -155.083C364.94 -161.854 366.654 -166.152 369.757 -173.959C370.365 -175.497 371.042 -177.198 371.719 -179.121C378.427 -198.104 381.455 -209.198 365.735 -216.547C364.206 -217.262 362.478 -217.947 360.609 -218.584C351.354 -221.718 342.011 -221.755 332.977 -221.787C326.667 -221.811 320.15 -221.835 313.652 -222.895L294.188 -216.56L293.763 -217.232C293.455 -217.691 293.029 -218.043 292.531 -218.25C286.032 -221.288 265.315 -208.095 255.34 -201.719C252.885 -200.154 250.948 -198.919 249.697 -198.204C246.343 -196.423 242.9 -194.869 239.39 -193.553C232.211 -190.691 224.784 -187.724 223.178 -182.788C222.252 -179.952 223.22 -176.55 226.06 -172.346C227.429 -170.325 230.13 -168.401 233.003 -166.355C237.349 -163.253 241.88 -160.04 243.009 -155.639C243.935 -152.084 242.772 -149.85 241.641 -147.683C240.782 -146.21 240.166 -144.605 239.824 -142.943C239.191 -139.407 239.702 -136.766 240.344 -133.426C240.581 -132.195 240.828 -130.887 241.044 -129.438C243.292 -114.129 234.764 -100.695 226.525 -87.7064C224.67 -84.7822 222.747 -81.7593 221.038 -78.8322C216.942 -71.8084 210.78 -61.4113 204.609 -52.2766C201.146 -47.1464 196.441 -43.5036 191.9 -39.9725C187.962 -36.9108 184.259 -34.05 181.267 -30.2926C173.084 -19.999 169.226 -16.459 158.327 -9.19936C156.887 -8.23839 155.368 -7.24928 153.802 -6.24082C147.231 -1.95886 139.809 2.8482 134.528 8.1013C128.13 14.482 127.402 19.5344 126.474 25.9315C126.131 28.7198 125.624 31.4956 124.954 34.242C123.237 41.0789 120.112 48.0012 117.114 54.7136C115.13 59.1464 113.09 63.7324 111.525 68.1077C110.52 70.9061 109.466 73.6819 108.46 76.3408C101.852 93.6382 96.2005 108.605 106.663 124.813C108.127 127.074 109.711 129.236 111.244 131.334C115.898 137.685 120.293 143.686 121.68 152.375C122.148 155.813 122.308 159.316 122.157 162.836C122.062 168.226 121.978 173.309 124.852 178.42C126.45 181.455 128.912 183.831 131.914 185.235C133.789 186.047 135.736 186.684 137.736 187.14C139.94 187.658 142.087 188.372 144.154 189.274Z" fill="#100F3D"/>
<path opacity="0.75" d="M200.635 277.876C198.499 276.878 196.316 275.727 194.117 274.421C182.465 267.527 181.616 266.591 175.974 254.369C171.065 243.756 170.253 239.879 168.907 227.941C168.59 225.154 168.37 221.766 168.12 217.842C167.175 203.337 165.884 183.467 158.316 175.966C156.809 174.444 154.43 173.936 151.911 173.519C149.393 173.102 146.557 172.462 144.677 170.758C143.293 169.498 142.674 167.468 142.076 165.506C141.592 163.915 141.138 162.42 140.344 161.477C138.757 159.59 137.291 157.949 135.919 156.409C131.405 151.357 127.836 147.368 124.35 139.357C120.405 130.289 118.751 123.453 116.922 113.243C114.667 100.528 114.577 95.9759 119.071 83.7858C122.119 75.4954 124.492 66.4486 126.789 57.6927L127.795 53.8649C129.754 46.5117 132.817 41.8566 136.07 36.9386C137.947 34.2105 139.671 31.3734 141.232 28.4435C142.724 25.4945 144.054 22.4652 145.214 19.3724C147.307 14.0264 148.822 10.1674 155.031 4.35154C158.625 0.981954 162.435 -2.40881 166.129 -5.691C170.152 -9.26823 174.317 -12.9752 178.128 -16.5867C192.589 -30.4902 206.153 -45.432 218.708 -61.2914C227.377 -72.3386 232.13 -83.28 237.163 -94.867C239.836 -101.012 242.588 -107.357 246.022 -113.816C246.647 -114.995 247.515 -117.106 248.44 -119.337C250.026 -123.172 251.668 -127.127 252.944 -128.671C255.812 -132.102 258.012 -132.838 260.328 -133.569C261.991 -134.045 263.603 -134.757 265.118 -135.686C271.643 -139.744 274.836 -143.063 274.886 -145.826C274.932 -148.028 272.908 -150.183 268.882 -152.245L268.669 -152.344C266.813 -153.212 264.473 -153.268 262.21 -153.313C259.73 -153.37 257.164 -153.45 255.128 -154.549C252.782 -155.696 250.978 -157.751 250.052 -160.329C249.628 -161.572 248.923 -162.667 247.996 -163.521C246.824 -164.47 245.6 -165.348 244.33 -166.15C238.81 -169.809 231.253 -174.821 236.412 -184.004C239.682 -189.829 255.151 -196.349 267.556 -201.597C272.031 -203.484 275.896 -205.109 278.052 -206.258C298.608 -217.206 314.443 -219.796 326.45 -214.183C327.002 -213.925 327.554 -213.667 328.087 -213.352L341.83 -214.281C343.591 -216.309 355.715 -210.772 355.867 -210.701C358.294 -209.567 359.953 -208.513 360.765 -207.594C366.744 -200.804 363.907 -194.514 360.622 -187.234C359.289 -184.547 357.743 -181.975 356.001 -179.548C353.178 -175.36 350.259 -171.03 349.724 -166.786C348.969 -160.807 351.529 -158.123 354.499 -155.018C356.355 -153.072 358.27 -151.065 359.512 -148.123C360.419 -145.769 360.801 -143.186 360.629 -140.566C360.599 -137.434 360.69 -135.872 363.001 -134.791C363.774 -134.451 364.584 -134.201 365.418 -134.046C368.057 -133.506 371.167 -135.509 374.181 -137.45C377.195 -139.391 380.247 -141.347 383.104 -140.943C383.994 -140.817 384.855 -140.563 385.664 -140.187C393.581 -136.486 393.994 -122.075 394.323 -110.49C394.328 -107.199 394.526 -103.927 394.918 -100.693C395.259 -98.6707 395.579 -96.6827 395.896 -94.7204C397.044 -87.6877 398.081 -81.0663 400.056 -74.2031C401.488 -69.2026 402.221 -63.5898 402.907 -58.1622C403.768 -51.5744 404.656 -44.7611 406.812 -39.2673C407.743 -37.2104 408.978 -35.3435 410.472 -33.7324C411.885 -32.0097 413.394 -30.2092 414.233 -27.9542C414.779 -26.4815 414.816 -24.0781 414.87 -21.5363C414.848 -19.8351 414.955 -18.1453 415.191 -16.4834C415.702 -13.8751 416.293 -11.6132 416.861 -9.42757C418.355 -3.6877 419.642 1.2772 418.402 8.68889C417.749 12.6161 416.999 16.2447 416.272 19.7614C414.97 26.0572 413.736 32.001 413.211 38.8806C412.967 41.727 412.543 44.5672 411.943 47.3819C410.719 53.5425 410.315 55.6088 417.818 60.7507C419.455 61.8673 420.893 62.7928 422.164 63.5997C429.338 68.2282 431.512 69.6039 432.345 81.817C432.451 83.6151 432.2 85.4461 431.607 87.1915C430.938 89.477 430.574 90.7289 433.49 93.7914C434.132 94.4527 434.884 94.9838 435.713 95.3619C438.267 96.556 441.46 96.4635 444.543 96.385L446.24 96.3611C449.56 96.3282 452.275 96.1024 454.637 95.8907C461.06 95.3395 465.523 94.9663 473.845 99.2574L475.925 100.328C483.372 104.136 491.804 108.446 496.473 115.474C497.5 117.025 498.147 119.263 498.767 121.449C499.386 123.634 500.001 125.752 500.891 126.805C501.862 127.868 503.039 128.695 504.351 129.24C504.885 129.49 505.425 129.742 505.987 129.964C506.548 130.185 507.14 130.454 507.71 130.721C509.511 131.468 511.109 132.634 512.397 134.137C514.984 137.381 516.456 141.681 517.881 145.844C519.477 150.512 521.132 155.339 524.339 158.505C526.964 161.097 529.996 162.678 533.2 164.364C537.59 166.661 542.11 169.027 545.405 174.155C546.65 176.11 547.382 178.625 548.093 181.058C548.889 183.767 549.703 186.566 551.21 188.496C552.796 190.408 554.652 192.041 556.722 193.344C558.552 194.529 560.241 195.933 561.759 197.53C566.713 203.049 568.158 208.022 566.064 212.313C561.896 220.848 544.362 223.641 533.824 222.841C531.207 222.634 528.675 221.953 526.336 220.827C522.089 218.842 518.394 215.676 514.886 212.647C513.367 211.341 511.864 210.05 510.325 208.881C509.31 208.096 508.362 207.244 507.421 206.395C505.702 204.676 503.75 203.238 501.619 202.122C500.856 201.764 500.059 201.484 499.237 201.287C497.248 200.798 495.037 201.145 492.717 201.507C489.84 201.967 486.871 202.434 484.244 201.206C482.321 200.307 481.189 198.03 479.977 195.641C478.977 193.653 477.941 191.6 476.606 190.706C473.995 188.954 471.074 188.496 468.043 188.117C466.647 187.938 465.243 187.78 463.722 187.428C458.775 186.427 453.76 185.719 448.699 185.308C444.466 184.873 440.105 184.428 435.883 183.639C429.873 182.529 423.854 180.254 418.029 178.054C405.495 173.314 393.657 168.841 381.227 174.396C358.561 184.529 353.211 216.927 352.099 226.612C351.78 229.445 351.442 232.114 351.104 234.718C350.298 241.107 349.53 247.146 349.27 253.807C348.951 262.033 349.709 265.647 350.968 271.636C351.284 273.157 351.633 274.815 352 276.719C353.049 282.177 352.42 286.084 350.106 288.678C347.352 291.738 342.352 292.612 334.889 291.37C331.082 290.691 327.332 289.781 323.654 288.642C318.714 287.223 314.05 285.876 308.051 285.645L297.041 285.205C281.075 284.564 265.958 283.943 250.536 283.94C247.418 283.937 244.449 283.979 241.622 284.03C226.51 284.237 214.583 284.397 200.635 277.876ZM157.509 172.443C158.414 172.857 159.24 173.428 159.956 174.134C168.112 182.229 169.436 202.613 170.404 217.496C170.66 221.391 170.878 224.752 171.186 227.478C172.496 239.097 173.286 242.866 178.048 253.173C183.527 265.033 184.015 265.572 195.352 272.285C197.473 273.538 199.595 274.661 201.67 275.631C215.194 281.954 226.888 281.783 241.763 281.595C244.622 281.551 247.598 281.512 250.731 281.515C266.195 281.521 281.316 282.135 297.321 282.787L308.325 283.224C314.586 283.463 319.393 284.853 324.431 286.301C328.03 287.418 331.7 288.316 335.425 288.989C342.002 290.087 346.419 289.447 348.536 287.086C350.24 285.195 350.662 281.936 349.794 277.404C349.436 275.513 349.088 273.871 348.771 272.366C347.524 266.399 346.691 262.455 347.042 253.925C347.303 247.151 348.081 241.059 348.896 234.601C349.224 232.018 349.569 229.351 349.888 226.534C351.351 213.663 357.27 182.594 380.522 172.22C393.787 166.287 406.591 171.129 418.975 175.808C424.718 177.978 430.65 180.22 436.473 181.3C440.617 182.069 444.941 182.513 449.125 182.941C454.263 183.368 459.354 184.092 464.376 185.111C465.766 185.426 467.159 185.595 468.505 185.767C471.082 185.962 473.588 186.564 475.943 187.553C476.64 187.879 477.31 188.258 477.949 188.687C479.738 189.891 480.908 192.195 482.037 194.43C483.031 196.399 484.056 198.43 485.263 199.011C487.374 199.998 489.9 199.593 492.584 199.165C494.987 198.769 497.54 198.385 499.949 198.972C500.9 199.204 501.822 199.528 502.705 199.942C505.02 201.136 507.145 202.679 509.019 204.528C509.921 205.35 510.817 206.185 511.799 206.914C513.359 208.117 514.892 209.439 516.438 210.766C519.871 213.719 523.412 216.772 527.422 218.647C529.54 219.665 531.83 220.282 534.198 220.474C544.2 221.22 560.651 218.436 564.089 211.382C565.685 208.124 564.335 204.07 560.104 199.346C558.69 197.868 557.119 196.569 555.417 195.472C553.177 194.058 551.164 192.291 549.441 190.226C547.684 187.959 546.815 184.914 545.942 182.054C545.245 179.669 544.593 177.428 543.518 175.741C540.562 171.09 536.46 168.935 532.113 166.658C528.908 164.988 525.607 163.257 522.759 160.446C519.223 156.939 517.45 151.844 515.768 146.932C514.35 142.772 513.001 138.84 510.658 135.898C509.562 134.652 508.214 133.688 506.702 133.068C506.156 132.813 505.604 132.555 505.042 132.333C504.48 132.111 503.898 131.839 503.346 131.581C501.759 130.921 500.337 129.918 499.165 128.63C497.978 127.216 497.317 124.897 496.609 122.442C496.06 120.453 495.442 118.375 494.604 117.117C490.24 110.542 482.063 106.351 474.843 102.674L472.757 101.6C464.948 97.5572 460.983 97.9097 454.666 98.4537C452.256 98.6588 449.513 98.8963 446.116 98.9344L444.444 98.9696C441.269 99.0544 437.698 99.166 434.664 97.7477C433.632 97.266 432.694 96.5987 431.891 95.7729C428.297 92.042 428.602 89.807 429.469 86.8296C429.973 85.3885 430.192 83.8734 430.114 82.3835C429.357 71.3503 427.892 70.4039 420.915 65.9082C419.637 65.0822 418.184 64.1415 416.52 63.0365C408.118 57.2865 408.364 54.231 409.751 47.2476C410.34 44.5001 410.75 41.7264 410.977 38.9473C411.522 31.8974 412.757 25.8887 414.093 19.4866C414.814 15.9996 415.555 12.3911 416.201 8.52603C417.342 1.6567 416.178 -2.84246 414.692 -8.52119C414.119 -10.7421 413.519 -13.0327 412.991 -15.7145C412.722 -17.5286 412.596 -19.3749 412.614 -21.2345C412.581 -23.4562 412.515 -25.7667 412.129 -26.838C411.432 -28.7324 410.124 -30.2998 408.738 -31.9691C407.248 -33.7773 405.693 -35.6397 404.726 -38.1101C402.47 -43.8795 401.556 -50.8437 400.682 -57.5767C399.982 -62.9125 399.264 -68.4288 397.874 -73.2536C395.859 -80.2504 394.786 -86.9538 393.641 -94.0257C393.324 -95.988 393.007 -97.9666 392.663 -99.9822C392.264 -103.34 392.07 -106.739 392.082 -110.157C391.759 -120.538 391.378 -134.73 384.655 -137.872C384.029 -138.163 383.362 -138.359 382.673 -138.456C380.596 -138.757 378.03 -137.08 375.289 -135.314C371.894 -133.126 368.381 -130.863 364.868 -131.573C363.877 -131.762 362.915 -132.064 361.999 -132.474C358.329 -134.19 358.349 -137.318 358.396 -140.327C358.416 -142.426 358.44 -144.596 357.465 -146.907C356.38 -149.473 354.603 -151.334 352.88 -153.136C349.793 -156.369 346.606 -159.705 347.51 -166.857C348.123 -171.726 351.204 -176.341 354.222 -180.788C355.879 -183.09 357.352 -185.53 358.621 -188.079C361.781 -195.075 364.065 -200.135 359.098 -205.783C358.746 -206.185 357.732 -207.051 354.868 -208.39C351.606 -209.886 348.225 -211.112 344.753 -212.057L343.091 -211.886L327.458 -210.835L327.185 -210.963C326.6 -211.294 326.003 -211.597 325.396 -211.881C314.026 -217.197 298.832 -214.633 278.937 -204.038C276.682 -202.837 272.781 -201.197 268.247 -199.28C257.456 -194.732 241.146 -187.853 238.319 -182.818C234.603 -176.213 239.197 -172.439 245.598 -168.197C246.941 -167.348 248.234 -166.417 249.468 -165.406C250.64 -164.338 251.541 -162.974 252.101 -161.422C252.829 -159.294 254.31 -157.603 256.247 -156.689L256.556 -156.545C258.128 -155.81 260.199 -155.765 262.389 -155.722C264.869 -155.665 267.432 -155.611 269.676 -154.562L269.956 -154.431C274.843 -151.934 277.189 -149.154 277.13 -145.946C277.016 -140.958 270.8 -136.502 266.117 -133.584C264.433 -132.555 262.645 -131.762 260.799 -131.225C258.56 -130.499 256.945 -129.971 254.56 -127.115C253.56 -125.907 251.87 -121.835 250.492 -118.508C249.539 -116.217 248.643 -114.046 247.955 -112.749C244.596 -106.386 241.853 -100.077 239.178 -93.974C234.073 -82.2166 229.236 -71.1266 220.365 -59.806C207.733 -43.8376 194.082 -28.7972 179.521 -14.8076C175.68 -11.1615 171.502 -7.44395 167.464 -3.84945C163.786 -0.584556 159.987 2.79564 156.412 6.14125C150.648 11.5439 149.321 14.9843 147.273 20.1715C146.073 23.3492 144.699 26.4616 143.16 29.4918C141.561 32.5021 139.797 35.4188 137.879 38.2254C134.754 42.9497 131.793 47.4161 129.964 54.3481L128.925 58.1521C126.616 66.9673 124.238 76.0858 121.134 84.497C116.839 96.1509 116.922 100.226 119.139 112.596C120.937 122.62 122.553 129.333 126.4 138.183C129.737 145.863 133.204 149.739 137.592 154.65C138.982 156.199 140.463 157.855 142.062 159.763C143.126 161.077 143.684 162.842 144.242 164.59C144.8 166.338 145.276 167.991 146.221 168.849C147.729 170.224 150.018 170.706 152.417 171.108C154.181 171.32 155.896 171.77 157.521 172.448L157.509 172.443Z" fill="#100F3D"/>
<path opacity="0.625" d="M217.36 265.301C216.492 264.891 215.648 264.431 214.832 263.923C207.492 259.413 203.17 252.653 198.564 243.244C189.336 224.222 191.829 207.771 194.73 188.692C195.089 186.343 195.449 183.934 195.809 181.466C196.046 179.788 196.422 177.814 196.83 175.676C198.364 167.651 200.436 156.641 196.783 151.534C195.702 149.927 194.258 148.647 192.57 147.799C187.194 145.286 180.814 149.412 175.179 153.053C174.216 153.673 173.293 154.271 172.405 154.812C165.511 159.025 159.009 159.744 152.984 156.927C146.019 153.671 139.946 145.929 134.419 133.254C127.733 117.872 127.217 101.722 132.784 80.8162C135.274 71.4563 138.098 60.8466 142.952 51.0639C144.648 47.6408 146.014 44.3245 147.436 40.8549C149.522 35.4595 151.991 30.2153 154.821 25.1707C161.955 12.9156 172.4 3.81006 182.502 -5.00613C187.694 -9.53247 193.062 -14.2136 197.869 -19.2301C201.993 -23.5447 206.742 -27.2813 211.342 -30.9073C214.766 -33.5966 218.331 -36.3669 221.505 -39.3445C229.67 -46.9095 235.045 -55.656 240.351 -64.664C242.608 -68.7565 244.561 -73.0137 246.191 -77.3933C248.364 -82.8324 250.625 -88.4592 254.254 -93.7241C257.564 -98.5258 261.711 -102.241 265.719 -105.834C269.166 -108.921 272.431 -111.839 275.224 -115.411L291.178 -129.737C291.239 -130.452 291.875 -131.355 293.729 -133.913C295.582 -136.47 298.196 -140.068 298.786 -142.073C300.92 -149.295 300.653 -149.64 296.154 -155.421L295.974 -155.652C293.838 -158.41 291.11 -160.574 287.991 -161.982C285.15 -163.207 282.202 -164.172 279.175 -164.87C275.933 -165.621 272.775 -166.663 269.734 -167.985C268.791 -168.424 267.874 -168.918 266.988 -169.464C260.399 -173.525 257.464 -178.493 258.94 -183.089C260.473 -187.839 266.417 -190.812 274.093 -190.656C276.643 -190.607 278.702 -190.364 280.704 -190.122C284.851 -189.63 288.123 -189.244 293.617 -190.859C296.08 -191.62 298.508 -192.54 300.886 -193.614C304.291 -195.078 307.822 -196.589 311.836 -197.156C316.238 -197.794 327.238 -198.853 334.999 -195.225C337.197 -194.255 339.129 -192.76 340.656 -190.848C345.668 -184.346 343.187 -178.994 340.593 -173.318C339.127 -170.435 338.002 -167.391 337.246 -164.261C335.181 -154.498 345.325 -133.307 356.835 -127.926C358.303 -127.194 359.923 -126.807 361.59 -126.79C364.278 -126.816 366.93 -128.551 369.496 -130.227C372.812 -132.403 376.242 -134.648 379.719 -133.022C381.233 -132.233 382.505 -131.031 383.416 -129.529C386.076 -125.54 385.045 -117.198 384.108 -109.849C383.726 -107.241 383.49 -104.623 383.4 -102.009C383.487 -88.8945 385.975 -77.4686 388.54 -65.3694C389.681 -60.0148 390.845 -54.4864 391.869 -48.77C392.952 -42.3725 392.32 -35.7227 391.715 -29.2889C391.153 -24.5853 390.926 -19.8701 391.036 -15.1847C391.314 -9.58015 393.129 -4.63798 394.885 0.14585C396.921 5.70618 398.839 10.9823 398.57 17.1401C398.22 24.6734 395.394 30.845 392.659 36.8221C388.164 46.6422 384.281 55.1223 393.44 66.9867C395.571 69.6042 397.97 71.9556 400.599 74.0025C405.25 77.8763 409.644 81.5402 411.031 89.9593C411.459 92.57 410.845 94.8322 410.305 96.8266C409.534 99.6774 408.866 102.135 411.082 105.459C411.823 106.364 412.768 107.052 413.84 107.467C416.655 108.783 420.585 109.55 422.688 109.97L422.931 110.018C426.09 110.509 429.306 110.686 432.54 110.547C437.727 110.521 443.077 110.464 447.736 112.643C448.883 113.178 449.964 113.845 450.961 114.633C452.974 116.227 454.174 118.357 455.326 120.415C456.478 122.474 457.586 124.438 459.356 125.38C461.146 126.217 463.713 125.864 466.195 125.521C467.903 125.219 469.622 125.103 471.326 125.174C474.944 125.432 478.459 126.295 481.744 127.733C486.495 129.954 490.037 133.717 492.908 139.595C495.113 144.098 500.169 158.759 497.038 166.137C491.826 178.408 471.998 170.674 456.062 164.45C450.393 162.232 445.483 160.321 442.31 159.753C438.7 159.004 435.153 158.012 431.692 156.783C425.967 154.923 420.059 152.978 414.659 153.158C411.487 153.269 408.966 154.836 406.303 156.499C404.052 157.898 401.733 159.347 399.021 159.82C396.308 160.292 394.048 159.244 391.997 158.334C390.249 157.517 388.568 156.812 386.989 157.12C380.936 158.302 366.108 168.292 361.563 173.015C354.788 180.028 347.2 194.898 345.637 204.218C344.075 213.538 344.49 223.594 344.897 233.287C345.304 242.98 345.71 253.278 344.081 262.599C343.306 267.008 341.433 270.349 338.542 272.454C331.567 277.584 319.952 274.974 309.704 272.667C305.183 271.648 300.914 270.69 297.605 270.54C292.192 270.289 287.151 270.555 281.789 270.892C278.527 271.083 275.159 271.282 271.656 271.343C266.006 271.456 261.18 269.665 256.509 267.939C252.533 266.464 248.776 265.076 244.647 264.845C240.247 264.61 236.689 265.357 233.257 266.057C228.148 267.084 223.372 268.111 217.36 265.301ZM193.623 145.53C195.629 146.528 197.348 148.037 198.64 149.934C202.877 155.862 200.767 167.001 199.048 175.945C198.656 178.033 198.29 179.97 198.053 181.616C197.696 184.089 197.33 186.5 196.971 188.865C194.019 208.288 191.683 223.628 200.594 241.954C205.021 251.051 209.151 257.541 216.058 261.791C222.565 265.789 227.316 264.816 232.939 263.637C236.897 262.661 240.918 262.231 244.901 262.357C249.316 262.591 253.395 264.098 257.341 265.558C261.827 267.222 266.471 268.944 271.723 268.842C275.188 268.77 278.537 268.579 281.774 268.393C287.185 268.079 292.29 267.786 297.816 268.032C301.308 268.202 305.665 269.177 310.275 270.213C320.066 272.421 331.167 274.913 337.286 270.412C339.648 268.681 341.118 266.01 341.769 262.262C343.365 253.202 342.952 243.204 342.56 233.51C342.155 223.655 341.736 213.465 343.344 203.873C344.952 194.109 352.908 178.561 359.984 171.238C364.432 166.626 379.597 156.042 386.684 154.657C388.92 154.223 390.966 155.131 392.944 156.007C394.923 156.882 396.753 157.697 398.759 157.344C401.028 156.95 403.054 155.683 405.201 154.35C408.017 152.594 410.927 150.784 414.706 150.623C420.485 150.424 426.575 152.421 432.458 154.354C435.829 155.551 439.283 156.519 442.799 157.252C446.179 157.852 451.168 159.8 456.943 162.059C471.163 167.62 490.649 175.234 494.914 165.176C497.344 159.473 493.595 146.444 490.81 140.746C488.132 135.262 484.997 131.909 480.641 129.872C477.567 128.536 474.28 127.735 470.897 127.499C469.356 127.445 467.801 127.559 466.258 127.838C463.47 128.218 460.588 128.611 458.392 127.585L458.149 127.471C455.839 126.244 454.535 123.927 453.278 121.68C452.221 119.797 451.132 117.858 449.443 116.521C448.568 115.833 447.621 115.251 446.617 114.783C442.37 112.798 437.256 112.858 432.315 112.877C428.942 113.005 425.588 112.804 422.296 112.279L422.059 112.233C419.861 111.81 415.776 111.012 412.73 109.588C411.317 109.027 410.084 108.088 409.142 106.856C406.324 102.638 407.248 99.2215 408.067 96.2052C408.585 94.3065 409.062 92.495 408.733 90.4458C407.479 82.8651 403.58 79.6125 399.063 75.8499C396.31 73.7098 393.801 71.2468 391.578 68.5021C381.539 55.4992 385.927 45.9233 390.576 35.7747C393.198 30.039 395.917 24.1116 396.233 17.0935C396.496 11.4232 394.649 6.39232 392.695 1.06667C390.877 -3.86881 389.003 -9.00183 388.703 -14.9847C388.584 -19.7939 388.813 -24.634 389.386 -29.4626C389.977 -35.7233 390.592 -42.2096 389.563 -48.2796C388.602 -53.9256 387.428 -59.4339 386.286 -64.756C383.665 -77.004 381.194 -88.5609 381.095 -101.901C381.18 -104.625 381.428 -107.352 381.837 -110.068C382.661 -116.653 383.687 -124.843 381.51 -128.108C380.808 -129.284 379.829 -130.233 378.661 -130.87C376.234 -132.004 373.619 -130.269 370.567 -128.264C367.85 -126.486 364.752 -124.446 361.393 -124.455C359.415 -124.475 357.493 -124.928 355.746 -125.788C344.152 -131.208 332.502 -153.037 334.979 -164.724C335.788 -168.03 336.979 -171.245 338.521 -174.295C341.12 -179.854 342.964 -183.878 338.851 -189.233C337.526 -190.876 335.853 -192.158 333.951 -192.986C326.671 -196.39 316.14 -195.372 311.953 -194.781C308.236 -194.247 305.002 -192.866 301.579 -191.394C299.111 -190.287 296.595 -189.335 294.043 -188.544C288.066 -186.828 284.452 -187.243 280.238 -187.75C278.297 -187.979 276.28 -188.219 273.837 -188.291C267.346 -188.417 262.212 -186.102 261.057 -182.524C259.974 -179.149 262.642 -175.083 268.205 -171.657C269.026 -171.154 269.874 -170.698 270.745 -170.29C273.677 -169.022 276.721 -168.023 279.846 -167.301C282.99 -166.572 286.052 -165.564 289.002 -164.288C292.408 -162.735 295.389 -160.367 297.731 -157.355L297.917 -157.121C302.603 -151.123 303.474 -150.029 300.943 -141.563C300.217 -139.108 297.59 -135.482 295.476 -132.573C294.669 -131.463 293.684 -130.101 293.434 -129.613L293.773 -129.088L276.755 -113.83C273.97 -110.229 270.477 -107.107 267.092 -104.073C263.197 -100.582 259.168 -96.9752 256.032 -92.4353C252.574 -87.4255 250.388 -81.9433 248.265 -76.6439C246.585 -72.1411 244.571 -67.7646 242.244 -63.5583C236.866 -54.3473 231.335 -45.428 222.908 -37.6179C219.633 -34.5815 216.046 -31.7644 212.586 -29.0434C208.062 -25.4875 203.39 -21.8048 199.39 -17.6284C194.518 -12.5523 189.088 -7.80208 183.857 -3.2373C173.893 5.42337 163.636 14.3961 156.72 26.263C153.966 31.2057 151.565 36.3422 149.538 41.6251C148.147 45.0114 146.725 48.4809 144.972 52.0085C140.237 61.5526 137.452 72.0168 134.993 81.261C129.593 101.558 130.063 117.221 136.524 132.04C141.76 144.04 147.662 151.644 154.056 154.634C159.444 157.153 165.109 156.532 171.409 152.671C172.279 152.139 173.19 151.551 174.134 150.938C179.945 147.192 187.189 142.514 193.626 145.523L193.623 145.53ZM292.647 -130.807L293.45 -129.614C293.491 -129.854 293.46 -130.096 293.359 -130.304C293.259 -130.511 293.095 -130.673 292.893 -130.765C292.815 -130.793 292.734 -130.81 292.65 -130.814L292.647 -130.807Z" fill="#100F3D"/>
<path opacity="0.5" d="M234.246 237.912C227.827 234.911 223.46 230.729 220.526 224.749C216.538 216.658 218.116 210.549 219.786 204.098C220.746 200.462 221.7 196.683 221.671 192.347C221.659 189.89 220.758 187.516 219.899 185.211C218.753 182.158 217.572 179.008 218.293 175.472C218.953 172.21 221.326 169.316 223.616 166.521C225.742 163.92 227.942 161.238 228.784 158.315C229.568 155.577 230.272 152.964 230.96 150.401C233.055 142.63 235.057 135.313 238.797 126.284C243.653 114.663 245.548 108.808 235.814 102.697C235.055 102.219 234.269 101.789 233.459 101.408C221.136 95.6471 208.643 104.817 195.417 114.526C185.307 121.917 174.889 129.589 164.324 130.222C160.791 130.547 157.298 130.007 154.112 128.643C140.473 122.267 145.019 99.2583 148.031 84.0385C148.279 82.7653 148.523 81.5475 148.742 80.3996C149.617 75.7917 150.227 71.1174 150.872 66.1647C152.846 51.0151 154.917 35.3719 164.902 22.7423C171.065 15.001 180.035 8.16394 186.245 3.70511C194.533 -2.22541 201.233 -8.75955 208.306 -15.6501C209.628 -16.8953 210.913 -18.19 212.263 -19.4793C220.361 -27.3126 227.248 -36.4471 233.885 -45.2821C239.889 -53.2692 246.091 -61.5229 253.112 -68.634C257.306 -72.8591 260.66 -77.8196 263.926 -82.6086C266.693 -86.8664 269.728 -90.9309 273.006 -94.7712C276.45 -98.6437 280.211 -101.723 283.855 -104.709C287.499 -107.696 291.309 -110.801 294.692 -114.669C299.267 -119.884 310.266 -130.096 318.978 -131.097C321.35 -131.445 323.719 -131.131 325.85 -130.188C328.52 -128.94 330.271 -126.757 332.125 -124.444C333.871 -122.263 335.686 -120.009 338.445 -118.352C342.252 -116.057 347.355 -115.714 352.319 -115.371C357.413 -115.008 362.69 -114.608 366.486 -112.163C371.383 -108.991 372.246 -103.579 373.158 -97.8582C373.527 -95.0715 374.112 -92.339 374.905 -89.6875C381.252 -70.3375 378.566 -57.0814 374.847 -38.7359C374.426 -36.781 374.018 -34.7491 373.624 -32.6402C370.419 -16.3749 372.578 -3.02747 375.077 12.4236C375.549 15.3819 376.036 18.4041 376.504 21.5153L376.506 21.8593L374.831 35.7842C376.127 39.3394 375.343 41.98 374.552 44.527C374.026 46.0374 373.683 47.5996 373.533 49.1738C373.017 56.5236 374.957 59.0482 377.413 62.2555C379.379 64.6069 380.919 67.3371 381.965 70.3242C382.866 73.0166 382.34 75.7534 381.822 78.4281C381.368 80.7899 380.938 83.0235 381.6 84.9755C382.527 87.7375 384.049 88.7189 385.959 89.9631C387.26 90.7492 388.466 91.6885 389.558 92.7652C394.249 97.6136 395.142 101.381 396.18 105.739C396.874 109.079 397.969 112.278 399.439 115.263C400.713 117.803 402.27 119.487 404.199 120.389C407.136 121.762 410.745 121.3 414.92 120.768C417.982 120.291 421.057 120.089 424.112 120.162C428.274 120.368 434.431 121.383 439.231 123.627C444.424 126.055 447.004 129.394 446.882 133.545C446.789 136.827 445.821 139.324 444.01 140.969C440.371 144.293 434.346 143.389 429.507 142.671C428.124 142.466 426.805 142.266 425.781 142.212C409.329 141.392 394.773 145.691 379.368 150.223C375.886 151.251 372.346 152.292 368.721 153.294C349.183 158.712 340.045 168.674 332.513 192.787C329.199 203.372 327.635 214.292 328.249 222.783C328.486 225.141 328.838 227.474 329.307 229.773C330.672 237.259 332.371 246.576 328.012 252.611C320.573 262.925 281.228 257.196 272.292 253.664C270.005 252.767 267.653 251.741 264.656 250.34C263.315 249.713 261.98 249.089 260.645 248.465C259.311 247.841 257.97 247.214 256.623 246.584C251.988 244.342 247.193 242.447 242.27 240.912C239.521 240.11 236.84 239.108 234.246 237.912ZM234.499 99.198C235.383 99.6113 236.24 100.08 237.066 100.602C248.29 107.639 245.805 115.31 240.861 127.151C237.169 135.998 235.214 143.247 233.141 150.923C232.45 153.508 231.74 156.134 230.949 158.886C229.957 162.352 227.571 165.257 225.275 168.065C223.094 170.722 221.04 173.234 220.51 175.838C219.947 178.623 220.951 181.315 222.02 184.168C222.959 186.666 223.934 189.262 223.95 192.154C223.98 196.834 222.961 200.77 221.98 204.576C220.367 210.825 218.96 216.238 222.559 223.501C225.273 229.019 229.319 232.888 235.29 235.679C237.795 236.815 240.38 237.767 243.029 238.529C248.054 240.081 252.949 242 257.68 244.276C259.033 244.908 260.374 245.535 261.715 246.162C263.055 246.789 264.378 247.407 265.713 248.031C268.668 249.413 270.986 250.431 273.227 251.315C283.855 255.467 320.43 259.231 326.248 251.165C329.937 246.059 328.346 237.348 327.072 230.347C326.585 227.959 326.22 225.535 325.979 223.086C325.359 214.29 326.952 203.008 330.365 192.118C337.187 170.312 345.265 157.289 368.336 150.891C371.946 149.891 375.471 148.85 378.944 147.827C394.538 143.237 409.269 138.896 426.086 139.723C427.212 139.784 428.573 139.987 430.017 140.204C434.39 140.86 439.83 141.671 442.626 139.121C443.903 137.97 444.552 136.157 444.626 133.61C444.717 130.474 442.559 127.847 438.209 125.813C433.676 123.694 427.644 122.729 423.856 122.543C420.93 122.472 417.984 122.664 415.049 123.116C410.734 123.664 406.66 124.187 403.184 122.561C400.817 121.455 398.941 119.458 397.444 116.462C395.894 113.316 394.739 109.942 394.005 106.422C393.011 102.223 392.219 98.9034 387.947 94.4878C386.96 93.5171 385.866 92.6742 384.686 91.9745C382.697 90.6772 380.636 89.3458 379.459 85.854C378.591 83.2828 379.103 80.6053 379.602 78.0197C380.063 75.5957 380.503 73.3095 379.815 71.2391C378.849 68.4952 377.425 65.9905 375.608 63.8386C373.074 60.5294 370.681 57.4088 371.266 49.1355C371.429 47.3559 371.81 45.589 372.399 43.8804C373.166 41.4032 373.773 39.4401 372.607 36.5417L372.491 36.2508L374.22 21.8775C373.764 18.837 373.288 15.8854 372.824 12.9883C370.285 -2.71012 368.089 -16.2628 371.398 -32.9864C371.815 -35.0958 372.224 -37.1267 372.627 -39.0955C376.402 -57.7175 378.895 -70.0256 372.757 -88.7468C371.916 -91.5167 371.298 -94.3745 370.911 -97.2907C370.042 -102.722 369.295 -107.418 365.196 -110.07C361.794 -112.281 357.056 -112.601 352.008 -112.967C346.81 -113.33 341.396 -113.72 337.225 -116.234C334.148 -118.081 332.129 -120.594 330.356 -122.811C328.584 -125.029 327.054 -126.929 324.816 -127.976C323.03 -128.753 321.049 -129.006 319.067 -128.71C311.645 -127.858 301.397 -118.921 296.317 -113.117C292.792 -109.086 288.929 -105.948 285.174 -102.85C281.596 -99.9396 277.921 -96.9185 274.619 -93.2082C271.411 -89.4297 268.441 -85.4337 265.731 -81.2502C262.402 -76.3595 258.974 -71.3355 254.592 -66.9126C247.695 -59.9236 241.588 -51.7477 235.603 -43.8334C228.895 -34.9091 221.952 -25.7026 213.693 -17.7157C212.35 -16.4235 211.016 -15.1515 209.752 -13.8875C202.601 -6.91054 195.837 -0.349312 187.401 5.74058C181.323 10.1061 172.55 16.7739 166.586 24.281C157.032 36.3036 155.048 51.5708 153.118 66.3732C152.494 71.1394 151.853 76.0691 150.959 80.7497C150.74 81.9138 150.499 83.1411 150.242 84.4183C147.382 98.9005 143.055 120.794 155.147 126.447C158.019 127.666 161.166 128.145 164.347 127.847C174.25 127.223 184.388 119.771 194.217 112.584C207.4 102.904 221.006 92.8897 234.499 99.198Z" fill="#100F3D"/>
<path opacity="0.375" d="M277.363 227.412C275.075 226.318 272.944 224.918 271.016 223.244C267.683 220.379 264.138 217.904 260.71 215.509C248.302 206.832 236.574 198.645 243.044 175.996C244.512 170.832 247.264 166.227 249.922 161.775C253.069 156.513 256.03 151.557 256.977 145.814C257.593 141.637 257.823 137.436 257.664 133.274C257.593 127.734 257.53 122.491 259.874 115.579C265.867 97.9048 259.805 92.6687 254.697 90.2804C248.787 87.5176 240.074 87.1457 231.651 87.0075C223.424 86.8625 211.254 87.9387 204.049 91.4583C199.011 93.9158 195.312 98.364 191.397 103.07C187.646 107.567 183.777 112.222 178.591 115.059C173.681 117.765 169.703 118.43 166.766 117.057C156.209 112.122 163.216 82.6155 167.663 72.2337C170.467 65.6838 174.125 59.5988 177.667 53.7132C179.58 50.5222 181.543 47.2564 183.367 43.9253C188.84 33.9416 196.15 29.4085 203.887 24.5931C207.369 22.5049 210.759 20.2306 214.044 17.7797C224.605 9.64356 232.586 4.82795 245.73 -1.41463C256.405 -6.49036 262.369 -15.1988 263.442 -27.3134C263.771 -31.2373 263.595 -35.1496 262.918 -38.9402C262.105 -44.4437 261.46 -48.7897 266.744 -57.767C268.168 -60.1815 269.564 -62.7239 271.003 -65.2952C275.829 -74.037 280.799 -83.0874 287.822 -89.3641C289.96 -91.125 292.274 -92.612 294.712 -93.791C297.492 -95.2777 300.115 -96.6824 302.169 -98.9089C303.641 -100.476 304.601 -102.814 305.554 -105.073C306.601 -107.549 307.682 -110.116 309.447 -111.93C317.492 -120.172 322.978 -117.403 330.171 -113.37C331.641 -112.544 333.214 -111.67 334.903 -110.84C337.223 -109.698 339.496 -108.692 341.717 -107.719C343.292 -107.024 344.843 -106.34 346.341 -105.639C356.395 -100.939 365.504 -95.1363 366.552 -75.9184C367.274 -62.5972 366.032 -48.3802 364.858 -34.6872C364.166 -26.6762 363.45 -18.3908 363.134 -10.4409L363.062 -8.56269C362.67 1.3696 362.364 9.21812 363.177 19.1663C363.469 22.7018 362.857 26.7789 362.271 30.7211C361.441 36.3063 360.585 42.0752 362.324 46.042L362.449 46.3128L361.802 55.889C362.011 57.9922 362.39 60.0586 362.936 62.0655C363.721 65.3987 364.536 68.8436 364.182 72.0526C363.871 75.0494 362.92 77.9824 361.402 80.6236C360.008 83.2405 359.484 84.2208 363.155 88.5764C364.625 90.3179 366.314 90.9277 367.829 91.5786C368.272 91.7856 368.715 91.9927 369.158 92.1998C371.239 93.0584 372.979 94.5897 374.15 96.5927C375.326 98.6462 375.421 101.085 375.517 103.442C375.613 105.799 375.706 108.098 376.89 109.803C378.322 111.911 381.266 113.41 384.381 114.988C390.281 117.976 396.967 121.371 395.092 130.3C392.707 141.727 377.266 144.804 363.648 147.523C356.04 149.041 348.849 150.475 345.008 153.108C324.425 167.247 319.462 179.079 313.041 202.714C310.019 213.844 303.792 222.625 295.952 226.821C289.94 230.098 283.497 230.28 277.363 227.412ZM255.78 88.0903C264.965 92.3847 267.017 101.597 262.044 116.267C259.852 122.743 259.911 127.755 259.976 133.072C260.139 137.387 259.897 141.74 259.253 146.069C258.233 152.301 254.992 157.731 251.854 162.988C249.283 167.285 246.628 171.731 245.252 176.555C239.264 197.508 249.34 204.548 262.091 213.458C265.551 215.893 269.145 218.39 272.553 221.316C274.342 222.869 276.319 224.169 278.44 225.187C283.949 227.762 289.703 227.601 295.084 224.724C302.183 220.926 308.092 212.526 310.877 202.266C317.327 178.506 322.686 165.715 343.903 151.154C348.15 148.237 355.571 146.754 363.423 145.188C376.28 142.627 390.853 139.716 392.893 130.007C394.385 122.877 389 120.147 383.321 117.271C379.964 115.563 376.79 113.956 375.052 111.395C373.518 109.126 373.405 106.409 373.297 103.777C373.205 101.618 373.111 99.6044 372.237 98.011C370.929 95.7163 369.033 94.838 366.887 93.9247C365.148 93.1689 363.226 92.4417 361.455 90.3472C356.962 85.0277 357.74 82.8907 359.483 79.6202C360.838 77.2811 361.686 74.6779 361.958 72.0179C362.181 69.2463 361.474 66.0149 360.735 62.8506C360.143 60.6509 359.743 58.3828 359.541 56.0743L360.143 46.959C358.275 42.384 359.179 36.3684 360.03 30.5641C360.622 26.5923 361.176 22.8471 360.911 19.602C360.088 9.50194 360.394 1.58844 360.79 -8.43179L360.862 -10.31C361.182 -18.3316 361.892 -26.6361 362.591 -34.6768C363.786 -48.3029 364.983 -62.4098 364.278 -75.56C363.296 -93.5292 355.105 -98.7805 345.3 -103.364C343.814 -104.059 342.297 -104.768 340.712 -105.427C338.466 -106.412 336.163 -107.431 333.825 -108.582C332.087 -109.435 330.487 -110.33 328.987 -111.17C327.487 -112.01 326.094 -112.793 324.759 -113.417C320.117 -115.587 316.369 -115.762 310.957 -110.211C309.542 -108.764 308.608 -106.546 307.618 -104.19C306.574 -101.72 305.498 -99.1665 303.735 -97.2453C301.378 -94.6866 298.442 -93.1179 295.597 -91.6042C293.333 -90.513 291.181 -89.1398 289.191 -87.5151C282.495 -81.5592 277.64 -72.7082 272.941 -64.16C271.518 -61.5573 270.109 -58.9881 268.651 -56.5648C263.844 -48.4022 264.371 -44.8469 265.167 -39.4657C265.879 -35.4809 266.061 -31.3675 265.708 -27.2426C264.543 -14.1088 258.103 -4.65064 246.51 0.821524C233.538 7.01356 225.665 11.7569 215.286 19.7249C211.934 22.229 208.474 24.5524 204.919 26.6856C197.158 31.5059 190.454 35.6767 185.321 45.0432C183.47 48.4183 181.464 51.713 179.562 54.926C176.066 60.7273 172.461 66.7308 169.727 73.1169C165.324 83.4373 159.192 110.803 167.856 114.854C170.149 115.926 173.465 115.286 177.723 112.93C182.488 110.312 186.208 105.85 189.793 101.536C193.714 96.8324 197.778 91.9505 203.295 89.2593C210.865 85.5754 223.048 84.4237 231.926 84.5701C240.513 84.7525 249.476 85.1432 255.78 88.0903Z" fill="#100F3D"/>
<path opacity="0.25" d="M280.32 206.807C277.159 205.329 273.826 202.243 270.42 197.635C258.935 182.126 263.408 171.642 269.069 158.363C271.26 153.218 273.529 147.89 275.185 141.612C277.065 134.427 277.366 129.15 277.671 123.548C277.831 120.469 278.005 117.282 278.442 113.597C278.939 109.449 280.526 105.975 281.892 102.896C284.22 97.7417 286.056 93.6728 282.956 87.9668C279.51 81.706 274.292 76.8436 267.98 74.0121C243.948 62.7768 206.045 75.9435 190.682 94.3361C183.393 103.063 178.524 106.441 175.363 104.963C173.416 104.052 172.426 101.441 172.332 97.0087C172.2 89.9203 178.032 78.3312 181.893 70.6578L182.979 68.4935C186.929 60.5349 195.071 49.1273 201.81 43.886C205.963 40.6636 210.976 38.75 215.826 36.8993C219.484 35.5931 223.059 33.98 226.517 32.0758C230.408 29.9375 234.399 28.0435 238.469 26.404C244.368 23.8753 250.479 21.2738 254.812 17.7925C258.806 14.6101 263.153 10.1052 267.366 5.75864C270.259 2.73182 273.295 -0.375969 276.11 -2.96566C283.104 -9.3866 287.226 -18.4737 290.844 -27.2248C291.079 -27.7277 291.394 -28.512 291.802 -29.4324C293.225 -32.6487 295.869 -38.6359 296.016 -40.6588C296.252 -43.9475 295.117 -45.4259 293.685 -47.2966C292.394 -48.7889 291.432 -50.5774 290.861 -52.5472C288.971 -59.8284 291.019 -68.7006 296.555 -77.5684C303.487 -88.602 314.449 -97.0737 323.831 -98.6528C328.921 -99.5755 334.043 -98.9523 338.598 -96.8559C348.148 -92.3913 355.327 -80.8639 357.812 -66.0158C359.88 -53.6589 357.967 -39.7147 356.12 -26.2134C355.174 -19.302 354.275 -12.777 353.895 -6.49157C353.632 -2.3245 353.649 2.4633 353.662 7.54355C353.689 21.2916 353.73 36.8764 348.495 47.5517L344.03 59.6003C345.335 61.9017 344.874 66.0984 344.357 70.8898C343.931 74.9641 343.454 79.1456 344.2 81.79C344.591 83.0696 345.136 84.2794 345.821 85.3914C346.922 87.1126 347.636 89.1004 347.912 91.2143C348.185 93.5562 347.211 96.2551 346.266 98.8612C345.422 101.22 344.537 103.666 344.944 105.074C346.079 108.971 349.618 110.242 352.888 111.615C353.707 111.949 354.524 112.29 355.313 112.658C358.431 114.116 361.706 116.268 362.353 121.163C362.834 124.656 362.167 127.776 360.402 130.334C356.368 136.21 347.558 138.007 341.14 139.305L340.904 139.35C338.999 139.742 337.131 140.037 335.297 140.275C328.275 141.314 322.213 142.215 316.965 149.092C310.953 156.953 306.324 172.152 304.609 178.32C300.181 194.275 295.171 203.552 289.308 206.67C286.472 208.228 283.438 208.265 280.32 206.807ZM269.019 71.7438C275.732 74.7623 281.282 79.939 284.947 86.6017C288.647 93.3807 286.362 98.441 283.949 103.792C282.575 106.827 281.16 109.965 280.707 113.716C280.278 117.323 280.111 120.464 279.948 123.501C279.638 129.24 279.345 134.659 277.382 142.1C275.725 147.953 273.632 153.689 271.124 159.25C265.576 172.255 261.575 181.652 272.243 196.061C278.268 204.205 283.657 207.117 288.437 204.563C293.569 201.839 298.292 192.828 302.445 177.856C304.196 171.533 308.958 155.939 315.258 147.698C321.133 140.002 327.95 138.989 335.171 137.92C336.95 137.656 338.775 137.39 340.632 137.008L340.895 136.919C346.94 135.66 355.184 133.998 358.649 128.991C360.041 126.962 360.528 124.575 360.146 121.676C359.666 118.085 357.467 116.337 354.324 114.868C353.559 114.511 352.783 114.148 351.975 113.852C351.167 113.556 350.351 113.166 349.556 112.794C346.85 111.529 343.931 109.724 342.822 105.912C342.184 103.718 343.164 100.99 344.207 98.1108C345.041 95.7882 345.907 93.3822 345.74 91.6696C345.498 89.8737 344.879 88.1886 343.927 86.7369C343.149 85.4654 342.534 84.0797 342.099 82.6139C341.232 79.52 341.711 75.0785 342.183 70.7641C342.615 66.6765 343.134 62.0408 341.97 60.6877L341.521 60.1596L346.532 46.6585C351.542 36.4172 351.487 21.1938 351.472 7.70462C351.463 2.58516 351.453 -2.24855 351.707 -6.49299C352.091 -12.8501 353.003 -19.4507 353.954 -26.4175C355.779 -39.7162 357.662 -53.47 355.657 -65.4382C353.297 -79.5578 346.562 -90.4692 337.643 -94.6388C333.468 -96.558 328.774 -97.1257 324.109 -96.2756C315.364 -94.8077 305.079 -86.8038 298.535 -76.3646C293.38 -68.1525 291.469 -59.9843 293.172 -53.395C293.678 -51.7326 294.513 -50.2286 295.625 -48.9797C297.144 -46.9948 298.721 -44.9423 298.421 -40.7273C298.261 -38.4243 296.14 -33.4757 293.986 -28.5996C293.569 -27.7078 293.261 -26.9531 293.056 -26.4523C289.312 -17.4168 285.049 -8.02788 277.65 -1.23219C274.9 1.29791 272.041 4.25097 269.018 7.3807C264.74 11.7868 260.344 16.3503 256.226 19.6384C251.604 23.3276 245.358 25.9966 239.312 28.5873C235.331 30.1846 231.429 32.0359 227.626 34.1306C224.052 36.0861 220.356 37.7358 216.574 39.063C211.678 40.933 207.051 42.7004 203.197 45.6948C196.834 50.638 188.844 61.8633 185.107 69.3821L184.015 71.5598C180.501 78.5376 174.622 90.2273 174.75 96.6439C174.824 99.9473 175.445 102.1 176.537 102.611C177.629 103.121 180.873 102.587 189.146 92.6867C204.919 73.7339 244.149 60.1171 269.019 71.7438Z" fill="#100F3D"/>
<path opacity="0.125" d="M279.752 174.969C279.606 174.901 279.455 174.83 279.309 174.762L278.569 174.367L278.776 173.467C283.642 152.226 289.478 132.467 295.056 114.272C296.961 108.062 296.882 102.461 296.751 96.5084C296.717 93.4198 296.635 90.1949 296.873 86.76C296.981 84.9475 297.135 83.3852 297.265 81.9835C297.94 74.7983 298.12 72.864 290.949 67.0276C285.46 62.5578 280.799 59.4964 276.285 57.386C266.905 53.0009 257.886 52.7146 247.88 56.4691C245.942 57.1975 243.516 58.2447 240.709 59.4572C228.975 64.5201 211.249 72.1667 202.033 67.8581C201.262 67.5011 200.538 67.0479 199.877 66.5071L198.917 65.7149L199.829 64.7117C202.743 61.4984 206.424 60.4411 209.998 59.4072C212.084 58.8789 214.132 58.1336 216.11 57.1823C219.231 55.5362 222.008 53.2965 224.951 50.9221C227.895 48.5478 231.057 45.9898 234.54 44.2024C236.794 43.05 239.614 42.4891 242.318 42.0044C245.517 41.392 248.817 40.7532 250.988 39.1454C253.443 37.3106 255.361 34.2036 257.395 30.9136C259.251 27.9082 261.169 24.8012 263.658 22.4024C265.549 20.5733 267.475 18.745 269.408 16.9195C282.393 4.58058 295.822 -8.18778 303.501 -25.2946C304.964 -28.5656 306.23 -33.4726 307.543 -38.6847C311.606 -54.4593 316.659 -74.0931 332.316 -71.9212C333.931 -71.7011 335.494 -71.2454 336.961 -70.5665C348.489 -65.1772 345.59 -47.5268 343.259 -33.3043C342.437 -28.2877 341.654 -23.5466 341.727 -20.3015C341.867 -16.8008 342.263 -13.3378 342.91 -9.94324C343.614 -5.7084 344.337 -1.32553 343.974 4.06912C343.577 9.97904 342.913 15.5759 342.213 21.4998C341.967 23.6073 341.712 25.7349 341.441 27.8961L341.702 28.0181L342.199 28.2507C342.749 28.4591 343.27 28.7355 343.751 29.0743L344.537 29.6705L334.62 48.0844L333.714 50.0223C328.77 60.5968 323.132 72.5624 322.738 83.1799C322.578 87.4277 324.607 93.0826 326.571 98.5602C329.272 106.082 332.059 113.864 329.823 119.421C328.006 123.924 323.949 125.296 320.37 126.515C318.244 127.237 316.239 127.918 314.833 129.139C311.168 132.329 309.251 136.539 307.043 141.39C306.673 142.181 306.294 142.993 305.905 143.824C305.385 144.937 304.765 146.388 304.049 148.063C300.259 156.914 293.948 171.662 286.25 175.065C285.184 175.526 284.057 175.756 282.94 175.739C281.822 175.723 280.737 175.46 279.752 174.969ZM277.329 55.1369C282.001 57.321 286.792 60.4678 292.417 65.0419C300.503 71.625 300.242 74.4608 299.528 82.0285C299.395 83.4043 299.257 84.9494 299.134 86.7467C298.919 90.0696 298.98 93.2116 299.034 96.2761C299.119 102.42 299.251 108.242 297.219 114.866C291.742 132.733 286.014 152.117 281.175 172.905C282.562 173.466 284.142 173.407 285.577 172.741C292.367 169.746 298.429 155.576 302.053 147.114C302.782 145.412 303.414 143.934 303.947 142.794C304.329 141.976 304.705 141.172 305.072 140.387C307.409 135.245 309.433 130.806 313.554 127.193C315.334 125.648 317.663 124.857 319.915 124.088C323.28 122.948 326.46 121.869 327.814 118.499C329.681 113.872 327.051 106.547 324.512 99.4689C322.374 93.5096 320.357 87.8928 320.538 83.1566C320.954 72.0343 326.688 59.7701 331.774 48.9847L332.715 46.973L341.558 30.5408L341.327 30.433C340.695 30.1946 340.105 29.8608 339.573 29.4413L339.132 29.0555L339.204 28.4272C339.469 25.9937 339.749 23.6242 340.028 21.2871C340.727 15.3958 341.382 9.83527 341.781 3.98363C342.119 -1.10412 341.45 -5.15946 340.737 -9.43917C340.075 -12.9574 339.674 -16.546 339.537 -20.1729C339.465 -23.655 340.221 -28.2938 341.097 -33.6614C343.284 -47.0527 346.015 -63.7275 335.992 -68.4133C334.703 -68.9975 333.332 -69.3854 331.917 -69.5664C318.35 -71.4477 313.611 -53.0559 309.811 -38.2699C308.436 -32.9562 307.147 -27.9372 305.575 -24.464C297.673 -6.86489 284.055 6.08503 270.882 18.6055C268.952 20.4266 267.037 22.2551 265.139 24.0913C262.865 26.2969 261.041 29.2515 259.275 32.1111C257.104 35.6312 255.052 38.9453 252.212 41.0659C249.607 43.018 246.019 43.7022 242.545 44.3494C239.875 44.8579 237.348 45.3437 235.395 46.3426C232.14 48.0075 229.135 50.4347 226.234 52.7802C223.334 55.1256 220.31 57.5443 216.99 59.3013C214.869 60.3355 212.671 61.1423 210.43 61.7092C207.515 62.5524 204.737 63.3538 202.471 65.2603C210.536 69.8968 228.369 62.2105 240.023 57.1757C242.861 55.9611 245.309 54.8995 247.299 54.1545C257.86 50.1937 267.434 50.5106 277.329 55.1369Z" fill="#100F3D"/>
</svg>
