<svg width="1138" height="1556" viewBox="0 0 1138 1556" fill="none" xmlns="http://www.w3.org/2000/svg">
<path d="M-376.272 1248.07C-381.091 1246.87 -385.932 1245.59 -390.765 1244.19C-393.659 1243.35 -397.437 1242.35 -401.784 1241.19C-423.422 1235.43 -455.963 1226.79 -465.865 1216.68C-474.061 1208.31 -476.165 1193.4 -478.206 1179C-479.444 1170.23 -480.615 1161.95 -483.056 1155.82C-484.617 1151.89 -485.965 1147.95 -487.298 1144.03C-492.727 1128.33 -497.85 1113.5 -515.388 1103.31C-521.165 1100.29 -527.356 1097.85 -533.782 1096.06C-541.182 1093.68 -548.831 1091.21 -555.558 1087.06C-559.373 1084.4 -562.532 1081.25 -564.835 1077.8C-567.692 1074.03 -570.687 1070.21 -575.843 1067.25C-583.36 1063.05 -591.488 1059.62 -599.971 1057.08C-612.435 1052.97 -624.202 1049.09 -636.155 1033.9C-647.124 1019.98 -652.715 1003.41 -657.616 988.786C-658.809 985.147 -660.027 981.609 -661.277 978.2C-662.527 974.792 -663.762 971.326 -664.851 968.111C-670.731 950.932 -675.771 936.109 -691.785 920.888C-696.203 916.723 -700.473 912.809 -704.618 909.064C-717.156 897.744 -729.011 887.053 -738.896 871.639C-767.6 826.811 -767.361 762.406 -766.6 743.734C-766.218 734.521 -764.648 725.251 -763.129 716.275C-761.204 704.9 -759.228 693.155 -759.672 681.528C-759.913 675.074 -760.751 668.993 -761.602 663.138C-763.551 649.466 -765.377 636.561 -758.908 621.93C-748.411 598.18 -720.56 591.517 -693.646 585.082C-674.861 580.551 -655.445 575.932 -641.135 565.612C-603.804 538.534 -580.782 508.943 -558.526 478.471L-557.057 476.444C-534.733 445.697 -509.302 410.893 -510.388 371.812C-510.905 354.739 -526.738 339.379 -542.049 324.533C-559.269 307.831 -577.027 290.598 -573.252 270.773C-582.734 266.224 -595.174 262.104 -607.246 258.106C-629.859 250.614 -649.389 244.134 -650.806 234.903C-651.861 228.093 -642.867 222.033 -621.64 215.272C-597.567 207.609 -574.837 195.733 -552.994 184.218C-536.376 175.499 -519.238 166.542 -501.16 159.121C-492.314 155.508 -482.862 151.402 -473.006 147.105C-440.352 132.85 -403.347 116.702 -370.262 111.678C-320.407 103.983 -268.779 100.601 -216.288 101.59C-200.631 102.076 -184.81 104.35 -169.35 108.336C-159.887 110.681 -150.567 113.547 -141.469 116.907C-122.397 123.964 -113.693 131.725 -103.732 140.672C-98.52 145.48 -92.9499 150.072 -87.0568 154.416L-85.2791 155.702L-86.0079 157.284C-88.8696 162.96 -92.39 168.373 -96.5325 173.467C-101.35 179.257 -105.243 185.523 -108.142 192.157L-116.599 212.427C-111.867 225.027 -99.4323 240.984 -82.7236 246.916C-69.0783 251.841 -58.6424 249.345 -47.4469 246.746C-39.0471 244.847 -30.3386 242.887 -20.1034 243.898C-16.8151 244.238 -13.5304 244.808 -10.292 245.601C23.2867 253.948 26.8948 283.642 30.0716 309.841C31.4623 321.12 32.7398 331.757 36.1809 340.019C39.2507 347.862 41.8092 355.761 43.8465 363.684C46.7365 374.078 49.4596 383.879 54.3426 392.837C62.0182 407.012 81.0583 420.777 97.8502 432.956C103.072 436.753 108.086 440.376 112.51 443.838C118.479 448.511 125.355 453.165 132.001 457.73C145.347 466.813 159.16 476.212 168.07 486.938C171.802 491.799 174.559 496.973 176.236 502.262C178.239 507.452 180.029 512.314 184.273 517.095C187.981 521.329 193.411 524.12 199.136 527.077C204.861 530.033 210.269 532.911 214.919 537.241C231.052 552.66 244.751 581.244 246.979 597.255C247.502 603.089 247.301 608.866 246.381 614.511C244.918 626.89 243.415 639.688 255.904 649.939C262.882 655.614 274.145 659.073 286.255 662.835C299.555 666.954 314.648 671.626 326.3 680.181L332.203 684.531C354.644 701.15 365.718 709.163 396.319 714.639C447.981 724.07 498.935 737.766 548.227 755.468C596.476 773.136 629.611 796.431 662.629 835.89C681.481 858.425 689.851 863.818 717.398 877.106C736.603 886.327 749.105 896.106 762.343 906.466C766.608 909.811 771.142 913.253 775.865 916.865C782.233 921.622 789.098 925.982 795.629 930.166C810.3 939.487 825.481 949.118 835.141 962.99C839.12 968.87 842.427 974.938 845.022 981.117C850.646 993.587 853.666 1000.26 877.862 1005.43C886.916 1007.24 896.043 1008.48 905.147 1009.14C914.036 1009.73 922.959 1011.02 931.767 1013C942.854 1015.79 953.213 1020.64 961.823 1027.08C976.063 1037.29 982.676 1045.79 982.971 1053.88C983.251 1061.7 977.468 1068.68 964.804 1075.83C929.086 1096.09 876.343 1101.13 829.828 1105.6C823.77 1106.18 817.861 1106.75 812.156 1107.34C802.898 1108.3 793.449 1109.52 783.437 1110.82C745.381 1115.76 702.246 1121.31 662.109 1111.33C659.917 1110.79 657.704 1110.24 655.524 1109.56C638.737 1104.62 621.61 1097.75 605.073 1091.13C584.439 1082.93 563.112 1074.32 541.384 1068.91C527.728 1065.44 513.754 1063.52 499.954 1063.22C491.128 1063.03 484.263 1063.23 478.203 1063.39C468.406 1063.65 461.324 1063.8 454.194 1062.02C444.634 1059.65 435.691 1054.11 418.786 1040.11C401.881 1026.11 388.67 1020.95 373.698 1017.23C364.987 1015.07 355.235 1013.38 343.948 1011.37L340.71 1010.81C314.774 1006.31 295.203 1005.98 270.424 1005.61L265.622 1005.52C258.265 1005.19 250.875 1004.55 243.489 1003.6C223.77 1001.43 196.785 998.448 187.576 1004.87C177.438 1011.9 169.104 1047.7 170.06 1060.23C171.351 1076.8 179.481 1094.12 194.192 1111.72C220.052 1142.68 250.905 1156.26 286.654 1172.07C297.995 1177.07 309.651 1182.24 321.797 1188.22C344.215 1199.28 386.049 1219.89 383.932 1244.27C381.815 1268.64 335.749 1278.72 311.065 1284.29L309.401 1284.65C273.651 1292.64 234.775 1292.26 197.164 1291.87C171.916 1291.6 145.781 1291.36 120.914 1293.62C94.9815 1296.02 68.5895 1296.56 43.0774 1297.1C10.0201 1297.79 -24.1558 1298.51 -56.5394 1303.33C-96.8452 1309.3 -133.636 1302.32 -164.292 1294.7C-179.738 1290.86 -195.014 1286.41 -211.194 1281.73L-223.911 1278.05C-251.787 1270.05 -279.844 1265.56 -307.014 1261.21C-329.685 1257.58 -353.102 1253.83 -376.272 1248.07ZM-170.549 113.159C-185.333 109.341 -200.464 107.162 -215.439 106.693C-267.475 105.716 -318.655 109.077 -368.074 116.714C-400.224 121.603 -436.805 137.565 -469.046 151.678C-478.906 155.989 -488.408 160.129 -497.218 163.766C-514.982 171.019 -532.034 179.968 -548.535 188.639C-570.674 200.248 -593.566 212.269 -618.161 220.093C-641.533 227.548 -644.369 232.715 -644.026 235.132C-643.112 240.986 -622.977 247.648 -605.228 253.532C-591.917 257.945 -578.099 262.515 -567.832 267.781L-565.657 268.905L-566.106 270.71C-570.778 288.915 -554.302 304.895 -536.865 321.819C-520.759 337.431 -504.118 353.59 -503.551 372.484C-502.328 412.872 -528.15 448.239 -550.946 479.45L-552.411 481.463C-574.865 512.223 -598.162 542.16 -636.071 569.539C-651.383 580.514 -671.325 585.31 -690.728 589.963C-717.493 596.389 -742.821 602.437 -752.439 624.167C-758.478 637.831 -756.804 649.656 -754.858 663.342C-753.995 669.322 -753.137 675.486 -752.863 682.147C-752.429 694.154 -754.432 706.093 -756.381 717.645C-757.884 726.472 -759.436 735.67 -759.8 744.642C-761.832 793.651 -751.775 840.513 -732.862 869.979C-723.398 884.722 -712.401 894.647 -699.675 906.138C-695.478 909.926 -691.105 913.85 -686.686 918.092C-669.741 934.295 -664.385 949.703 -658.29 967.534C-657.153 970.807 -656.014 974.157 -654.755 977.613C-653.496 981.07 -652.305 984.632 -651.12 988.3C-646.274 1002.55 -640.906 1018.67 -630.467 1031.77C-619.81 1045.26 -610.176 1048.44 -597.986 1052.46C-588.916 1055.2 -580.228 1058.87 -572.194 1063.37C-565.737 1067.09 -562.185 1071.7 -559.06 1075.83C-557.227 1078.63 -554.728 1081.19 -551.708 1083.38C-545.89 1086.97 -539.076 1089.17 -531.87 1091.49C-525.035 1093.69 -517.964 1095.96 -511.769 1099.55C-491.973 1111.04 -486.526 1126.83 -480.762 1143.56C-479.444 1147.36 -478.124 1151.25 -476.568 1155.12C-474.011 1161.7 -472.759 1170.25 -471.479 1179.28C-469.623 1192.31 -467.543 1207.06 -460.649 1214.17C-452.291 1222.73 -419.774 1231.38 -400.397 1236.54C-395.971 1237.72 -392.114 1238.74 -389.179 1239.59C-361.627 1247.54 -333.672 1252.02 -306.562 1256.35C-279.131 1260.75 -250.744 1265.26 -222.365 1273.44L-209.609 1277.13C-193.527 1281.78 -178.311 1286.21 -163.062 1290C-133.256 1297.41 -97.5494 1304.2 -58.6999 1298.43C-25.8189 1293.56 8.62812 1292.84 41.9206 1292.13C67.2244 1291.59 93.5338 1291.04 119.204 1288.68C144.49 1286.35 170.826 1286.63 196.302 1286.9C233.43 1287.3 271.815 1287.7 306.686 1279.89L308.373 1279.51C331.827 1274.25 375.509 1264.49 377.344 1243.35C379.179 1222.22 339.891 1202.84 318.926 1192.43C306.951 1186.52 295.347 1181.4 284.124 1176.43C247.428 1160.21 215.759 1146.2 188.842 1114.01C173.416 1095.58 164.872 1077.38 163.535 1059.81C162.611 1048.01 170.467 1009.57 182.81 1000.92C193.998 993.124 221.514 996.161 243.64 998.61C250.743 999.514 257.849 1000.13 264.927 1000.47L269.752 1000.55C294.819 1000.95 314.779 1001.31 341.401 1005.92L344.638 1006.48C356.122 1008.46 366.016 1010.17 375.062 1012.42C394.182 1017.17 408.225 1024.3 423.488 1036.97C450.723 1059.53 454.96 1058.85 477.07 1058.25C482.938 1058.1 490.203 1057.89 499.24 1058.07C513.722 1058.44 528.374 1060.5 542.687 1064.18C565.126 1069.76 586.737 1078.41 607.642 1086.78C624.809 1093.66 640.905 1100.11 657.262 1104.93C697.383 1116.74 742.217 1110.94 781.55 1105.85C791.625 1104.55 801.061 1103.29 810.491 1102.31C816.219 1101.71 822.148 1101.14 828.203 1100.58C874.009 1096.18 925.954 1091.14 960.5 1071.64C971.586 1065.34 976.658 1059.54 976.442 1053.32C976.226 1047.1 970.109 1039.48 957.769 1030.57C950.007 1024.75 940.657 1020.36 930.647 1017.84C922.288 1015.99 913.826 1014.78 905.395 1014.22C895.921 1013.51 886.425 1012.2 877.006 1010.31C848.726 1004.18 844.392 994.532 838.764 982.077C836.301 976.191 833.161 970.412 829.382 964.809C820.47 951.982 806.576 943.161 791.869 933.816C785.112 929.53 778.119 925.093 771.524 920.156C766.639 916.519 762.159 913.029 757.838 909.655C744.412 899.125 732.806 890.045 714.423 881.228C685.996 867.598 676.646 861.593 657.018 838.129C624.909 799.74 592.724 777.095 545.986 759.925C497.211 742.39 446.786 728.826 395.659 719.489C362.948 713.642 350.442 704.553 327.802 687.807L321.939 683.467C311.441 675.751 297.65 671.495 284.465 667.42C271.611 663.442 259.462 659.671 251.315 653.045C236.458 640.842 238.194 626.184 239.706 613.265C240.606 607.973 240.843 602.555 240.416 597.08C238.301 581.88 224.844 554.261 209.997 540.081C206.204 536.44 201.279 533.896 196.052 531.217C189.917 528.051 183.561 524.769 178.953 519.514C174.043 513.954 171.981 508.412 169.919 503.038C168.417 498.275 165.96 493.612 162.637 489.221C154.341 479.231 140.978 470.128 128.044 461.331C121.283 456.722 114.307 451.967 108.115 447.177C103.778 443.783 98.8401 440.194 93.7025 436.479C76.3073 423.859 56.6225 409.566 48.2681 394.24C43.1264 384.804 40.1861 374.275 37.368 364.098C35.388 356.353 32.8899 348.633 29.8837 340.969C26.1894 332.122 24.8777 321.2 23.4726 309.642C20.3731 284.061 17.1747 257.611 -11.4067 250.506C-14.2274 249.817 -17.0883 249.322 -19.9522 249.026C-28.7437 248.113 -36.4 249.89 -44.5017 251.771C-56.2556 254.508 -68.5607 257.352 -84.6446 251.606C-104.138 244.644 -118.036 226.898 -123.142 212.426L-123.399 211.687L-114.43 190.118C-111.433 183.15 -107.385 176.567 -102.356 170.486C-98.7939 166.056 -95.6683 161.403 -93.0001 156.558C-98.4283 152.447 -103.589 148.138 -108.458 143.653C-117.866 135.18 -126.008 127.943 -143.543 121.452C-152.359 118.208 -161.386 115.436 -170.549 113.159Z" fill="#100F3D"/>
<path opacity="0.84" d="M-282.739 1214.94C-296.269 1211.58 -306.691 1205.92 -317.765 1200.1C-328.839 1194.28 -339.748 1188.3 -354.954 1183.83C-358.628 1182.75 -361.96 1181.81 -364.954 1180.95C-393.334 1172.86 -395.767 1171.6 -407.971 1143.83C-410.291 1138.65 -412.38 1133.64 -414.397 1128.85C-422.13 1110.52 -428.808 1094.69 -441.926 1076.17C-443.787 1073.53 -445.678 1070.76 -447.61 1067.9C-459.041 1051.03 -471.988 1031.91 -494.136 1023.64C-502.691 1020.43 -512.605 1019.05 -521.721 1017.85C-528.204 1017.15 -534.68 1016.05 -541.082 1014.57C-552.133 1011.83 -562.324 1006.71 -570.319 999.892C-584.069 988.638 -588.189 977.37 -592.548 965.461C-594.851 958.434 -597.998 951.49 -601.948 944.723C-612.251 928.039 -629.125 916.699 -646.989 904.698C-653.174 900.554 -659.57 896.25 -665.753 891.677C-711.709 857.696 -707.102 822.882 -702.214 786.007C-701.444 780.295 -700.685 774.457 -699.971 768.547C-698.977 758.98 -696.775 749.024 -694.675 739.395C-691.519 725.182 -688.285 710.484 -688.753 696.505C-689.044 690.893 -689.791 685.248 -690.989 679.603C-693.589 665.677 -695.845 653.662 -681.3 637.926C-670.003 625.722 -652.235 614.314 -636.56 604.241C-632.915 601.897 -629.347 599.609 -625.986 597.393C-601.163 580.977 -593.164 573.182 -578.336 551.076C-572.4 542.216 -563.399 535.115 -554.664 528.24C-544.803 520.463 -534.626 512.428 -529.258 501.97C-518.976 482.123 -509.715 459.63 -503.632 444.443C-501.038 437.973 -497.957 431.317 -494.958 424.901C-482.186 397.485 -468.969 369.121 -486.663 339.651C-488.396 336.751 -490.129 334.189 -491.755 331.699C-496.476 324.622 -500.538 318.521 -501.706 310.058C-502.167 305.981 -501.657 301.983 -500.199 298.257C-498.797 293.883 -497.798 290.711 -501.834 285.43C-507.508 278.054 -521.933 272.552 -535.898 267.225C-546.34 263.249 -556.184 259.483 -562.654 254.885C-576.07 245.324 -582.373 236.933 -581.941 229.205C-581.19 216.143 -560.763 208.217 -541.034 200.563C-532.254 197.384 -523.84 193.744 -515.842 189.667C-512.946 188.056 -508.441 185.204 -502.7 181.601C-466.447 158.688 -425.857 134.782 -403.182 140.419C-401.263 140.886 -399.423 141.608 -397.755 142.55L-349.417 127.042L-348.63 127.084C-329.318 128.281 -310.547 127.35 -292.355 126.306C-265.847 124.876 -238.448 123.407 -208.297 128.586C-202.165 129.651 -196.419 130.834 -191.224 132.125C-131.651 146.934 -134.667 178.386 -138.198 214.863C-138.591 219.059 -139.179 222.777 -139.698 226.129C-142.2 242.267 -143.108 248.282 -116.992 258.976C-113.494 260.391 -109.874 261.563 -106.18 262.476C-97.173 264.715 -88.3403 265.378 -79.0335 266.158C-67.5559 267.064 -55.6059 268.01 -43.4294 272.095C-11.8095 282.67 0.421423 316.148 11.2209 345.683C14.971 355.908 18.5073 365.558 22.5894 373.688C40.2576 408.748 71.2578 438.015 101.252 466.264C131.584 494.843 162.953 524.4 181.16 560.33C186.294 570.47 187.717 581.113 189.074 591.432C190.224 600.137 191.427 609.13 194.881 617.763C197.004 623.06 198.775 629.603 200.7 636.538C204.286 649.788 208.352 664.815 215.634 673.065C222.444 680.769 233.956 684.827 246.141 689.129C258.327 693.431 271.455 698.074 280.667 706.912C284.461 710.699 286.717 715.141 287.102 719.583C288.066 724.73 288.708 728.14 301.363 732.068C302.035 732.235 302.647 732.387 303.339 732.559C309.975 734.209 313.606 732.765 318.214 730.936C322.668 728.773 328.019 727.693 333.67 727.816C338.21 728.027 342.783 728.7 347.266 729.816C356.708 732.163 364.834 736.177 372.677 740.059C380.521 743.94 387.919 747.589 396.551 749.735C400.251 750.662 404.022 751.249 407.777 751.483C413.807 751.862 418.472 750.645 423.541 749.406C430.26 747.687 437.257 745.946 447.616 747.724C456.643 749.293 479.884 759.318 487.209 762.841C503.864 770.845 517.476 779.872 531.877 789.432C540.701 795.276 549.888 801.347 559.869 807.263C576.953 817.337 585.867 827.71 595.302 838.689C599.87 844.179 604.787 849.521 610.031 854.695C632.459 876.263 662.535 893.722 691.616 910.628C711.778 922.325 730.763 933.362 747.42 945.661C758.941 954.153 766.2 963.593 773.204 972.71C779.64 981.073 785.715 988.946 794.728 995.803C800.408 999.829 806.531 1003.46 813.004 1006.65C830.516 1015.85 850.369 1026.26 840.125 1045.7C823.692 1076.96 705.303 1067.08 681.735 1064.78C670.288 1063.67 657.975 1062.66 645.234 1061.61C604.388 1058.28 558.12 1054.49 521.119 1045.4C502.493 1040.77 494.182 1033.2 486.124 1025.87C479.764 1020.08 473.744 1014.59 462.715 1010.36C450.889 1005.8 431.789 1003.58 413.777 1001.71C399.466 1000.22 384.804 998.709 372.42 995.631C317.114 981.882 266.712 975.993 213.456 977.03C164.439 977.971 138.718 1020.36 142.153 1060.79C143.602 1077.74 158.738 1109.99 168.516 1124.74C172.98 1130.97 178.037 1137 183.642 1142.77C194.523 1154.6 206.842 1167.98 209.996 1182.63C211.158 1187.24 211.006 1191.84 209.55 1196.1C208.094 1200.37 205.37 1204.21 201.568 1207.34C175.74 1228.81 101.252 1223.97 65.445 1221.63L64.5759 1221.59C54.1128 1220.9 44.9946 1219.79 36.9178 1218.87C17.2376 1216.53 1.6892 1214.71 -21.3267 1219.72C-60.7523 1228.23 -98.0089 1236.28 -144.741 1225.92C-181.18 1217.86 -205.049 1217.95 -238.065 1218.06C-243.712 1218.08 -249.611 1218.1 -255.813 1218.08C-264.735 1218.16 -273.834 1217.1 -282.739 1214.94ZM-501.337 1016.17C-498.134 1016.95 -494.98 1017.92 -491.907 1019.06C-467.322 1028.24 -453.719 1048.35 -441.703 1066.07C-439.783 1068.9 -437.921 1071.62 -436.1 1074.25C-422.62 1093.25 -415.855 1109.32 -408.001 1127.92C-405.977 1132.69 -403.894 1137.64 -401.6 1142.84C-390.305 1168.53 -389.831 1168.64 -363.444 1176.14C-360.411 1177.02 -357.059 1177.96 -353.369 1179.06C-337.242 1183.79 -325.66 1190.01 -314.444 1196.02C-303.923 1201.7 -293.964 1207.03 -281.539 1210.12C-273.393 1212.07 -265.075 1213.04 -256.914 1212.97C-250.629 1213 -244.839 1212.91 -239.226 1212.94C-206.877 1212.82 -181.324 1212.7 -143.874 1221C-99.049 1230.93 -64.3207 1223.43 -24.1175 1214.75C0.252215 1209.52 16.3681 1211.43 36.9227 1213.87C45.2562 1214.85 53.8735 1215.87 64.1122 1216.53L64.9777 1216.6C99.8165 1218.86 172.299 1223.58 196.258 1203.64C199.493 1201 201.803 1197.76 203.025 1194.14C204.246 1190.53 204.348 1186.63 203.322 1182.73C200.354 1169.36 189.174 1157.14 178.274 1145.3C172.448 1139.29 167.194 1133.01 162.56 1126.51C152.249 1110.95 136.942 1078.29 135.412 1060.4C131.669 1017.67 159.551 972.999 212.238 971.974C265.429 970.814 319.902 977.153 372.98 990.679C385.364 993.758 399.778 995.255 413.699 996.707C432.325 998.639 452.072 1000.96 464.995 1005.92C477.574 1010.75 484.432 1016.99 491.069 1023.02C498.714 1029.99 505.933 1036.55 522.11 1040.57C558.657 1049.55 604.535 1053.3 645.01 1056.6C657.835 1057.66 670.191 1058.66 681.677 1059.78C732.398 1064.72 821.531 1066.84 833.903 1043.31C842.12 1027.72 827.15 1019.86 809.841 1010.77C802.91 1007.37 796.357 1003.48 790.286 999.161C780.573 991.747 773.946 983.138 767.542 974.814C760.806 966.056 753.847 957.011 743.125 949.102C726.823 937.06 708.003 926.125 688.079 914.563C658.576 897.415 628.078 879.713 605.011 857.51C599.609 852.195 594.547 846.704 589.848 841.059C580.804 830.531 572.265 820.587 556.28 811.155C546.017 805.107 536.818 799.002 527.925 793.096C513.755 783.701 500.375 774.839 484.264 767.093C476.006 763.107 454.727 754.046 447.062 752.738C438.539 751.248 432.675 752.735 426.479 754.292C420.856 756.037 414.643 756.821 408.226 756.593C403.925 756.328 399.604 755.656 395.364 754.592C385.765 752.206 377.564 748.158 369.645 744.242C361.726 740.326 354.55 736.794 346.076 734.688C342.175 733.71 338.194 733.122 334.241 732.942C329.079 732.701 325.572 734.068 321.934 735.541C317.02 737.509 311.436 739.724 302.093 737.402C301.323 737.21 300.533 737.014 299.701 736.73C282.741 731.472 281.607 725.148 280.506 719.538C279.899 716.244 279.335 713.113 275.7 709.68C267.69 701.999 255.714 697.78 244.028 693.664C231.36 689.196 218.271 684.562 210.183 675.421C202.094 666.28 197.8 650.568 194.093 636.797C192.237 630.002 190.486 623.633 188.482 618.534C184.82 609.389 183.601 600.116 182.41 591.156C181.028 580.769 179.711 570.965 174.927 561.526C157.18 526.446 126.218 497.281 96.2715 469.089C65.8873 440.467 34.4848 410.794 16.3605 374.869C12.1508 366.493 8.56423 356.707 4.78362 346.352C-5.56147 318.111 -17.259 286.114 -45.3324 276.713C-56.5105 272.999 -67.2645 272.135 -78.7422 271.229C-88.2936 270.728 -97.8998 269.41 -107.379 267.3C-111.507 266.289 -115.551 264.975 -119.45 263.379C-150.411 250.745 -148.961 241.537 -146.355 224.811C-145.85 221.517 -145.28 217.871 -144.889 213.767C-140.958 173.235 -141.229 149.69 -192.407 136.968C-197.384 135.731 -202.91 134.587 -208.801 133.567C-237.966 128.556 -264.875 129.994 -290.893 131.393C-309.067 132.365 -327.836 133.372 -347.391 132.222L-398.259 148.543L-400.026 147.214C-401.285 146.311 -402.794 145.649 -404.395 145.3C-425.55 140.042 -474.474 170.815 -498.01 185.681C-503.804 189.331 -508.379 192.212 -511.399 193.899C-519.606 198.145 -528.254 201.932 -537.288 205.236C-555.624 212.347 -574.59 219.715 -575.213 230.233C-575.582 236.275 -570.044 243.188 -558.468 251.463C-552.893 255.44 -543.564 259.001 -533.641 262.787C-518.626 268.528 -502.989 274.47 -496.178 283.432C-490.636 290.667 -492.172 295.499 -493.673 300.186C-494.953 303.385 -495.424 306.821 -495.062 310.329C-494.02 317.78 -490.414 323.185 -485.863 330.02C-484.182 332.539 -482.415 335.217 -480.618 338.194C-461.757 369.64 -475.416 398.938 -488.603 427.263C-491.572 433.64 -494.658 440.233 -497.204 446.593C-503.304 461.852 -512.614 484.456 -522.972 504.438C-528.781 515.659 -539.368 523.992 -549.575 532.066C-558.425 539.066 -566.763 545.611 -572.327 553.904C-587.538 576.62 -595.772 584.602 -621.249 601.454C-624.613 603.684 -628.185 605.986 -631.873 608.335C-647.311 618.298 -664.774 629.491 -675.712 641.262C-688.955 655.559 -686.959 666.175 -684.45 679.619C-683.178 685.468 -682.39 691.318 -682.093 697.133C-681.499 711.618 -684.886 726.509 -688.076 740.943C-690.194 750.476 -692.351 760.336 -693.311 769.681C-693.937 775.66 -694.721 781.598 -695.464 787.286C-700.471 824.301 -704.613 856.316 -661.39 888.299C-655.347 892.761 -649.039 896.997 -642.93 901.107C-624.4 913.549 -606.895 925.307 -595.87 943.137C-591.74 950.205 -588.444 957.457 -586.028 964.797C-581.937 976.011 -578.065 986.588 -565.656 996.742C-558.603 1002.79 -549.597 1007.33 -539.823 1009.76C-533.772 1011.14 -527.653 1012.15 -521.529 1012.77C-514.769 1013.49 -508.016 1014.63 -501.337 1016.17Z" fill="#100F3D"/>
<path opacity="0.7" d="M-267.105 1191.12C-274.058 1189.39 -281.27 1187.35 -288.653 1184.99C-327.759 1172.56 -330.959 1170.75 -357.088 1146.27C-379.802 1125.01 -385.278 1117.09 -398.817 1092.5C-401.983 1086.76 -405.359 1079.76 -409.256 1071.64C-423.719 1041.66 -443.519 1000.58 -471.367 986.216C-476.933 983.299 -484.191 982.629 -491.774 982.17C-499.357 981.711 -508.034 980.842 -514.821 977.606C-519.826 975.212 -523.249 971.095 -526.558 967.113C-529.238 963.887 -531.755 960.853 -534.803 959.022C-540.897 955.361 -546.443 952.188 -551.637 949.21C-568.715 939.444 -582.213 931.734 -598.727 915.653C-617.419 897.451 -627.712 883.514 -641.241 862.593C-658.023 836.54 -661.967 827.095 -658.907 801.036C-656.851 783.315 -657.346 764.131 -657.827 745.564L-658.033 737.448C-658.35 721.85 -653.305 711.681 -647.928 700.934C-644.739 694.961 -642.076 688.786 -639.955 682.445C-638.05 676.075 -636.676 669.565 -635.843 662.95C-634.151 651.502 -632.914 643.238 -619.761 630.146C-612.15 622.561 -603.932 614.898 -595.963 607.479C-587.284 599.393 -578.301 591.015 -570.263 582.892C-539.913 551.657 -512.988 518.41 -489.705 483.419C-473.708 459.058 -468.893 435.552 -463.795 410.659C-461.079 397.456 -458.299 383.826 -453.65 369.846C-452.806 367.296 -452.016 362.769 -451.162 357.983C-449.705 349.758 -448.183 341.273 -445.761 337.858C-440.286 330.263 -434.553 328.376 -428.482 326.481C-424.083 325.223 -420.024 323.482 -416.416 321.308C-400.928 311.817 -394.428 304.401 -396.522 298.652C-398.173 294.07 -405.74 289.92 -418.994 286.288L-419.685 286.116C-425.729 284.613 -432.506 284.876 -439.055 285.15C-446.235 285.435 -453.68 285.685 -460.43 283.731C-468.106 281.728 -474.963 277.749 -479.712 272.543C-481.939 270.028 -484.853 267.869 -488.213 266.244C-492.353 264.462 -496.583 262.837 -500.887 261.376C-519.731 254.667 -545.529 245.479 -538.124 225.56C-533.431 212.926 -494.205 196.87 -462.765 183.954C-451.417 179.307 -441.613 175.304 -436.34 172.566C-386.065 146.483 -342.604 138.534 -303.515 148.251C-301.717 148.698 -299.92 149.144 -298.131 149.712L-259.346 145.552C-255.921 141.052 -216.556 150.593 -216.062 150.715C-208.162 152.679 -202.536 154.599 -199.454 156.377C-176.757 169.518 -179.826 183.047 -183.384 198.708C-185.042 204.506 -187.409 210.101 -190.455 215.428C-195.186 224.587 -200.078 234.059 -198.181 242.964C-195.512 255.511 -185.973 260.673 -174.915 266.643C-168.002 270.385 -160.866 274.245 -154.911 280.157C-150.395 284.901 -147.205 290.206 -145.578 295.679C-143.128 302.192 -141.603 305.423 -134.078 307.294C-131.581 307.876 -129.048 308.264 -126.522 308.452C-118.493 309.144 -111.168 304.479 -104.066 299.957C-96.9651 295.435 -89.7704 290.875 -81.2232 291.252C-78.5609 291.368 -75.8782 291.757 -73.247 292.407C-47.4704 298.815 -34.6167 328.691 -24.2917 352.711C-21.6119 359.549 -18.391 366.316 -14.6475 372.972C-12.0292 377.119 -9.4988 381.199 -6.9972 385.225C2.00005 399.652 10.3454 413.242 21.5817 427.184C29.7526 437.342 36.4045 448.886 42.7727 460.053C50.583 473.603 58.6554 487.616 69.3062 498.682C73.6491 502.805 78.712 506.484 84.3166 509.59C89.7756 512.94 95.5757 516.437 99.8137 520.987C102.577 523.958 104.63 528.946 106.843 534.219C108.157 537.758 109.835 541.252 111.859 544.667C115.44 550.004 118.972 554.608 122.375 559.058C131.32 570.742 139.042 580.851 141.476 596.453C142.777 604.719 143.557 612.381 144.312 619.806C145.663 633.099 146.927 645.65 150.986 660.031C152.588 665.985 153.669 671.955 154.22 677.901C155.686 690.901 156.196 695.26 181.946 704.728C187.559 706.783 192.445 708.473 196.757 709.943C221.144 718.398 228.511 720.904 240.797 746.147C242.559 749.866 243.318 753.711 243.025 757.434C242.95 762.292 242.918 764.952 253.785 770.843C256.168 772.113 258.761 773.095 261.453 773.746C269.768 775.813 278.879 775.103 287.685 774.44L292.548 774.115C302.073 773.509 309.703 772.599 316.325 771.776C334.36 769.589 346.897 768.09 374.315 775.657L381.165 777.544C405.672 784.25 433.421 791.838 452.545 805.685C456.756 808.741 460.428 813.288 463.981 817.728C467.533 822.169 471.015 826.469 474.428 828.514C478.084 830.564 482.139 832.094 486.355 833.012C488.093 833.445 489.851 833.882 491.647 834.251C493.443 834.621 495.362 835.083 497.219 835.544C503.004 836.806 508.547 838.968 513.47 841.884C523.538 848.205 531.255 856.901 538.725 865.321C547.095 874.763 555.764 884.523 567.554 890.582C577.206 895.542 587.208 898.336 597.791 901.319C612.281 905.381 627.201 909.565 640.834 919.686C645.998 923.546 650.14 928.654 654.155 933.593C658.639 939.094 663.245 944.778 669.146 948.545C675.255 952.26 681.919 955.352 688.927 957.725C695.153 959.89 701.148 962.532 706.809 965.605C725.529 976.27 733.714 986.37 731.162 995.626C726.081 1014.04 677.897 1022.68 646.93 1022.73C639.233 1022.72 631.399 1021.72 623.759 1019.76C609.932 1016.32 596.737 1010.34 584.193 1004.62C578.766 1002.15 573.395 999.711 568.023 997.532C564.465 996.065 561.05 994.449 557.654 992.838C551.318 989.545 544.536 986.874 537.501 984.9C535.018 984.279 532.497 983.827 529.972 983.55C523.853 982.856 517.775 983.937 511.391 985.064C503.487 986.488 495.324 987.94 486.772 985.814C480.51 984.257 475.412 979.708 469.991 974.941C465.503 970.973 460.859 966.875 456.297 965.235C447.365 962.018 438.591 961.539 429.563 961.242C425.404 961.097 421.235 960.996 416.574 960.512C401.531 959.233 386.53 958.575 371.636 958.542C359.106 958.325 346.2 958.107 333.413 957.152C315.225 955.82 296.065 952.069 277.525 948.442C237.628 940.624 199.948 933.251 168.684 946.809C111.677 971.54 122.515 1039.73 127.157 1060.03C128.533 1065.97 129.72 1071.57 130.857 1077.04C133.711 1090.44 136.392 1103.12 141.036 1117C146.778 1134.14 151.884 1141.53 160.355 1153.77C162.497 1156.88 164.842 1160.27 167.439 1164.17C174.876 1175.34 176.23 1183.56 171.672 1189.33C166.226 1196.13 152.549 1198.76 130.071 1197.39C118.571 1196.59 107.043 1195.31 95.5415 1193.54C80.178 1191.39 65.6692 1189.35 48.223 1189.84L16.1911 1190.71C-30.2614 1191.97 -74.2576 1193.13 -118.627 1195.63C-127.602 1196.12 -136.111 1196.69 -144.2 1197.26C-187.512 1200.14 -221.695 1202.41 -267.105 1191.12ZM-476.542 979.026C-473.603 979.74 -470.763 980.793 -468.131 982.144C-438.113 997.641 -417.801 1039.78 -402.966 1070.55C-399.075 1078.6 -395.727 1085.55 -392.635 1091.17C-379.456 1115.1 -374.135 1122.8 -352.087 1143.45C-326.722 1167.2 -324.883 1168.24 -286.829 1180.36C-279.715 1182.62 -272.701 1184.6 -265.946 1186.28C-221.918 1197.23 -188.41 1194.98 -145.768 1192.18C-137.577 1191.62 -129.047 1191.06 -120.03 1190.55C-75.5347 1188.06 -31.535 1186.88 15.0396 1185.64L47.0519 1184.77C65.2594 1184.25 80.2135 1186.36 95.8804 1188.55C107.14 1190.29 118.426 1191.56 129.687 1192.35C149.498 1193.57 161.688 1191.52 165.866 1186.27C169.24 1182.07 167.815 1175.23 161.648 1165.95C159.088 1162.08 156.755 1158.72 154.625 1155.65C146.206 1143.45 140.617 1135.39 134.719 1117.61C129.987 1103.49 127.292 1090.7 124.411 1077.15C123.263 1071.73 122.095 1066.14 120.732 1060.23C114.521 1033.25 106.395 967.728 164.893 942.401C198.252 927.923 239.01 935.908 278.43 943.622C296.71 947.2 315.589 950.896 333.219 952.196C345.761 953.122 358.562 953.344 370.946 953.555C386.073 953.608 401.306 954.288 416.58 955.592C420.836 956.021 424.978 956.146 428.992 956.285C436.562 956.273 444.26 957.117 451.838 958.79C454.104 959.354 456.339 960.032 458.526 960.821C464.646 963.032 469.879 967.63 474.936 972.092C479.391 976.021 483.983 980.076 487.926 981.086C494.8 982.795 501.738 981.545 509.114 980.22C515.708 979.007 522.741 977.796 530.148 978.625C533.07 978.952 535.986 979.477 538.86 980.193C546.489 982.299 553.852 985.162 560.739 988.698C564 990.26 567.254 991.851 570.671 993.207C576.131 995.454 581.614 997.951 587.135 1000.46C599.402 1006.04 612.061 1011.81 625.118 1015.05C632.033 1016.82 639.123 1017.74 646.091 1017.75C675.471 1017.68 720.545 1009.23 724.726 994.011C726.683 986.984 719.516 978.777 703.518 969.648C698.252 966.805 692.679 964.36 686.895 962.357C679.305 959.782 672.085 956.438 665.455 952.427C658.564 948 653.601 941.813 648.772 936.012C644.837 931.17 641.145 926.618 636.688 923.286C624.416 914.102 610.872 910.29 596.521 906.263C585.95 903.313 575.05 900.251 564.579 894.872C551.568 888.157 542.341 877.859 533.527 867.924C526.076 859.509 519.014 851.558 509.89 845.825C505.73 843.414 501.071 841.629 496.217 840.586C494.44 840.144 492.642 839.697 490.846 839.327C489.051 838.958 487.155 838.486 485.357 838.039C480.258 836.927 475.356 835.072 470.942 832.585C466.38 829.841 462.602 825.13 458.578 820.142C455.388 816.099 451.928 811.88 448.496 809.402C430.618 796.447 403.699 789.065 379.952 782.594L373.082 780.703C347.339 773.567 336.217 774.943 318.484 777.097C311.716 777.914 304.016 778.853 294.275 779.483L289.492 779.827C280.428 780.518 270.243 781.329 260.367 778.874C257.006 778.04 253.77 776.806 250.789 775.22C237.429 768.05 236.498 763.356 236.582 757.029C236.864 753.953 236.269 750.769 234.836 747.686C223.726 724.882 218.745 723.153 195.032 714.943C190.688 713.434 185.746 711.715 180.063 709.688C151.235 699.103 149.468 692.714 147.804 677.978C147.276 672.173 146.209 666.343 144.611 660.531C140.473 645.794 139.16 633.108 137.823 619.588C137.073 612.225 136.282 604.607 135.012 596.471C132.734 582.012 125.741 572.852 116.87 561.293C113.422 556.771 109.841 552.108 106.151 546.621C103.908 542.895 102.051 539.079 100.598 535.212C98.7031 530.601 96.643 525.811 94.6641 523.647C91.1264 519.824 86.0948 516.779 80.7562 513.535C75.0027 510.019 69.023 506.401 64.2409 501.425C53.0784 489.802 44.8102 475.48 36.8437 461.631C30.5115 450.657 23.9781 439.311 16.0747 429.51C4.61219 415.298 -3.90202 401.543 -12.9208 387.034C-15.4224 383.008 -17.9366 378.948 -20.5586 374.815C-24.4247 367.902 -27.7347 360.871 -30.4685 353.767C-39.8003 332.248 -52.3883 302.821 -74.2737 297.381C-76.3109 296.878 -78.3879 296.579 -80.4489 296.49C-86.669 296.201 -92.6929 300.101 -99.1478 304.216C-107.147 309.312 -115.421 314.585 -126.101 313.678C-129.106 313.446 -132.117 312.975 -135.085 312.273C-147.035 309.302 -149.508 302.799 -151.81 296.537C-153.452 292.173 -155.14 287.659 -159.816 283.016C-165.015 277.859 -171.634 274.282 -178.05 270.816C-189.55 264.599 -201.419 258.183 -204.61 243.175C-206.788 232.958 -201.659 222.87 -196.577 213.139C-193.672 208.086 -191.412 202.778 -189.823 197.276C-186.396 182.226 -183.921 171.341 -202.785 160.41C-204.123 159.633 -207.743 157.997 -217.066 155.68C-227.662 153.1 -238.382 151.101 -249.136 149.701L-253.779 150.325L-297.905 155.043L-298.793 154.822C-300.743 154.23 -302.708 153.696 -304.683 153.205C-341.699 144.003 -383.337 151.793 -431.998 177.035C-437.512 179.896 -447.409 183.938 -458.901 188.656C-486.265 199.856 -527.618 216.794 -531.676 227.715C-537.02 242.043 -520.747 249.14 -498.898 256.917C-494.345 258.462 -489.873 260.188 -485.502 262.088C-481.267 264.119 -477.57 266.806 -474.702 269.94C-470.885 274.244 -465.253 277.518 -458.943 279.102L-457.936 279.352C-452.82 280.624 -446.825 280.381 -440.488 280.117C-433.307 279.831 -425.891 279.528 -418.583 281.345L-417.674 281.571C-401.591 285.968 -392.592 291.363 -390.162 298.04C-386.452 308.423 -400.728 318.691 -411.84 325.512C-415.851 327.923 -420.354 329.862 -425.228 331.277C-431.084 333.149 -435.301 334.508 -439.851 340.83C-441.752 343.5 -443.315 352.236 -444.586 359.372C-445.473 364.289 -446.295 368.945 -447.223 371.751C-451.736 385.518 -454.518 399.072 -457.275 412.188C-462.443 437.446 -467.38 461.275 -483.736 486.237C-507.15 521.466 -534.249 554.933 -564.813 586.363C-572.912 594.562 -581.922 602.965 -590.632 611.089C-598.57 618.469 -606.761 626.109 -614.338 633.641C-626.547 645.802 -627.581 653.166 -629.273 664.276C-630.154 671.074 -631.586 677.764 -633.561 684.31C-635.723 690.825 -638.435 697.172 -641.683 703.315C-646.85 713.638 -651.751 723.399 -651.4 738.1L-651.309 746.173C-650.817 764.865 -650.275 784.198 -652.396 802.179C-655.318 827.091 -651.778 835.547 -635.385 860.89C-622.098 881.429 -612.014 895.114 -593.78 912.88C-577.961 928.298 -564.849 935.79 -548.249 945.283C-542.995 948.276 -537.394 951.478 -531.248 955.183C-527.123 957.742 -524.09 961.317 -521.069 964.859C-518.049 968.401 -515.339 971.758 -511.927 973.388C-506.474 976.001 -499.499 976.631 -492.27 977.079C-487.025 977.232 -481.727 977.89 -476.503 979.035L-476.542 979.026Z" fill="#100F3D"/>
<path opacity="0.56" d="M-229.169 1162.27C-231.998 1161.56 -234.797 1160.74 -237.556 1159.82C-262.326 1151.64 -280.233 1138.29 -301.103 1119.49C-343.053 1081.46 -349.199 1046.87 -356.299 1006.75C-357.168 1001.82 -358.084 996.753 -359.045 991.566C-359.721 988.04 -360.238 983.878 -360.795 979.37C-362.88 962.444 -365.833 939.23 -380.478 929.21C-384.888 926.048 -390.079 923.622 -395.622 922.133C-413.123 917.783 -428.137 927.391 -441.402 935.87C-443.67 937.315 -445.841 938.708 -447.96 939.975C-464.382 949.847 -482.506 952.395 -502.12 947.519C-524.796 941.882 -548.537 926.78 -574.699 901.339C-606.389 870.46 -620.949 836.985 -621.859 792.642C-622.272 772.789 -622.739 750.285 -616.693 729.17C-614.584 721.782 -613.34 714.669 -612.057 707.229C-610.425 695.68 -607.567 684.382 -603.511 673.441C-592.908 646.819 -570.229 626.205 -548.301 606.247C-537.029 596 -525.376 585.403 -515.607 574.199C-507.235 564.565 -496.599 556.03 -486.298 547.75C-478.626 541.607 -470.612 535.272 -463.892 528.57C-446.526 511.527 -438.142 492.48 -430.171 472.902C-426.989 464.032 -424.816 454.869 -423.675 445.505C-421.826 433.85 -419.877 421.791 -413.698 410.263C-408.064 399.749 -399.14 391.356 -390.517 383.241C-383.1 376.267 -376.07 369.673 -370.925 361.798L-336.624 329.444C-337.028 327.948 -335.928 325.967 -332.665 320.353C-329.403 314.739 -324.796 306.837 -324.723 302.577C-324.43 287.224 -325.478 286.549 -343.102 275.268L-343.807 274.816C-352.186 269.431 -361.786 265.378 -371.899 262.957C-381.064 260.873 -390.329 259.344 -399.6 258.386C-409.538 257.35 -419.467 255.697 -429.286 253.445C-432.354 252.685 -435.392 251.807 -438.385 250.815C-460.629 243.445 -473.093 233.599 -472.568 223.809C-472.003 213.691 -457.309 206.548 -435.1 205.629C-427.724 205.315 -421.601 205.488 -415.647 205.665C-403.318 206.016 -393.591 206.287 -379.092 202.04C-372.622 200.06 -366.382 197.755 -360.409 195.138C-351.797 191.543 -342.863 187.83 -331.775 186.002C-319.628 183.961 -288.835 179.977 -263.572 186.257C-256.461 187.917 -249.692 190.709 -243.751 194.435C-224.068 207.133 -226.87 218.658 -229.739 230.872C-231.622 237.1 -232.394 243.608 -232.036 250.235C-230.073 270.857 -183.732 313.244 -146.262 322.559C-141.443 323.842 -136.472 324.384 -131.662 324.149C-123.948 323.659 -117.723 319.625 -111.699 315.725C-103.919 310.667 -95.8675 305.446 -84.5495 308.259C-79.5539 309.653 -74.9212 311.945 -71.0836 314.919C-60.2016 322.776 -56.4149 340.278 -53.16 355.701C-52.1473 361.182 -50.7078 366.66 -48.8492 372.107C-37.9817 399.343 -21.5732 422.682 -4.39784 447.407C3.22184 458.348 11.0463 469.647 18.6212 481.36C26.9162 494.478 30.4817 508.398 33.9502 521.865C36.1406 531.73 39.3049 541.565 43.4155 551.283C48.753 562.883 57.9761 572.859 66.9011 582.514C77.261 593.738 87.0497 604.391 91.2615 617.23C96.3534 632.94 93.2193 646.223 90.1894 659.086C85.2083 680.22 80.9021 698.471 116.858 721.639C125.108 726.733 133.915 731.23 143.136 735.057C159.653 742.352 175.261 749.253 186.068 766.523C189.414 771.878 189.479 776.678 189.538 780.91C189.629 786.959 189.696 792.174 198.764 798.721C201.628 800.481 204.904 801.758 208.324 802.447C217.489 804.726 229.416 805.682 235.806 806.212L236.546 806.274C246.03 806.781 255.426 806.627 264.617 805.815C279.521 804.919 294.866 803.934 310.036 807.705C313.767 808.631 317.417 809.841 320.925 811.317C328.005 814.304 333.182 818.535 338.163 822.625C343.145 826.716 347.921 830.617 353.777 832.288C359.604 833.736 366.706 832.588 373.568 831.473C378.238 830.567 383.09 830.047 388.048 829.92C398.668 829.869 409.48 831.093 420.095 833.547C435.561 837.391 448.797 844.638 461.816 856.385C471.806 865.385 498.224 895.03 495.189 910.867C490.129 937.211 426.82 924.356 375.933 914.006C357.827 910.318 342.153 907.142 332.566 906.477C321.571 905.506 310.566 904.019 299.613 902.026C281.635 899.091 263.064 896.008 247.674 897.257C238.638 898.001 232.652 901.666 226.337 905.555C220.994 908.827 215.496 912.214 208.075 913.635C200.654 915.056 193.302 913.244 186.663 911.686C180.975 910.272 175.566 909.081 171.275 909.977C154.817 913.414 120.242 936.576 110.992 947.127C97.1759 962.799 87.3853 994.928 90.4358 1014.55C93.4864 1034.17 102.822 1055 111.841 1075.07C120.86 1095.15 130.364 1116.48 133.223 1136.11C134.563 1145.4 131.881 1152.65 125.266 1157.49C109.353 1169.28 73.8244 1165.74 42.4726 1162.61C28.6391 1161.22 15.5812 1159.92 5.94061 1160.15C-9.83566 1160.51 -24.1233 1161.88 -39.2783 1163.44C-48.5058 1164.37 -58.0351 1165.33 -68.0653 1166.03C-84.2276 1167.18 -99.5625 1164.24 -114.4 1161.41C-127.032 1158.99 -138.966 1156.71 -151.031 1156.9C-163.88 1157.13 -173.512 1159.26 -182.82 1161.27C-196.686 1164.23 -209.594 1167.14 -229.169 1162.27ZM-394.429 917.247C-387.85 918.996 -381.683 921.853 -376.431 925.586C-359.439 937.216 -356.491 960.705 -354.196 979.569C-353.634 983.971 -353.118 988.056 -352.468 991.514C-351.494 996.709 -350.594 1001.78 -349.712 1006.75C-342.478 1047.59 -336.78 1079.84 -296.307 1116.48C-276.205 1134.66 -259.069 1147.48 -235.756 1155.19C-213.796 1162.45 -200.917 1159.65 -185.694 1156.29C-175.096 1153.62 -163.876 1152.07 -152.315 1151.69C-139.423 1151.46 -126.467 1153.93 -113.933 1156.33C-99.6796 1159.06 -84.9248 1161.88 -69.8956 1160.82C-59.9874 1160.11 -50.5047 1159.17 -41.3436 1158.25C-26.0307 1156.72 -11.5796 1155.29 4.51805 1154.9C14.701 1154.69 28.0263 1156.01 42.1275 1157.41C72.0858 1160.41 106.039 1163.79 120 1153.45C125.393 1149.47 127.461 1143.68 126.299 1135.79C123.555 1116.7 114.274 1095.99 105.298 1075.91C96.1528 1055.5 86.6972 1034.4 83.5586 1014.2C80.2781 993.652 90.5804 960.055 105.009 943.692C114.072 933.387 149.135 908.935 168.403 904.908C174.485 903.644 181.104 905.197 187.505 906.697C193.907 908.196 199.831 909.592 205.316 908.533C211.525 907.347 216.33 904.386 221.426 901.267C228.109 897.163 235.013 892.929 245.756 891.981C262.22 890.63 281.358 893.793 299.849 896.856C310.518 898.797 321.238 900.248 331.948 901.201C342.156 901.899 358.087 905.138 376.532 908.896C421.946 918.146 484.17 930.808 488.3 909.216C490.673 896.972 469.337 870.507 456.711 859.118C444.567 848.156 432.834 841.697 418.651 838.172C408.727 835.893 398.621 834.762 388.697 834.819C384.219 834.957 379.839 835.446 375.625 836.277C367.913 837.519 359.938 838.803 352.788 837.026L351.998 836.829C344.359 834.654 338.73 830.05 333.296 825.586C328.731 821.845 324.026 817.992 318.084 815.487C315.012 814.199 311.816 813.143 308.549 812.335C294.723 808.898 280.056 809.852 265.858 810.693C256.257 811.505 246.446 811.632 236.548 811.074L235.828 811.017C229.163 810.495 216.764 809.498 206.849 807.034C202.328 806.097 198.021 804.347 194.315 801.94C182.79 793.631 182.683 786.382 182.596 779.982C182.549 775.952 182.456 772.111 179.852 767.906C170.106 752.357 156.256 746.231 140.211 739.145C130.56 735.144 121.348 730.433 112.728 725.09C73.3193 699.699 78.1909 679.089 83.3479 657.247C86.2486 644.904 89.2732 632.146 84.501 617.512C80.6664 605.687 71.2781 595.532 61.3457 584.783C52.119 574.822 42.5726 564.46 36.8633 552.077C32.6297 542.103 29.3687 532.008 27.1088 521.882C23.7392 508.777 20.2563 495.199 12.3815 482.753C5.04549 471.176 -2.78978 459.921 -10.3843 449.047C-27.8416 424.022 -44.3076 400.408 -55.3942 372.703C-57.3539 367.031 -58.8489 361.322 -59.8702 355.612C-62.8323 341.796 -66.5094 324.612 -75.418 318.181C-78.3897 315.851 -81.9745 314.038 -85.851 312.904C-93.7519 310.94 -99.871 314.97 -107.028 319.631C-113.404 323.765 -120.665 328.508 -130.338 329.032C-136.044 329.313 -141.94 328.682 -147.662 327.179C-185.409 317.796 -236.598 274.326 -238.934 249.64C-239.281 242.639 -238.46 235.765 -236.49 229.178C-233.514 217.206 -231.466 208.545 -247.637 198.085C-252.779 194.885 -258.631 192.494 -264.771 191.081C-288.474 185.189 -317.947 189.01 -329.516 190.918C-339.777 192.63 -347.962 196.024 -356.62 199.637C-362.822 202.338 -369.291 204.724 -375.992 206.782C-391.8 211.317 -402.533 211.041 -415.066 210.67C-420.836 210.509 -426.833 210.337 -433.92 210.584C-452.699 211.374 -465.595 217.016 -466.021 224.639C-466.403 231.828 -455.435 239.844 -436.658 246.061C-433.888 246.973 -431.079 247.783 -428.243 248.49C-418.78 250.648 -409.213 252.232 -399.638 253.224C-390.004 254.23 -380.378 255.828 -370.856 258.002C-359.801 260.677 -349.307 265.113 -340.13 270.992L-339.405 271.448C-321.069 283.152 -317.677 285.284 -318.104 303.287C-318.206 308.506 -322.827 316.466 -326.555 322.853C-327.978 325.29 -329.707 328.28 -330.032 329.334L-328.633 330.372L-365.241 364.836C-370.338 372.769 -377.86 379.824 -385.142 386.678C-393.52 394.562 -402.194 402.71 -407.539 412.652C-413.433 423.623 -415.283 435.369 -417.099 446.725C-418.288 456.354 -420.539 465.775 -423.829 474.893C-431.845 494.905 -440.534 514.335 -458.456 531.93C-465.421 538.771 -473.459 545.206 -481.212 551.421C-491.348 559.544 -501.807 567.954 -509.935 577.281C-519.842 588.618 -531.617 599.369 -542.973 609.703C-564.627 629.315 -586.873 649.623 -597.161 675.403C-601.083 686.12 -603.833 697.183 -605.386 708.489C-606.646 715.751 -607.929 723.191 -610.116 730.805C-616.013 751.405 -615.553 773.601 -615.142 793.208C-614.246 836.259 -600.212 868.729 -569.625 898.475C-544.845 922.561 -521.711 937.405 -500.892 942.58C-483.353 946.941 -467.557 944.734 -452.557 935.689C-450.485 934.441 -448.341 933.072 -446.12 931.646C-432.436 922.918 -415.382 912.023 -394.425 917.233L-394.429 917.247ZM-333.265 326.982L-329.989 329.329C-330.063 328.824 -330.35 328.327 -330.807 327.912C-331.264 327.497 -331.865 327.187 -332.521 327.029C-332.768 326.983 -333.017 326.962 -333.261 326.967L-333.265 326.982Z" fill="#100F3D"/>
<path opacity="0.42" d="M-202.764 1102.62C-223.662 1097.43 -239.61 1089.45 -252.893 1077.5C-270.917 1061.33 -271.326 1048.38 -271.743 1034.71C-271.923 1026.99 -272.24 1018.99 -275.832 1009.98C-277.856 1004.88 -282.371 1000.09 -286.709 995.44C-292.477 989.284 -298.427 982.928 -299.214 975.464C-299.956 968.579 -295.471 962.18 -291.146 956.002C-287.137 950.252 -282.979 944.324 -282.924 938.112C-282.883 932.295 -282.973 926.752 -283.069 921.315C-283.332 904.827 -283.499 889.298 -280.047 869.93C-275.485 844.996 -274.775 832.522 -307.727 821.402C-310.296 820.532 -312.906 819.766 -315.545 819.105C-355.662 809.133 -384.182 830.212 -414.373 852.532C-437.475 869.53 -461.236 887.161 -491.121 890.19C-501.021 891.438 -511.509 890.882 -521.777 888.564C-566.18 877.526 -571.729 828.979 -575.386 796.865C-575.704 794.179 -575.988 791.609 -576.288 789.188C-577.501 779.472 -579.529 769.66 -581.684 759.264C-588.271 727.464 -594.977 694.623 -576.474 666.76C-565.012 649.675 -544.739 634.013 -530.483 623.741C-511.439 610.074 -497.455 595.41 -482.683 579.945C-479.889 577.144 -477.239 574.245 -474.401 571.347C-457.444 553.757 -445.024 533.659 -433.083 514.224C-422.276 496.654 -411.115 478.498 -396.672 462.583C-388.029 453.124 -382.395 442.272 -376.874 431.791C-372.361 422.495 -366.922 413.557 -360.599 405.046C-353.825 396.441 -345.497 389.433 -337.432 382.636C-329.367 375.839 -320.919 368.77 -314.317 360.183C-305.378 348.604 -282.001 325.603 -257.747 322.109C-251.204 321.002 -244.136 321.269 -237.24 322.883C-228.549 325.043 -221.741 329.296 -214.535 333.802C-207.747 338.05 -200.701 342.439 -191.421 345.436C-178.611 349.587 -163.649 349.472 -149.092 349.38C-134.142 349.309 -118.637 349.284 -105.737 353.748C-89.0784 359.545 -82.2128 370.652 -74.9594 382.392C-71.6395 388.122 -67.7459 393.706 -63.317 399.087C-29.3909 438.265 -26.3845 466.246 -22.2317 504.97C-21.8603 509.1 -21.3883 513.388 -20.8157 517.835C-16.868 552.152 0.149666 579.537 19.8484 611.238C23.6035 617.309 27.452 623.51 31.3167 629.899L31.6005 630.613L38.0563 659.82C44.6612 666.997 44.5449 672.611 44.3299 678.032C44.0406 681.256 44.3198 684.558 45.1603 687.853C49.6272 703.209 57.2518 708.141 66.9145 714.407C74.4747 718.974 81.1171 724.398 86.5456 730.435C91.3152 735.884 92.0196 741.656 92.6934 747.297C93.3007 752.279 93.8703 756.99 97.3559 760.939C102.258 766.527 107.434 768.32 113.936 770.596C118.314 772.018 122.546 773.774 126.559 775.835C143.979 785.149 149.598 792.832 156.114 801.72C160.815 808.546 166.556 815.017 173.201 820.98C178.924 826.052 184.765 829.299 191.046 830.86C200.606 833.237 210.617 831.692 222.197 829.909C230.622 828.423 239.304 827.504 248.152 827.161C260.294 826.913 278.83 828.025 294.454 831.909C311.362 836.112 321.486 842.631 324.497 851.276C326.887 858.112 326.124 863.458 322.244 867.17C314.466 874.667 296.402 873.765 281.897 873.057C277.753 872.855 273.797 872.654 270.806 872.707C222.811 873.672 184.412 884.966 143.762 896.881C134.576 899.581 125.234 902.319 115.615 904.988C63.7908 919.415 45.5672 941.597 43.4203 992.924C42.4542 1015.45 46.7962 1038.4 55.4381 1055.94C58.0259 1060.8 60.9302 1065.6 64.1391 1070.3C74.1276 1085.63 86.5602 1104.72 78.9048 1117.96C65.8524 1140.6 -51.9837 1135.08 -80.5524 1129.19C-87.8571 1127.69 -95.4546 1125.94 -105.212 1123.52C-109.577 1122.43 -113.923 1121.35 -118.268 1120.27C-122.614 1119.19 -126.979 1118.11 -131.364 1117.02C-146.513 1113.11 -161.843 1109.95 -177.25 1107.56C-185.807 1106.34 -194.331 1104.69 -202.764 1102.62ZM-314.341 814.345C-311.463 815.06 -308.618 815.895 -305.819 816.846C-267.831 829.648 -268.769 845.991 -273.407 871.397C-276.867 890.379 -276.622 905.759 -276.371 922.045C-276.266 927.53 -276.183 933.101 -276.231 938.947C-276.279 946.311 -280.791 952.734 -285.123 958.941C-289.247 964.816 -293.124 970.369 -292.54 975.866C-291.903 981.744 -286.836 987.175 -281.45 992.93C-276.726 997.968 -271.82 1003.21 -269.433 1009.21C-265.557 1018.93 -265.303 1027.27 -265.044 1035.34C-264.624 1048.59 -264.289 1060.07 -248.056 1074.57C-235.78 1085.6 -221.005 1092.98 -201.569 1097.82C-193.443 1099.77 -185.234 1101.33 -176.996 1102.48C-161.283 1104.89 -145.646 1108.09 -130.192 1112.05C-125.787 1113.14 -121.422 1114.23 -117.057 1115.31C-112.691 1116.4 -108.386 1117.47 -104.04 1118.55C-94.4207 1120.94 -86.9256 1122.68 -79.7628 1124.15C-45.8251 1131.06 62.4491 1132.95 72.6593 1115.24C79.137 1104.04 67.5071 1086.19 58.1742 1071.85C54.8384 1066.97 51.826 1061.99 49.1499 1056.94C40.2458 1038.77 35.6937 1015.06 36.6956 991.881C38.6705 945.464 51.365 917.093 112.562 900.058C122.138 897.393 131.437 894.66 140.6 891.97C181.749 879.903 220.616 868.496 269.67 867.487C272.956 867.43 277.038 867.632 281.367 867.85C294.481 868.503 310.787 869.305 316.767 863.554C319.511 860.955 319.907 857.082 318.059 851.777C315.782 845.246 307.446 840.137 293.284 836.617C278.529 832.949 260.391 831.921 249.345 832.15C240.867 832.477 232.547 833.353 224.47 834.768C212.499 836.607 201.201 838.353 189.883 835.539C182.18 833.624 175.166 829.78 168.432 823.797C161.426 817.51 155.371 810.688 150.409 803.492C144.149 794.928 139.184 788.158 123.319 779.675C119.692 777.818 115.863 776.244 111.902 774.982C105.13 772.608 98.1216 770.176 91.9082 763.111C87.329 757.909 86.6353 752.262 85.9777 746.809C85.3399 741.697 84.7559 736.875 81.0997 732.685C76.0988 727.14 69.9743 722.166 63.004 717.989C53.0342 711.524 43.6229 705.427 38.6081 688.141C37.6358 684.417 37.3016 680.684 37.6142 677.038C37.8131 671.766 37.9708 667.588 32.2692 661.755L31.7017 661.169L25.0393 631.022C21.2644 624.778 17.5057 618.722 13.8242 612.777C-6.18884 580.569 -23.4793 552.763 -27.5008 517.476C-28.0093 513.025 -28.4748 508.739 -28.9096 504.583C-33.1272 465.275 -35.9179 439.296 -68.7342 401.389C-73.3986 395.77 -77.4893 389.932 -80.9638 383.935C-87.8616 372.79 -93.8131 363.153 -107.751 358.308C-119.33 354.264 -133.219 354.369 -148.04 354.426C-163.288 354.515 -179.181 354.582 -193.214 350.035C-203.563 346.696 -211.406 341.802 -218.302 337.481C-225.197 333.16 -231.136 329.461 -238.424 327.649C-244.192 326.323 -250.096 326.118 -255.558 327.054C-276.222 330.029 -298.47 350.26 -308.384 363.145C-315.264 372.092 -323.836 379.238 -332.131 386.285C-340.071 392.914 -348.197 399.787 -354.693 408.032C-360.864 416.404 -366.174 425.189 -370.582 434.321C-376.2 445.024 -381.995 456.019 -391.021 465.92C-405.207 481.561 -416.157 499.54 -426.967 516.956C-439.041 536.588 -451.563 556.844 -468.857 574.78C-471.676 577.683 -474.484 580.542 -477.097 583.373C-492.021 599.031 -506.169 613.761 -525.51 627.784C-539.461 637.84 -559.303 653.118 -570.385 669.684C-588.138 696.216 -581.486 728.262 -575.053 759.333C-572.989 769.338 -570.842 779.685 -569.626 789.556C-569.313 792.011 -569.013 794.6 -568.719 797.296C-565.22 827.852 -559.946 874.047 -520.58 883.833C-511.329 885.9 -501.887 886.385 -492.976 885.251C-464.99 882.348 -441.856 865.22 -419.396 848.692C-389.305 826.439 -358.27 803.424 -314.341 814.345Z" fill="#100F3D"/>
<path opacity="0.28" d="M-87.2152 1073.81C-94.6824 1071.91 -101.948 1069.35 -108.849 1066.18C-120.758 1060.77 -132.962 1056.2 -144.761 1051.78C-187.486 1035.76 -227.856 1020.65 -227.578 972.541C-227.536 961.572 -223.347 951.557 -219.305 941.874C-214.509 930.431 -210.005 919.651 -211.929 907.565C-213.538 898.785 -216.277 890.019 -220.105 881.396C-224.796 869.895 -229.221 859.012 -228.073 844.27C-225.141 806.571 -246.82 796.674 -263.451 792.539C-282.69 787.757 -308.058 788.397 -332.403 789.475C-356.192 790.508 -390.333 794.718 -408.213 803.2C-420.717 809.123 -427.757 818.966 -435.212 829.38C-442.363 839.333 -449.726 849.632 -462.349 856.369C-474.284 862.787 -485.19 864.814 -494.75 862.438C-529.119 853.894 -532.848 791.446 -528.46 769.152C-525.697 755.088 -520.1 741.85 -514.673 729.046C-511.752 722.105 -508.748 715 -506.199 707.783C-498.535 686.15 -481.176 675.545 -462.815 664.285C-454.487 659.381 -446.574 654.105 -439.109 648.48C-415.311 629.861 -396.248 618.56 -363.488 603.458C-336.883 591.179 -326.776 572.117 -333.499 546.77C-335.727 538.563 -339.401 530.462 -344.418 522.695C-351.214 511.391 -356.587 502.465 -348.654 482.954C-346.51 477.706 -344.553 472.196 -342.496 466.62C-335.689 447.673 -328.716 428.061 -313.593 413.879C-308.869 409.874 -303.415 406.409 -297.354 403.563C-290.56 400.023 -284.15 396.679 -280.043 391.719C-277.077 388.225 -276.209 383.212 -275.297 378.363C-274.29 373.047 -273.256 367.538 -269.647 363.482C-253.174 345.051 -235.151 349.915 -211.19 357.129C-206.293 358.607 -201.06 360.168 -195.528 361.62C-187.929 363.617 -180.575 365.337 -173.396 366.999C-168.302 368.189 -163.287 369.359 -158.408 370.572C-125.679 378.708 -94.7735 389.289 -76.1981 429.052C-63.3356 456.616 -55.3984 486.359 -47.691 515.003C-43.1952 531.761 -38.5485 549.094 -33.0202 565.664L-31.7073 569.579C-24.7943 590.281 -19.3181 606.639 -8.92519 627.179C-5.22382 634.478 -3.68422 643.049 -2.1788 651.336C-0.0428547 663.076 2.1649 675.202 10.3787 683.163L10.957 683.706L16.8483 703.709C19.1528 708.046 21.9177 712.278 25.1128 716.36C30.071 723.159 35.2035 730.185 36.7823 736.91C38.3143 743.188 37.9523 749.437 35.7245 755.171C33.8341 760.835 33.1178 762.957 47.207 771.412C52.8473 774.792 58.2001 775.786 63.0843 776.892C64.5262 777.251 65.9681 777.609 67.41 777.968C74.0932 779.415 80.3394 782.314 85.3292 786.286C90.377 790.363 92.6237 795.414 94.8076 800.297C96.9914 805.179 99.1215 809.941 103.909 813.293C109.736 817.44 119.42 820.078 129.657 822.853C149.052 828.103 171.036 834.074 172.871 852.932C175.261 877.064 133.327 885.96 96.3487 893.82C75.6905 898.207 56.1616 902.353 47.2433 908.447C-0.528271 941.164 -5.22534 966.555 -4.56403 1016.71C-4.24782 1040.33 -15.0541 1059.58 -34.2107 1069.57C-48.8551 1077.36 -67.2457 1078.78 -87.2152 1073.81ZM-262.109 787.813C-232.204 795.247 -218.843 814.056 -221.273 845.347C-222.337 859.159 -218.107 869.564 -213.616 880.602C-209.654 889.54 -206.826 898.626 -205.174 907.726C-203.065 920.84 -207.993 932.649 -212.765 944.082C-216.682 953.429 -220.721 963.097 -220.773 973.343C-221.036 1017.85 -186.348 1030.85 -142.451 1047.3C-130.524 1051.79 -118.162 1056.4 -105.988 1061.93C-99.584 1064.86 -92.8443 1067.24 -85.9174 1069.02C-67.9824 1073.47 -51.5598 1072.21 -38.4056 1065.35C-21.0571 1056.31 -10.8595 1037.9 -11.1522 1016.13C-11.8315 965.71 -6.77004 938.263 42.4828 904.565C52.3402 897.815 72.4903 893.532 93.8129 889.003C128.728 881.597 168.297 873.186 166.306 852.68C164.827 837.622 147.124 832.822 128.456 827.768C117.416 824.763 106.982 821.939 99.9085 816.899C93.6576 812.431 91.1343 806.805 88.6936 801.353C86.6803 796.881 84.7802 792.713 80.9751 789.544C75.3544 784.988 69.1881 783.47 62.2748 781.92C56.6599 780.632 50.5402 779.432 43.7489 775.367C26.5173 765.042 27.0233 760.476 29.3911 753.397C31.3967 748.317 31.727 742.77 30.3559 737.199C28.7555 731.403 24.1043 724.803 19.4172 718.348C15.9307 713.873 12.9445 709.225 10.4954 704.461L4.84662 685.422C-4.23278 676.219 -6.49988 663.572 -8.75259 651.373C-10.2634 643.024 -11.7041 635.152 -15.093 628.452C-25.6385 607.598 -31.165 591.105 -38.1374 570.219L-39.4503 566.305C-45.0253 549.585 -49.7043 532.213 -54.2055 515.392C-61.7997 486.884 -69.7747 457.377 -82.4522 430.166C-99.8242 392.986 -127.643 383.403 -159.562 375.468C-164.402 374.265 -169.34 373.037 -174.432 371.925C-181.69 370.243 -189.142 368.498 -196.801 366.487C-202.491 364.996 -207.819 363.395 -212.814 361.893C-217.81 360.39 -222.453 358.99 -226.799 357.91C-241.909 354.154 -252.834 354.398 -263.91 366.81C-266.811 370.045 -267.702 374.807 -268.644 379.863C-269.647 385.165 -270.674 390.644 -274.191 394.922C-278.901 400.621 -286.079 404.357 -293.037 407.964C-298.669 410.598 -303.747 413.801 -308.159 417.499C-322.6 430.961 -329.402 450.14 -335.999 468.665C-337.988 474.304 -339.96 479.871 -342.193 485.143C-349.413 502.883 -345.021 510.186 -338.372 521.238C-333.098 529.403 -329.244 537.921 -326.921 546.549C-319.638 574.029 -330.509 594.727 -359.431 607.978C-391.739 622.948 -410.551 634.081 -433.96 652.321C-441.577 658.067 -449.651 663.456 -458.15 668.465C-476.577 679.74 -492.487 689.494 -499.672 709.789C-502.266 717.103 -505.37 724.274 -508.239 731.259C-513.599 743.88 -519.111 756.94 -521.807 770.653C-526.12 792.812 -521.606 850.67 -493.4 857.682C-485.934 859.538 -476.913 857.671 -466.569 852.085C-454.978 845.873 -447.888 835.997 -441.069 826.452C-433.595 816.043 -425.855 805.239 -412.162 798.753C-393.365 789.87 -359.246 785.501 -333.587 784.366C-308.734 783.353 -282.631 782.711 -262.109 787.813Z" fill="#100F3D"/>
<path opacity="0.14" d="M-95.3904 1030.52C-105.681 1027.96 -117.77 1022.09 -131.299 1013.07C-176.896 982.701 -172.516 960.19 -166.981 931.68C-164.843 920.634 -162.628 909.193 -162.947 895.881C-163.354 880.645 -166.762 869.631 -170.42 857.942C-172.452 851.518 -174.531 844.867 -176.259 837.138C-178.187 828.44 -176.433 820.964 -174.997 814.344C-172.472 803.256 -170.485 794.504 -184.021 783.149C-199.004 770.699 -217.953 761.441 -238.405 756.581C-316.644 737.132 -415.03 770.637 -444.34 811.347C-458.244 830.662 -469.518 838.47 -479.809 835.912C-486.149 834.336 -491.111 829.07 -494.971 819.876C-501.088 805.168 -493.692 780.141 -488.797 763.57L-487.425 758.897C-482.505 741.719 -468.314 716.694 -453.171 704.711C-443.831 697.341 -430.958 692.552 -418.502 687.92C-409.035 684.613 -400.055 680.681 -391.65 676.164C-382.186 671.089 -372.236 666.506 -361.855 662.44C-346.93 656.229 -331.456 649.832 -321.807 641.896C-312.892 634.635 -304.035 624.569 -295.433 614.855C-289.558 608.096 -283.343 601.146 -277.34 595.308C-262.416 580.832 -257.913 561.281 -254.589 542.51C-254.319 541.427 -254.048 539.746 -253.619 537.767C-252.131 530.854 -249.373 517.984 -250.587 513.757C-252.57 506.885 -257.032 503.997 -262.667 500.342C-267.589 497.45 -271.804 493.89 -275.043 489.889C-286.375 475.066 -287.666 456.298 -278.919 436.974C-267.907 412.922 -243.228 393.541 -217.516 388.739C-203.617 385.996 -188.378 386.461 -173.576 390.078C-142.486 397.807 -112.497 420.596 -93.3263 451.046C-77.3738 476.388 -71.5877 505.673 -65.9687 534.027C-63.0963 548.542 -60.3999 562.246 -56.4054 575.369C-53.7867 584.07 -49.8624 594.016 -45.7119 604.57C-34.5031 633.134 -21.7677 665.511 -28.1851 688.542L-31.2751 714.302C-25.658 718.873 -23.587 727.668 -21.1962 737.708C-19.1233 746.243 -17.1079 755.01 -12.8231 760.384C-10.6598 762.979 -8.11337 765.405 -5.24324 767.604C-0.681665 771.002 2.98111 775.017 5.48657 779.365C8.16783 784.187 7.55244 789.953 6.94416 795.521C6.42565 800.56 5.86043 805.786 8.16983 808.645C14.5916 816.559 25.8019 818.625 36.319 820.949C38.9478 821.51 41.573 822.086 44.1408 822.724C54.2935 825.248 65.4571 829.189 71.2812 839.254C75.4943 846.435 76.0999 853.026 73.0927 858.627C66.2453 871.492 42.3532 876.655 24.9396 880.392L24.2986 880.524C19.1327 881.647 13.9973 882.563 8.91393 883.354C-10.4461 886.654 -27.1577 889.507 -36.6894 904.649C-47.6197 921.958 -48.6316 954.292 -48.573 967.387C-48.3943 1001.26 -55.2969 1021.35 -69.6432 1028.78C-76.5399 1032.47 -85.2378 1033.04 -95.3904 1030.52ZM-237.255 751.699C-215.495 756.883 -195.337 766.74 -179.397 779.99C-163.266 793.476 -165.742 804.362 -168.351 815.873C-169.849 822.401 -171.38 829.151 -169.644 837.019C-167.959 844.584 -165.898 851.138 -163.908 857.475C-160.152 869.449 -156.608 880.758 -156.232 896.538C-156.26 908.97 -157.637 921.228 -160.351 933.19C-165.783 961.113 -169.686 981.288 -127.329 1009.5C-103.399 1025.44 -85.5378 1030.62 -73.8543 1024.54C-61.2926 1018.05 -55.0006 998.558 -55.1738 966.773C-55.2557 953.351 -54.181 920.174 -42.7282 902.028C-32.0565 885.084 -13.2638 881.874 6.64395 878.481C11.5495 877.646 16.5843 876.797 21.6174 875.702L22.3033 875.474C38.6754 871.876 61.0485 867.088 66.9623 856.122C69.325 851.679 68.7948 846.641 65.3486 840.678C61.06 833.294 53.317 830.02 43.0854 827.476C40.5966 826.858 38.0683 826.229 35.5041 825.745C32.9399 825.261 30.277 824.584 27.6894 823.94C18.88 821.75 9.01997 818.471 2.74366 810.731C-0.867719 806.276 -0.257666 800.447 0.411615 794.296C0.931936 789.334 1.47557 784.195 -0.393955 780.663C-2.54254 776.97 -5.68778 773.569 -9.60093 770.707C-12.8711 768.191 -15.7607 765.412 -18.199 762.436C-23.2003 756.148 -25.4169 746.841 -27.5526 737.8C-29.6183 729.236 -31.8798 719.519 -36.3241 716.896L-38.0409 715.871L-34.5561 687.005C-28.4349 664.912 -40.917 633.287 -51.8815 605.26C-56.0537 594.624 -59.9958 584.581 -62.7008 575.72C-66.742 562.449 -69.4617 548.585 -72.3682 533.954C-77.8831 506.025 -83.6009 477.14 -99.0596 452.596C-117.28 423.639 -145.493 402.058 -174.529 394.84C-188.094 391.529 -202.058 391.11 -214.79 393.633C-238.761 398.102 -261.871 416.401 -272.246 439.154C-280.429 457.054 -279.315 474.337 -269.08 487.753C-266.279 491.125 -262.658 494.115 -258.448 496.53C-252.47 500.408 -246.273 504.417 -243.722 513.224C-242.318 518.036 -244.414 528.662 -246.663 539.144C-247.141 541.065 -247.417 542.683 -247.6 543.757C-251.055 563.139 -255.72 583.34 -271.504 598.66C-277.368 604.364 -283.204 610.964 -289.367 617.957C-298.108 627.806 -307.06 638.002 -316.244 645.502C-326.557 653.917 -342.365 660.476 -357.663 666.84C-367.822 670.804 -377.55 675.284 -386.794 680.253C-395.493 684.896 -404.792 688.924 -414.598 692.295C-427.171 696.974 -439.05 701.397 -447.715 708.244C-462.018 719.547 -475.92 744.169 -480.584 760.398L-481.962 765.1C-486.421 780.169 -493.871 805.413 -488.309 818.726C-485.419 825.578 -481.892 829.951 -478.337 830.834C-474.781 831.718 -465.881 830.082 -450.094 808.168C-420.058 766.228 -318.219 731.572 -237.255 751.699Z" fill="#100F3D"/>
<path d="M-122.8 964.453C-123.274 964.336 -123.768 964.213 -124.242 964.095L-126.689 963.395L-126.824 961.49C-130.022 916.564 -129.229 874.561 -127.91 835.848C-127.457 822.635 -132.222 811.008 -137.416 798.661C-140.016 792.249 -142.863 785.561 -144.959 778.385C-146.116 774.601 -146.938 771.33 -147.698 768.396C-151.572 753.356 -152.621 749.308 -177.978 738.343C-197.388 729.945 -213.276 724.339 -227.971 720.686C-258.508 713.095 -284.688 713.963 -310.437 723.387C-315.421 725.215 -321.555 727.784 -328.649 730.759C-358.31 743.182 -403.116 761.945 -433.12 754.487C-435.627 753.87 -438.075 753.045 -440.416 752.029L-443.82 750.539L-442.007 748.306C-436.224 741.156 -426.49 738.363 -417.045 735.635C-411.471 734.199 -406.184 732.318 -401.262 730.02C-393.617 726.094 -387.44 720.99 -380.894 715.579C-374.348 710.168 -367.32 704.339 -358.748 700.061C-353.196 697.301 -345.536 695.678 -338.151 694.232C-329.442 692.441 -320.464 690.579 -315.52 686.885C-309.943 682.675 -306.939 675.908 -303.753 668.741C-300.846 662.196 -297.843 655.428 -292.623 650.04C-288.666 645.933 -284.603 641.821 -280.52 637.715C-253.153 609.97 -224.855 581.261 -216.611 544.469C-215.051 537.435 -215.38 527.033 -215.823 515.989C-216.907 482.552 -218.264 440.935 -171.461 442.909C-166.636 443.105 -161.771 443.798 -156.999 444.971C-119.47 454.3 -113.52 491.447 -108.712 521.378C-107.016 531.936 -105.428 541.914 -102.592 548.646C-99.3534 555.897 -95.4117 563.029 -90.8022 569.977C-85.3482 578.663 -79.7182 587.653 -76.3953 598.922C-72.7528 611.266 -70.1339 623.004 -67.3496 635.427C-66.3509 639.846 -65.3629 644.308 -64.3929 648.843L-63.5435 649.054L-61.9239 649.457C-60.1742 649.801 -58.4525 650.291 -56.7919 650.917L-54.0481 652.028L-67.6718 691.899L-68.7093 696.073C-74.3708 718.847 -80.9048 744.625 -73.444 766.752C-70.4643 775.604 -60.0488 787.026 -49.9637 798.09C-36.102 813.281 -21.7843 829.001 -23.7172 840.91C-25.2983 850.561 -35.8599 854.069 -45.1699 857.183C-50.7038 859.028 -55.9182 860.768 -58.9759 863.534C-66.9371 870.756 -69.0426 879.816 -71.4694 890.254C-71.893 891.958 -72.3274 893.705 -72.7725 895.496C-73.3685 897.893 -73.9752 901.009 -74.6806 904.605C-78.4193 923.61 -84.6349 955.279 -104.027 963.6C-106.72 964.731 -109.776 965.39 -113.005 965.537C-116.234 965.684 -119.568 965.315 -122.8 964.453ZM-226.789 715.843C-211.579 719.624 -195.248 725.386 -175.362 733.979C-146.768 746.347 -145.223 752.282 -141.149 768.123C-140.418 771.003 -139.565 774.236 -138.464 777.991C-136.393 784.931 -133.672 791.449 -131.038 797.809C-125.819 810.561 -120.725 822.637 -121.209 836.732C-122.5 874.746 -123.285 915.953 -120.376 959.934C-115.932 960.875 -111.433 960.496 -107.845 958.879C-90.735 951.555 -84.7652 921.128 -81.1916 902.956C-80.4719 899.302 -79.8509 896.128 -79.2406 893.673C-78.8026 891.911 -78.3718 890.178 -77.9518 888.489C-75.3903 877.425 -73.1627 867.874 -64.2302 859.698C-60.3609 856.198 -54.3008 854.177 -48.4437 852.214C-39.6867 849.3 -31.4091 846.542 -30.2426 839.319C-28.6165 829.403 -42.1154 814.608 -55.151 800.312C-66.1268 788.275 -76.4777 776.931 -79.7914 767.06C-87.5989 743.881 -81.0327 717.467 -75.1306 694.231L-74.0536 689.899L-61.9163 654.32L-62.6669 654.133C-64.6767 653.74 -66.6457 653.142 -68.5172 652.357L-70.0974 651.627L-70.3992 650.31C-71.6062 645.21 -72.7199 640.241 -73.8085 635.339C-76.5675 622.984 -79.1847 611.324 -82.7733 599.1C-85.9201 588.473 -91.1299 580.155 -96.645 571.377C-101.398 564.174 -105.457 556.782 -108.787 549.268C-111.815 542.044 -113.394 532.282 -115.221 520.987C-119.772 492.806 -125.415 457.714 -158.045 449.602C-162.225 448.598 -166.483 448.014 -170.701 447.867C-211.257 446.158 -210.001 485.143 -208.962 516.484C-208.616 527.748 -208.262 538.386 -209.972 545.858C-218.459 583.709 -247.152 612.826 -274.914 640.979C-278.994 645.076 -283.022 649.186 -286.997 653.31C-291.752 658.261 -294.61 664.697 -297.374 670.925C-300.769 678.592 -303.99 685.811 -310.443 690.678C-316.359 695.157 -326.127 697.16 -335.599 699.068C-342.869 700.558 -349.745 701.977 -354.555 704.369C-362.572 708.357 -369.253 713.888 -375.699 719.232C-382.145 724.576 -388.885 730.092 -397.015 734.281C-402.279 736.774 -407.95 738.807 -413.939 740.348C-421.643 742.573 -428.985 744.689 -433.963 749.018C-407.006 757.344 -361.923 738.481 -332.469 726.129C-325.288 723.145 -319.105 720.542 -313.984 718.672C-286.806 708.729 -259.004 707.835 -226.789 715.843Z" fill="#100F3D"/>
</svg>
