<svg width="16" height="16" viewBox="0 0 16 16" fill="none" xmlns="http://www.w3.org/2000/svg">
<g clip-path="url(#clip0_4008_595)">
<mask id="mask0_4008_595" style="mask-type:luminance" maskUnits="userSpaceOnUse" x="0" y="0" width="16" height="16">
<path d="M16 0H0V16H16V0Z" fill="white"/>
</mask>
<g mask="url(#mask0_4008_595)">
<path d="M5.20634 1.33333C4.21301 1.33333 3.38634 1.57333 2.75301 2.03333C2.47301 2.22667 2.22634 2.47333 2.03301 2.75333C1.57301 3.38667 1.33301 4.21333 1.33301 5.20667V10.7933C1.33301 13.22 2.77967 14.6667 5.20634 14.6667H10.1863V1.33333H5.20634ZM8.07967 8.35333L6.37301 10.06C6.27301 10.16 6.14634 10.2067 6.01967 10.2067C5.89301 10.2067 5.76634 10.16 5.66634 10.06C5.47301 9.86667 5.47301 9.54667 5.66634 9.35333L7.01301 8L5.66634 6.64667C5.46634 6.45333 5.46634 6.13333 5.66634 5.94C5.86634 5.74667 6.17967 5.74667 6.37301 5.94L8.07967 7.64667C8.27301 7.84 8.27301 8.16 8.07967 8.35333Z" fill="white"/>
<path d="M11.1865 1.35286V14.6529C12.0065 14.5995 12.6999 14.3662 13.2465 13.9662C13.5265 13.7729 13.7732 13.5262 13.9665 13.2462C14.4265 12.6129 14.6665 11.7862 14.6665 10.7929V5.2062C14.6665 2.91286 13.3732 1.49286 11.1865 1.35286Z" fill="white"/>
</g>
</g>
<defs>
<clipPath id="clip0_4008_595">
<rect width="16" height="16" fill="white"/>
</clipPath>
</defs>
</svg>
