<svg width="14" height="13" viewBox="0 0 14 13" fill="none" xmlns="http://www.w3.org/2000/svg">
<path d="M5.84491 0.499171C6.23002 -0.166377 7.19088 -0.166379 7.57599 0.49917L9.06489 3.07227C9.2065 3.31698 9.44508 3.49032 9.72157 3.54937L12.6288 4.17027C13.3808 4.33087 13.6777 5.2447 13.1638 5.81663L11.1767 8.02779C10.9877 8.23809 10.8966 8.51855 10.9259 8.79977L11.2338 11.7566C11.3134 12.5214 10.536 13.0862 9.83328 12.7741L7.1163 11.5676C6.8579 11.4528 6.563 11.4528 6.3046 11.5676L3.58762 12.7741C2.88486 13.0862 2.10751 12.5214 2.18715 11.7566L2.49503 8.79977C2.52431 8.51855 2.43318 8.23809 2.2442 8.02779L0.257134 5.81663C-0.256834 5.2447 0.0400851 4.33087 0.792066 4.17027L3.69932 3.54937C3.97582 3.49032 4.2144 3.31699 4.35601 3.07227L5.84491 0.499171Z" fill="#FFC260"/>
</svg>
