<svg width="16" height="16" viewBox="0 0 16 16" fill="none" xmlns="http://www.w3.org/2000/svg">
  <path d="M0.450422 0.440422C0.450422 0.440422 8 0 8 0C8 0 15.5704 0.440422 15.5704 0.440422C15.5704 0.440422 16 8 16 8C16 8 15.5704 15.5704 15.5704 15.5704C15.5704 15.5704 8 16 8 16C8 16 0.450422 15.5704 0.450422 15.5704C0.450422 15.5704 0 8 0 8C0 8 0.450422 0.440422 0.450422 0.440422ZM3.2 3.2H4.8V4.8H3.2V3.2ZM11.2 3.2H12.8V4.8H11.2V3.2ZM3.2 11.2H4.8V12.8H3.2V11.2ZM11.2 11.2H12.8V12.8H11.2V11.2ZM5.6 5.6H10.4V10.4H5.6V5.6Z" fill="currentColor"/>
</svg>