<svg width="24" height="24" viewBox="0 0 24 24" fill="none" xmlns="http://www.w3.org/2000/svg">
<path d="M12.0002 2.69995C6.8627 2.69995 2.7002 6.86245 2.7002 12C2.7002 17.1375 6.8627 21.2999 12.0002 21.2999C17.1377 21.2999 21.3002 17.1375 21.3002 12C21.3002 6.86245 17.1377 2.69995 12.0002 2.69995ZM16.3127 9.0262C16.1739 10.4962 15.5664 14.0662 15.2589 15.7125C15.1277 16.41 14.8727 16.6425 14.6252 16.665C14.0852 16.7137 13.6764 16.3087 13.1514 15.9637C12.3339 15.4275 11.8689 15.0937 11.0777 14.5687C10.1589 13.965 10.7552 13.6312 11.2764 13.0875C11.4152 12.945 13.7927 10.7812 13.8377 10.5862C13.8452 10.56 13.8489 10.47 13.7927 10.4212C13.7364 10.3725 13.6577 10.3912 13.6014 10.4025C13.5189 10.4212 12.2102 11.2837 9.67895 12.9937C9.3077 13.2487 8.97019 13.3724 8.67019 13.365C8.33644 13.3575 7.69895 13.1775 7.2227 13.0237C6.64145 12.8362 6.17645 12.735 6.2177 12.4125C6.2402 12.2437 6.46895 12.075 6.90769 11.8987C9.61895 10.7175 11.4264 9.93745 12.3302 9.56245C14.9139 8.48995 15.4502 8.30245 15.7989 8.29495C15.8777 8.29495 16.0464 8.3137 16.1589 8.4037C16.2339 8.46745 16.2789 8.55745 16.2902 8.65495C16.3089 8.77495 16.3127 8.8987 16.3052 9.02245L16.3127 9.0262Z" fill="white"/>
</svg>
