<svg width="32" height="28" viewBox="0 0 32 28" fill="none" xmlns="http://www.w3.org/2000/svg">
<rect width="32" height="28" rx="8" fill="#FFC260"/>
<path d="M7.88082 21.6175C8.29332 21.7894 8.76426 21.6932 9.08051 21.3804L14.9002 15.5572V20.6C14.9002 21.0435 15.1683 21.4457 15.5808 21.6175C15.9933 21.7894 16.4643 21.6932 16.7805 21.3804L22.6002 15.5572V20.6C22.6002 21.2085 23.0918 21.7 23.7002 21.7C24.3086 21.7 24.8002 21.2085 24.8002 20.6V7.40004C24.8002 6.7916 24.3086 6.30004 23.7002 6.30004C23.0918 6.30004 22.6002 6.7916 22.6002 7.40004V12.4429L16.7771 6.61972C16.4608 6.30347 15.9899 6.21066 15.5774 6.38254C15.1649 6.55441 14.9002 6.9566 14.9002 7.40004V12.4429L9.07707 6.62316C8.76082 6.30691 8.28988 6.2141 7.87738 6.38597C7.46488 6.55785 7.2002 6.9566 7.2002 7.40004V20.6C7.2002 21.0435 7.46832 21.4457 7.88082 21.6175Z" fill="#6E3B08"/>
</svg>
