<svg width="32" height="28" viewBox="0 0 32 28" fill="none" xmlns="http://www.w3.org/2000/svg">
<rect width="32" height="28" rx="8" fill="#FFC260"/>
<path d="M15.1545 4.27197L15.6632 5.53697L16.9282 6.04572C17.0313 6.08697 17.1001 6.1901 17.1001 6.3001C17.1001 6.4101 17.0313 6.51322 16.9282 6.55447L15.6632 7.06322L15.1545 8.32822C15.1132 8.43135 15.0101 8.5001 14.9001 8.5001C14.7901 8.5001 14.687 8.43135 14.6457 8.32822L14.137 7.06322L12.872 6.55447C12.7688 6.51322 12.7001 6.4101 12.7001 6.3001C12.7001 6.1901 12.7688 6.08697 12.872 6.04572L14.137 5.53697L14.6457 4.27197C14.687 4.16885 14.7901 4.1001 14.9001 4.1001C15.0101 4.1001 15.1132 4.16885 15.1545 4.27197ZM9.90541 6.63354L10.6445 8.35572L12.3667 9.09479C12.5695 9.18072 12.7001 9.3801 12.7001 9.6001C12.7001 9.8201 12.5695 10.0195 12.3667 10.1054L10.6445 10.8445L9.90541 12.5667C9.81947 12.7695 9.6201 12.9001 9.4001 12.9001C9.1801 12.9001 8.98072 12.7695 8.89479 12.5667L8.15572 10.8445L6.43354 10.1054C6.23072 10.0195 6.1001 9.8201 6.1001 9.6001C6.1001 9.3801 6.23072 9.18072 6.43354 9.09479L8.15572 8.35572L8.89479 6.63354C8.98072 6.43072 9.1801 6.3001 9.4001 6.3001C9.6201 6.3001 9.81947 6.43072 9.90541 6.63354ZM22.0501 15.6501C22.2701 15.6501 22.4695 15.7807 22.5554 15.9835L23.2945 17.7057L25.0167 18.4448C25.2195 18.5307 25.3501 18.7301 25.3501 18.9501C25.3501 19.1701 25.2195 19.3695 25.0167 19.4554L23.2945 20.1945L22.5554 21.9167C22.4695 22.1195 22.2701 22.2501 22.0501 22.2501C21.8301 22.2501 21.6307 22.1195 21.5448 21.9167L20.8057 20.1945L19.0835 19.4554C18.8807 19.3695 18.7501 19.1701 18.7501 18.9501C18.7501 18.7301 18.8807 18.5307 19.0835 18.4448L20.8057 17.7057L21.5448 15.9835C21.6307 15.7807 21.8301 15.6501 22.0501 15.6501ZM21.9126 5.2001C22.2907 5.2001 22.6551 5.35135 22.9267 5.61947L24.3807 7.07354C24.6488 7.3451 24.8001 7.70947 24.8001 8.0876C24.8001 8.46572 24.6488 8.8301 24.3807 9.10166L21.3488 12.1335L17.8667 8.65135L20.8985 5.61947C21.1701 5.35135 21.5345 5.2001 21.9126 5.2001ZM7.61947 18.8985L16.7013 9.81666L20.1835 13.2988L11.1017 22.3807C10.8301 22.6488 10.4657 22.8001 10.0876 22.8001C9.70947 22.8001 9.3451 22.6488 9.07354 22.3807L7.61947 20.9267C7.35135 20.6551 7.2001 20.2907 7.2001 19.9126C7.2001 19.5345 7.35135 19.1701 7.61947 18.8985Z" fill="#6E3B08"/>
</svg>
