<svg width="32" height="28" viewBox="0 0 32 28" fill="none" xmlns="http://www.w3.org/2000/svg">
<rect width="32" height="28" rx="8" fill="#FFC260"/>
<path d="M14.3674 7.34151L15.3333 6.07308C15.7527 5.52308 16.4058 5.19995 17.1002 5.19995C18.0799 5.19995 18.9427 5.84276 19.2246 6.7812L19.8364 8.82308C20.1905 10.0056 21.0774 10.9543 22.2358 11.3875L23.6039 11.8996C24.3224 12.1712 24.8002 12.8587 24.8002 13.6253C24.8002 14.2062 24.5286 14.7528 24.0611 15.1L21.7477 16.8359C20.9124 17.4615 20.4689 18.4825 20.5858 19.5206L20.6718 20.3009C20.8196 21.6312 19.778 22.7965 18.4374 22.7965C17.9286 22.7965 17.4302 22.6212 17.0314 22.305L15.1305 20.7821C14.9758 20.6584 14.8108 20.5518 14.6321 20.4659C14.0889 20.1943 13.4736 20.1084 12.8789 20.215L10.0327 20.734C8.84332 20.9506 7.7502 20.0362 7.7502 18.8296C7.7502 18.3759 7.91176 17.9359 8.20051 17.5853L8.58551 17.1246C9.08738 16.5265 9.36238 15.7703 9.36238 14.99C9.36238 14.3437 9.17332 13.7112 8.81926 13.1681L7.5027 11.164C7.30676 10.8615 7.2002 10.5075 7.2002 10.1465C7.2002 8.99839 8.23488 8.12526 9.36582 8.31776L11.1293 8.61683C12.3633 8.82651 13.6111 8.33495 14.3674 7.34151Z" fill="#6E3B08"/>
</svg>
