<svg width="32" height="28" viewBox="0 0 32 28" fill="none" xmlns="http://www.w3.org/2000/svg">
<rect width="32" height="28" rx="8" fill="#FFC260"/>
<path d="M22.6173 5.55401L15.0067 10.6312C14.0063 11.2981 13.3704 12.3809 13.2673 13.5634C15.4088 14.0034 17.0967 15.6912 17.5401 17.8362C18.726 17.7331 19.8054 17.0971 20.4723 16.0968L25.546 8.48276C25.7763 8.13558 25.9001 7.72995 25.9001 7.31058C25.9001 6.14526 24.9548 5.19995 23.7895 5.19995C23.3735 5.19995 22.9645 5.3237 22.6173 5.55401ZM16.0001 18.95C16.0001 16.8221 14.2779 15.1 12.1501 15.1C10.0223 15.1 8.3001 16.8221 8.3001 18.95C8.3001 19.084 8.30697 19.2181 8.32072 19.3487C8.3826 19.9503 7.9701 20.6 7.3651 20.6H7.2001C6.59166 20.6 6.1001 21.0915 6.1001 21.7C6.1001 22.3084 6.59166 22.8 7.2001 22.8H12.1501C14.2779 22.8 16.0001 21.0778 16.0001 18.95Z" fill="#6E3B08"/>
</svg>
