<svg width="32" height="28" viewBox="0 0 32 28" fill="none" xmlns="http://www.w3.org/2000/svg">
<rect width="32" height="28" rx="8" fill="#FFC260"/>
<path d="M11.5998 22.8H22.5998C23.2082 22.8 23.6998 22.3084 23.6998 21.7C23.6998 21.0915 23.2082 20.6 22.5998 20.6V18.3071C23.2392 18.0803 23.6998 17.4684 23.6998 16.75V6.84995C23.6998 5.93901 22.9607 5.19995 22.0498 5.19995H11.5998C9.77793 5.19995 8.2998 6.67808 8.2998 8.49995V19.5C8.2998 21.3218 9.77793 22.8 11.5998 22.8ZM10.4998 19.5C10.4998 18.8915 10.9914 18.4 11.5998 18.4H20.3998V20.6H11.5998C10.9914 20.6 10.4998 20.1084 10.4998 19.5ZM18.9767 12.35H17.8904C17.8423 13.144 17.6842 13.8693 17.4573 14.4537C18.2376 14.024 18.8117 13.2575 18.9767 12.35ZM13.0264 12.35C13.1914 13.2575 13.7654 14.024 14.5457 14.4537C14.3154 13.8693 14.1607 13.1475 14.1126 12.35H13.0264ZM15.6526 14.2406C15.8073 14.5706 15.9345 14.715 16.0032 14.7734C16.072 14.715 16.1992 14.574 16.3539 14.2406C16.567 13.78 16.7354 13.1234 16.7904 12.35H15.2161C15.2711 13.1234 15.4395 13.78 15.6526 14.2406ZM15.2161 11.25H16.7904C16.7354 10.4765 16.567 9.81995 16.3539 9.35933C16.1992 9.02933 16.072 8.88495 16.0032 8.82651C15.9345 8.88495 15.8073 9.02589 15.6526 9.35933C15.4395 9.81995 15.2711 10.4765 15.2161 11.25ZM18.9801 11.25C18.8151 10.3425 18.2411 9.57589 17.4607 9.1462C17.6911 9.73058 17.8457 10.4525 17.8939 11.25H18.9801ZM14.1092 11.25C14.1573 10.4559 14.3154 9.73058 14.5423 9.1462C13.762 9.57589 13.1879 10.3425 13.0229 11.25H14.1092ZM11.5998 11.8C11.5998 9.36964 13.5695 7.39995 15.9998 7.39995C18.4301 7.39995 20.3998 9.36964 20.3998 11.8C20.3998 14.2303 18.4301 16.2 15.9998 16.2C13.5695 16.2 11.5998 14.2303 11.5998 11.8Z" fill="#6E3B08"/>
</svg>
