<svg width="32" height="28" viewBox="0 0 32 28" fill="none" xmlns="http://www.w3.org/2000/svg">
<rect width="32" height="28" rx="8" fill="#FFC260"/>
<path d="M21.5002 19.8918C23.5111 18.3793 24.8002 16.0556 24.8002 13.45C24.8002 8.89526 20.8608 5.19995 16.0002 5.19995C11.1396 5.19995 7.2002 8.89526 7.2002 13.45C7.2002 16.0556 8.48926 18.3793 10.5002 19.8918V21.15C10.5002 22.0609 11.2393 22.8 12.1502 22.8H13.2502V21.425C13.2502 20.9678 13.618 20.6 14.0752 20.6C14.5324 20.6 14.9002 20.9678 14.9002 21.425V22.8H17.1002V21.425C17.1002 20.9678 17.468 20.6 17.9252 20.6C18.3824 20.6 18.7502 20.9678 18.7502 21.425V22.8H19.8502C20.7611 22.8 21.5002 22.0609 21.5002 21.15V19.8918ZM10.5002 14C10.5002 12.7865 11.4868 11.8 12.7002 11.8C13.9136 11.8 14.9002 12.7865 14.9002 14C14.9002 15.2134 13.9136 16.2 12.7002 16.2C11.4868 16.2 10.5002 15.2134 10.5002 14ZM19.3002 11.8C20.5136 11.8 21.5002 12.7865 21.5002 14C21.5002 15.2134 20.5136 16.2 19.3002 16.2C18.0868 16.2 17.1002 15.2134 17.1002 14C17.1002 12.7865 18.0868 11.8 19.3002 11.8Z" fill="#6E3B08"/>
</svg>
