<svg width="32" height="28" viewBox="0 0 32 28" fill="none" xmlns="http://www.w3.org/2000/svg">
<rect width="32" height="28" rx="8" fill="#FFC260"/>
<path d="M9.4002 5.19995C8.18676 5.19995 7.2002 6.18651 7.2002 7.39995V20.6C7.2002 21.8134 8.18676 22.8 9.4002 22.8H15.5877C15.2268 22.2981 14.9346 21.7446 14.7249 21.15H12.1502V18.4C12.1502 17.7915 12.6418 17.3 13.2502 17.3H14.3502C14.4189 17.3 14.4877 17.3068 14.553 17.3171C14.7593 16.5059 15.1133 15.7565 15.5877 15.1H15.4502C15.1477 15.1 14.9002 14.8525 14.9002 14.55V13.45C14.9002 13.1475 15.1477 12.9 15.4502 12.9H16.5502C16.8527 12.9 17.1002 13.1475 17.1002 13.45V13.5875C18.0455 12.9068 19.173 12.4737 20.4002 12.3706V7.39995C20.4002 6.18651 19.4136 5.19995 18.2002 5.19995H9.4002ZM10.5002 9.04995C10.5002 8.74745 10.7477 8.49995 11.0502 8.49995H12.1502C12.4527 8.49995 12.7002 8.74745 12.7002 9.04995V10.15C12.7002 10.4525 12.4527 10.7 12.1502 10.7H11.0502C10.7477 10.7 10.5002 10.4525 10.5002 10.15V9.04995ZM15.4502 8.49995H16.5502C16.8527 8.49995 17.1002 8.74745 17.1002 9.04995V10.15C17.1002 10.4525 16.8527 10.7 16.5502 10.7H15.4502C15.1477 10.7 14.9002 10.4525 14.9002 10.15V9.04995C14.9002 8.74745 15.1477 8.49995 15.4502 8.49995ZM10.5002 13.45C10.5002 13.1475 10.7477 12.9 11.0502 12.9H12.1502C12.4527 12.9 12.7002 13.1475 12.7002 13.45V14.55C12.7002 14.8525 12.4527 15.1 12.1502 15.1H11.0502C10.7477 15.1 10.5002 14.8525 10.5002 14.55V13.45ZM20.9502 23.9C23.683 23.9 25.9002 21.6828 25.9002 18.95C25.9002 16.2171 23.683 14 20.9502 14C18.2174 14 16.0002 16.2171 16.0002 18.95C16.0002 21.6828 18.2174 23.9 20.9502 23.9ZM21.7271 18.95L22.9886 20.2115C23.2018 20.4246 23.2018 20.7753 22.9886 20.9884C22.7755 21.2015 22.4249 21.2015 22.2118 20.9884L20.9502 19.7268L19.6886 20.9884C19.4755 21.2015 19.1249 21.2015 18.9118 20.9884C18.6986 20.7753 18.6986 20.4246 18.9118 20.2115L20.1733 18.95L18.9118 17.6884C18.6986 17.4753 18.6986 17.1246 18.9118 16.9115C19.1249 16.6984 19.4755 16.6984 19.6886 16.9115L20.9502 18.1731L22.2118 16.9115C22.4249 16.6984 22.7755 16.6984 22.9886 16.9115C23.2018 17.1246 23.2018 17.4753 22.9886 17.6884L21.7271 18.95Z" fill="#6E3B08"/>
</svg>
