<svg width="32" height="28" viewBox="0 0 32 28" fill="none" xmlns="http://www.w3.org/2000/svg">
<rect width="32" height="28" rx="8" fill="#FFC260"/>
<path d="M9.39992 11.6831C9.39992 8.1012 12.3562 5.19995 15.9999 5.19995C19.6437 5.19995 22.5999 8.1012 22.5999 11.6831C22.5999 15.784 18.468 20.6996 16.7424 22.5731C16.3368 23.0131 15.6596 23.0131 15.254 22.5731C13.5284 20.6996 9.39648 15.784 9.39648 11.6831H9.39992ZM15.9999 14C17.2134 14 18.1999 13.0134 18.1999 11.8C18.1999 10.5865 17.2134 9.59995 15.9999 9.59995C14.7865 9.59995 13.7999 10.5865 13.7999 11.8C13.7999 13.0134 14.7865 14 15.9999 14Z" fill="#6E3B08"/>
</svg>
