<svg width="32" height="28" viewBox="0 0 32 28" fill="none" xmlns="http://www.w3.org/2000/svg">
<rect width="32" height="28" rx="8" fill="#FFC260"/>
<g clip-path="url(#clip0_160_159)">
<path d="M17.1 9.47964L15.316 9.03276C15.0925 8.97776 14.9275 8.7887 14.9035 8.55839C14.8794 8.32808 14.9997 8.10808 15.2025 8.00495L16.605 7.3037L15.1166 6.18651C14.9275 6.04558 14.8485 5.79808 14.9241 5.5712C14.9997 5.34433 15.2128 5.19995 15.45 5.19995H20.95C21.9882 5.19995 22.9678 5.68808 23.59 6.51995L25.57 9.15995C25.7832 9.44526 25.9 9.79245 25.9 10.15C25.9 11.0609 25.161 11.8 24.25 11.8H23.511C22.9266 11.8 22.3663 11.5696 21.9538 11.1571L21.4966 10.7H20.3966V11.439C20.3966 12.2915 20.8366 13.0856 21.5585 13.5393L25.2228 15.8287C26.3263 16.5196 26.9966 17.7262 26.9966 19.029C26.9966 21.1121 25.3088 22.8034 23.2222 22.8034L6.11034 22.8C5.9969 22.8 5.88347 22.7862 5.78034 22.7518C5.46409 22.6556 5.20628 22.4218 5.07909 22.1125C5.0344 21.999 5.00347 21.8753 5.00003 21.7446C4.99315 21.6175 5.01034 21.4937 5.04472 21.3768C5.14097 21.0606 5.37472 20.8028 5.68409 20.6756C5.78722 20.6343 5.89722 20.6068 6.01065 20.6L19.8947 19.3625C20.18 19.3384 20.4 19.0978 20.4 18.809C20.4 18.6612 20.3416 18.5203 20.2385 18.4171L18.7122 16.8909C17.681 15.8596 17.1 14.4606 17.1 13.0031V9.47964ZM22.6 7.68526C22.6 7.68183 22.6 7.67839 22.6 7.67495C22.6 7.67151 22.6 7.66808 22.6 7.66464V7.68526ZM22.5553 7.93964L20.9603 7.54089C20.9535 7.58558 20.95 7.63026 20.95 7.67495C20.95 8.13214 21.3178 8.49995 21.775 8.49995C22.1394 8.49995 22.4453 8.2662 22.5553 7.93964ZM9.49972 9.20464C10.06 8.7062 10.8885 8.64776 11.5107 9.0637L16 12.0543V12.9996C16 14.1271 16.2888 15.2271 16.825 16.1965H8.85003C8.61972 16.1965 8.41347 16.0521 8.3344 15.839C8.25534 15.6259 8.31722 15.3818 8.49253 15.2306L10.8782 13.1853L5.63253 13.9931C5.3919 14.0309 5.15472 13.9037 5.05159 13.6837C4.94847 13.4637 5.00347 13.2025 5.18565 13.0375L9.49972 9.20464Z" fill="#6E3B08"/>
</g>
<defs>
<clipPath id="clip0_160_159">
<rect width="22" height="22" fill="white" transform="translate(5 3)"/>
</clipPath>
</defs>
</svg>
