<svg width="32" height="28" viewBox="0 0 32 28" fill="none" xmlns="http://www.w3.org/2000/svg">
<rect width="32" height="28" rx="8" fill="#FFC260"/>
<path d="M16.0002 6.30005C13.2227 6.30005 10.9987 7.56505 9.37961 9.07067C7.77086 10.566 6.69492 12.35 6.18273 13.5772C6.0693 13.8488 6.0693 14.1513 6.18273 14.4229C6.69492 15.65 7.77086 17.4375 9.37961 18.9294C10.9987 20.4316 13.2227 21.7 16.0002 21.7C18.7777 21.7 21.0018 20.435 22.6209 18.9294C24.2296 17.4341 25.3055 15.65 25.8177 14.4229C25.9312 14.1513 25.9312 13.8488 25.8177 13.5772C25.3055 12.35 24.2296 10.5625 22.6209 9.07067C21.0018 7.56849 18.7777 6.30005 16.0002 6.30005ZM11.0502 14C11.0502 11.2672 13.2674 9.05005 16.0002 9.05005C18.733 9.05005 20.9502 11.2672 20.9502 14C20.9502 16.7329 18.733 18.95 16.0002 18.95C13.2674 18.95 11.0502 16.7329 11.0502 14ZM16.0002 11.8C16.0002 13.0135 15.0137 14 13.8002 14C13.4049 14 13.0337 13.8969 12.7105 13.7113C12.6762 14.086 12.7071 14.471 12.8102 14.8525C13.2812 16.6125 15.0927 17.6575 16.8527 17.1866C18.6127 16.7157 19.6577 14.9041 19.1868 13.1441C18.7674 11.5732 17.279 10.5729 15.7115 10.7104C15.8937 11.03 16.0002 11.4013 16.0002 11.8Z" fill="#6E3B08"/>
</svg>
