<svg width="16" height="16" viewBox="0 0 16 16" fill="none" xmlns="http://www.w3.org/2000/svg">
<path d="M4.8 3.20001C4.8 2.31751 5.5175 1.60001 6.4 1.60001H14.4C15.2825 1.60001 16 2.31751 16 3.20001V8.80001C16 9.68251 15.2825 10.4 14.4 10.4H6.4C5.5175 10.4 4.8 9.68251 4.8 8.80001V3.20001ZM8 4.00001C8 3.55751 7.6425 3.20001 7.2 3.20001C6.7575 3.20001 6.4 3.55751 6.4 4.00001C6.4 4.44251 6.7575 4.80001 7.2 4.80001C7.6425 4.80001 8 4.44251 8 4.00001ZM11.9125 4.28751C11.8025 4.11001 11.61 4.00001 11.4 4.00001C11.19 4.00001 10.9975 4.11001 10.8875 4.28751L9.5375 6.49501L9.09 5.85501C8.9775 5.69501 8.795 5.60001 8.5975 5.60001C8.4 5.60001 8.2175 5.69501 8.105 5.85501L6.705 7.85501C6.5775 8.03751 6.56 8.27751 6.665 8.47501C6.77 8.67251 6.9775 8.80001 7.2 8.80001H13.6C13.8175 8.80001 14.0175 8.68251 14.1225 8.49251C14.2275 8.30251 14.225 8.07251 14.11 7.88501L11.91 4.28501L11.9125 4.28751ZM3.6 4.80001V8.80001C3.6 10.3475 4.8525 11.6 6.4 11.6H11.2V12C11.2 12.8825 10.4825 13.6 9.6 13.6H1.6C0.7175 13.6 0 12.8825 0 12V6.40001C0 5.51751 0.7175 4.80001 1.6 4.80001H3.6ZM1.3 6.50001V7.10001C1.3 7.32001 1.48 7.50001 1.7 7.50001H2.3C2.52 7.50001 2.7 7.32001 2.7 7.10001V6.50001C2.7 6.28001 2.52 6.10001 2.3 6.10001H1.7C1.48 6.10001 1.3 6.28001 1.3 6.50001ZM1.7 8.50001C1.48 8.50001 1.3 8.68001 1.3 8.90001V9.50001C1.3 9.72001 1.48 9.90001 1.7 9.90001H2.3C2.52 9.90001 2.7 9.72001 2.7 9.50001V8.90001C2.7 8.68001 2.52 8.50001 2.3 8.50001H1.7ZM1.7 10.9C1.48 10.9 1.3 11.08 1.3 11.3V11.9C1.3 12.12 1.48 12.3 1.7 12.3H2.3C2.52 12.3 2.7 12.12 2.7 11.9V11.3C2.7 11.08 2.52 10.9 2.3 10.9H1.7Z" fill="#737AAE"/>
</svg>
