<svg width="42" height="42" viewBox="0 0 42 42" fill="none" xmlns="http://www.w3.org/2000/svg">
<rect width="42" height="42" rx="8" fill="#FFC260"/>
<path d="M11.3999 11.4C11.3999 9.635 12.8349 8.2 14.5999 8.2H22.0749C22.9249 8.2 23.7399 8.535 24.3399 9.135L29.6649 14.465C30.2649 15.065 30.5999 15.88 30.5999 16.73V30.6C30.5999 32.365 29.1649 33.8 27.3999 33.8H14.5999C12.8349 33.8 11.3999 32.365 11.3999 30.6V11.4ZM21.7999 11.125V15.8C21.7999 16.465 22.3349 17 22.9999 17H27.6749L21.7999 11.125ZM14.5999 12.6C14.5999 13.265 15.1349 13.8 15.7999 13.8H18.1999C18.8649 13.8 19.3999 13.265 19.3999 12.6C19.3999 11.935 18.8649 11.4 18.1999 11.4H15.7999C15.1349 11.4 14.5999 11.935 14.5999 12.6ZM14.5999 17.4C14.5999 18.065 15.1349 18.6 15.7999 18.6H18.1999C18.8649 18.6 19.3999 18.065 19.3999 17.4C19.3999 16.735 18.8649 16.2 18.1999 16.2H15.7999C15.1349 16.2 14.5999 16.735 14.5999 17.4ZM20.1999 21.2V21.4C18.7599 21.415 17.5999 22.585 17.5999 24.025C17.5999 25.31 18.5249 26.405 19.7949 26.615L21.8799 26.965C22.1799 27.015 22.3999 27.275 22.3999 27.58C22.3999 27.925 22.1199 28.205 21.7749 28.205L18.9999 28.2C18.4499 28.2 17.9999 28.65 17.9999 29.2C17.9999 29.75 18.4499 30.2 18.9999 30.2H20.1999V30.4C20.1999 30.95 20.6499 31.4 21.1999 31.4C21.7499 31.4 22.1999 30.95 22.1999 30.4V30.165C23.4499 29.96 24.3999 28.88 24.3999 27.575C24.3999 26.29 23.4749 25.195 22.2049 24.985L20.1199 24.635C19.8199 24.585 19.5999 24.325 19.5999 24.02C19.5999 23.675 19.8799 23.395 20.2249 23.395H22.5999C23.1499 23.395 23.5999 22.945 23.5999 22.395C23.5999 21.845 23.1499 21.395 22.5999 21.395H22.1999V21.195C22.1999 20.645 21.7499 20.195 21.1999 20.195C20.6499 20.195 20.1999 20.645 20.1999 21.195V21.2Z" fill="#6E3B08"/>
</svg>
