<svg width="16" height="16" viewBox="0 0 16 16" fill="none" xmlns="http://www.w3.org/2000/svg">
<path d="M9.94708 6.42208C10.2521 6.33958 10.5721 6.48458 10.7096 6.76708L11.1746 7.70708C11.4321 7.74208 11.6846 7.81208 11.9221 7.90958L12.7971 7.32708C13.0596 7.15208 13.4071 7.18708 13.6296 7.40958L14.1096 7.88958C14.3321 8.11208 14.3671 8.46208 14.1921 8.72208L13.6096 9.59458C13.6571 9.71208 13.6996 9.83458 13.7346 9.96208C13.7696 10.0896 13.7921 10.2146 13.8096 10.3421L14.7521 10.8071C15.0346 10.9471 15.1796 11.2671 15.0971 11.5696L14.9221 12.2246C14.8396 12.5271 14.5571 12.7321 14.2421 12.7121L13.1921 12.6446C13.0346 12.8471 12.8521 13.0346 12.6446 13.1946L12.7121 14.2421C12.7321 14.5571 12.5271 14.8421 12.2246 14.9221L11.5696 15.0971C11.2646 15.1796 10.9471 15.0346 10.8071 14.7521L10.3421 13.8121C10.0846 13.7771 9.83208 13.7071 9.59458 13.6096L8.71958 14.1921C8.45708 14.3671 8.10958 14.3321 7.88708 14.1096L7.40708 13.6296C7.18458 13.4071 7.14958 13.0596 7.32458 12.7971L7.90708 11.9221C7.85958 11.8046 7.81708 11.6821 7.78208 11.5546C7.74708 11.4271 7.72458 11.2996 7.70708 11.1746L6.76458 10.7096C6.48208 10.5696 6.33958 10.2496 6.41958 9.94708L6.59458 9.29208C6.67708 8.98958 6.95958 8.78458 7.27458 8.80458L8.32208 8.87208C8.47958 8.66958 8.66208 8.48208 8.86958 8.32208L8.80208 7.27708C8.78208 6.96208 8.98708 6.67708 9.28958 6.59708L9.94458 6.42208H9.94708ZM10.7596 9.65958C10.1521 9.65958 9.65958 10.1521 9.66208 10.7621C9.66208 11.3696 10.1546 11.8596 10.7621 11.8596C11.3696 11.8596 11.8621 11.3671 11.8621 10.7596C11.8596 10.1496 11.3671 9.65958 10.7596 9.65958ZM5.17208 0.0220781L5.82708 0.197078C6.12958 0.279578 6.33458 0.564578 6.31458 0.877078L6.24708 1.92208C6.45458 2.08208 6.63708 2.26708 6.79458 2.47208L7.84458 2.40458C8.15708 2.38458 8.44208 2.58958 8.52458 2.89208L8.69958 3.54708C8.77958 3.84958 8.63708 4.16958 8.35458 4.30958L7.41208 4.77458C7.39458 4.90208 7.36958 5.02958 7.33708 5.15458C7.30458 5.27958 7.25958 5.40458 7.21208 5.52208L7.79458 6.39708C7.96958 6.65958 7.93458 7.00708 7.71208 7.22958L7.23208 7.70958C7.00958 7.93208 6.66208 7.96708 6.39958 7.79208L5.52458 7.20958C5.28708 7.30708 5.03458 7.37708 4.77708 7.41208L4.31208 8.35208C4.17208 8.63458 3.85208 8.77708 3.54958 8.69708L2.89458 8.52208C2.58958 8.43958 2.38708 8.15458 2.40708 7.84208L2.47458 6.79458C2.26708 6.63458 2.08458 6.44958 1.92708 6.24458L0.877078 6.31208C0.564578 6.33208 0.279578 6.12708 0.197078 5.82458L0.0220781 5.16958C-0.0579219 4.86708 0.0845781 4.54708 0.367078 4.40708L1.30958 3.94208C1.32708 3.81458 1.35208 3.68958 1.38458 3.56208C1.41958 3.43458 1.45958 3.31208 1.50958 3.19458L0.927078 2.32208C0.752078 2.05958 0.787078 1.71208 1.00958 1.48958L1.48958 1.00958C1.71208 0.787078 2.05958 0.752078 2.32208 0.927078L3.19708 1.50958C3.43458 1.41208 3.68708 1.34208 3.94458 1.30708L4.40958 0.367078C4.54958 0.0845781 4.86708 -0.0579219 5.17208 0.0220781ZM4.35958 3.25958C3.75208 3.25958 3.25958 3.75208 3.25958 4.35958C3.25958 4.96708 3.75208 5.45958 4.35958 5.45958C4.96708 5.45958 5.45958 4.96708 5.45958 4.35958C5.45958 3.75208 4.96708 3.25958 4.35958 3.25958Z" fill="#737AAE"/>
</svg>
